<?xml version="1.0" standalone="no"?>
<!DOCTYPE svg PUBLIC "-//W3C//DTD SVG 20010904//EN"
 "http://www.w3.org/TR/2001/REC-SVG-20010904/DTD/svg10.dtd">
<svg version="1.0" xmlns="http://www.w3.org/2000/svg"
 width="700.000000pt" height="700.000000pt" viewBox="0 0 700.000000 700.000000"
 preserveAspectRatio="xMidYMid meet">
<metadata>
Created by potrace 1.11, written by Peter Selinger 2001-2013
</metadata>
<g transform="translate(0.000000,700.000000) scale(0.100000,-0.100000)"
fill="#000000" stroke="none">
<path d="M3488 6966 c-1 -2 -66 -6 -143 -10 -77 -3 -151 -8 -165 -11 -22 -3
-55 -7 -179 -21 -44 -4 -188 -33 -226 -45 -16 -5 -86 -22 -155 -39 -228 -55
-267 -67 -460 -147 -626 -260 -1178 -719 -1540 -1280 -38 -59 -73 -112 -78
-118 -24 -29 -192 -350 -222 -425 -12 -30 -26 -64 -31 -75 -56 -129 -119 -323
-144 -445 -36 -173 -67 -336 -71 -375 -4 -27 -8 -53 -10 -56 -16 -28 -25 -651
-11 -774 4 -33 10 -82 13 -110 3 -27 7 -57 9 -65 2 -8 7 -31 10 -50 25 -146
107 -438 170 -600 79 -206 268 -603 299 -629 9 -7 16 -18 16 -23 0 -13 207
-300 308 -427 95 -120 382 -389 557 -522 163 -125 523 -328 726 -412 133 -54
524 -174 629 -193 14 -3 32 -7 40 -9 26 -7 128 -22 290 -41 30 -3 57 -7 60 -9
23 -14 347 -21 470 -11 220 19 329 43 625 136 55 18 111 35 125 40 34 10 86
33 210 93 167 80 339 194 586 388 6 5 58 -39 140 -119 158 -158 313 -263 484
-332 30 -12 64 -26 75 -31 26 -11 137 -48 161 -54 11 -2 57 -14 104 -25 47
-11 105 -22 130 -26 25 -3 56 -7 70 -9 38 -6 117 -14 205 -20 44 -3 107 -8
140 -10 33 -2 102 -7 153 -10 l92 -6 0 83 c4 858 1 3457 -4 3523 -10 135 -15
196 -22 240 -3 22 -7 51 -9 65 -49 359 -128 650 -250 915 -163 358 -255 509
-485 799 -65 83 -242 270 -336 356 -118 109 -356 294 -459 357 -11 7 -51 31
-90 55 -96 58 -393 207 -490 245 -267 105 -596 198 -770 218 -33 4 -67 9 -75
10 -8 2 -44 6 -80 10 -36 4 -74 9 -85 11 -11 2 -78 7 -150 10 -71 3 -135 7
-142 9 -6 2 -13 2 -15 1z m98 -1738 c96 -111 106 -123 275 -313 119 -134 199
-225 269 -305 12 -14 38 -45 58 -69 21 -25 48 -57 62 -72 14 -15 32 -36 40
-46 8 -10 47 -57 86 -103 145 -174 250 -324 313 -449 59 -118 125 -323 137
-426 3 -22 7 -48 10 -59 7 -22 7 -233 0 -244 -3 -5 -8 -30 -11 -56 -23 -163
-131 -409 -251 -569 -115 -153 -267 -281 -445 -376 -208 -110 -356 -146 -621
-150 -188 -3 -281 11 -442 63 -274 90 -529 290 -702 551 -138 207 -209 425
-208 635 1 63 12 191 20 234 2 12 6 40 9 63 14 117 112 344 210 488 90 131
209 282 385 485 156 180 296 341 335 385 11 12 43 48 70 80 28 32 55 63 60 69
6 6 57 65 115 131 100 115 128 144 141 145 3 0 41 -41 85 -92z"/>
<path d="M2818 3688 c-56 -43 -119 -158 -153 -278 -29 -99 -27 -291 4 -390 53
-173 144 -308 270 -403 135 -103 271 -149 446 -151 133 -2 191 8 206 35 6 12
9 22 7 23 -211 136 -285 193 -379 291 -185 194 -307 471 -334 760 -8 82 -14
107 -29 117 -15 10 -20 10 -38 -4z"/>
</g>
</svg>
