<svg id="Слой_1" xmlns="http://www.w3.org/2000/svg" viewBox="0 0 512 512"><style>.st0{fill:#fff}.st1{fill:#00bbe4}</style><path class="st0" d="M379.7 49.9c.9 12.9-1.9 24.6-6.6 36-5.5 13.4-14.2 24.5-24.9 34.1-9 8.1-19.4 13.8-30.9 17.6-13.8 4.6-28 6.2-42.3 3.8-7.1-1.2-13.9-3.5-20.8-5.7-1.4-.4-3-2-3.6-3.4-6.2-14-7.9-28.9-6.5-44 1.4-15.5 6.9-29.9 15.8-42.8 6.6-9.6 14.6-17.7 24.2-24.1 7.2-4.8 15-8.4 23.3-11.3 9.1-3.1 18.3-4.2 27.6-4.4 12.4-.3 24.4 2.1 35.9 6.9 1.1.5 2.2 1.7 2.6 2.8 4.2 11.3 7.4 22.8 6.2 34.5zM255.4 97.5c.3 0 .5.1.8.1-1 9 1.3 17.6 4 26 .3 1 1.4 2.1 2.4 2.3 5.7 1.5 11.4 3.3 17.2 4 11.9 1.3 23.7-.2 35-4.1 8.8-3.1 17.2-7.4 24.1-13.8 5.1-4.7 10.2-9.6 14.3-15.1 4-5.5 7.1-11.8 9.6-18.1 2.2-5.5 3.9-11.4 4.6-17.3 1.2-10.7.7-21.4-1.8-32-1.2-4.9-3.6-7.9-8.1-8.7-4.5-.8-9-1.5-13.5-2.2-10.5-1.6-20.9-.5-30.9 2.5-10.6 3.1-20.2 8.5-28.9 15.7-13.1 10.8-21.2 24.6-25.9 40.4-1.9 6.4-2 13.5-2.9 20.3zM362.1 295.3h9.6c15.8-.1 28.4-6.6 38.4-18.6 8.9-10.7 12.2-23 11.2-36.8-1.1-15-8.3-26.7-19.4-36-5.9-4.9-13.2-7.7-20.8-9.6-8.6-2.1-17-1.3-25.2 1-8.8 2.5-16.4 7.5-22.7 14.2-5.6 5.9-9.7 12.8-11.8 20.5-1.6 5.8-2.1 11.9-2.2 17.9-.2 9-2.9 17.2-6.6 25.2-.4 1-1.7 2-2.7 2.2-4.2.9-8.5 1.4-12.8 2-.3 0-.6-.2-1.1-.4 1.7-2.7 3.4-5.3 5-8 4.7-7.9 6.3-16.5 6.4-25.6.2-11.6 3.3-22.2 9.4-32.1 6.8-11 16-19 27.7-24.5 8.1-3.8 16.6-5.9 25.4-5.9 13.3 0 25.5 3.8 36.7 11.5 10.9 7.5 18.5 17.4 23.2 29.4 4 10.1 5 20.7 3.4 31.6-1.5 10.2-5.2 19.5-11.1 27.7-7.1 9.7-16.2 17-27.5 21.6-6.5 2.7-13.1 3.7-19.9 4.9-2.7.5-3.8-.9-5.1-2.7-2.4-2.9-4.8-6-7.5-9.5zM189.6 226.3c-3.8-8.6-8.8-15.6-15.7-21.3-6.6-5.5-14.1-8.5-22.2-10.7-8.4-2.2-16.6-1.2-24.6 1-8.4 2.3-15.7 6.9-21.9 13.2-6.4 6.3-10.7 13.9-13.1 22.3-2.1 7.3-2.4 15.1-1 22.7 1.9 10.7 6.7 19.9 14.5 27.5 9.4 9.1 20.5 14 33.7 14.5 11.4.5 21.6-2.6 31.4-8.3 7.8-4.6 16.9-5.4 25.7-7.1.5-.1 1.4.2 1.7.7 3 4 6 8.1 9.2 12.3-2-.2-3.8-.4-5.6-.5-12-.8-22.3 3.9-32.8 8.9-11.6 5.6-23.7 7.6-36.7 5.6-9.9-1.5-18.7-5.1-26.8-10.6-9.9-6.8-17.1-15.9-22-27-4.2-9.7-6-19.7-5.1-30 1-10.9 4.2-21.1 10.8-30.2 3.8-5.2 7.5-10.6 13.1-14 5.5-3.4 10.8-7.2 16.6-9.7 7.7-3.3 16.1-5 24.5-4.4 19.2 1.2 35.4 8.8 47.6 24.1 1.2 1.5 2.5 3 3.5 4.7.6 1 1 2.5.7 3.4-1.6 3.9-3.4 8-5.5 12.9zM265 361.8c.9 1.5 1.7 2.8 2.3 4.1 4.8 11 13.6 18.1 23.4 24.2 9.8 6.2 16.9 14.9 22.3 25.2 6 11.4 6.9 23.6 5.9 35.8-.9 10.8-5.5 20.6-11.9 29.5-6.3 8.7-14.5 15.3-24.1 19.7-10.9 4.9-22.3 7-34.5 5.3-8.9-1.3-16.9-3.9-24.6-8.3-9.4-5.4-16.7-13-22.3-22.3-4-6.7-7.2-14-7.9-21.7-.8-8.7-1.8-17.7 1.4-26.3 1.6-4.1 2.8-8.3 4.4-12.4.4-1 1.2-2.3 2-2.4 4.8-.9 9.7-1.4 14.9-2.2-2 3.4-3.8 6.6-5.7 9.8-4.3 7.5-5.7 15.8-5.6 24.4.2 9.8 3 18.8 8.5 26.9 5.4 8 12.3 13.9 21.1 18.2 10.6 5.2 21.7 5.8 32.7 3.6 10.5-2.1 19.5-7.6 26.8-15.7 6.6-7.3 10.9-15.8 12.4-25.2 1.2-7.7 1.2-15.8-1.4-23.6-4-12.3-11.1-22-22.2-28.9-8.9-5.5-16.7-12.2-22.5-20.9-.9-1.3-1.5-2.5-.4-4.4 1.9-3.7 3.1-7.7 5-12.4z"/><path class="st0" d="M243.3 67.8c-1.4 4.9-2.4 8.5-3.5 12.1-.2.6-.8 1.3-1.4 1.6-8.4 3.9-16.1 8.8-22.1 16.1-4 4.9-6.8 10.4-8.9 16.4-2.8 7.9-3 16.1-1.9 24.2.9 6.5 3.3 12.6 6.8 18.3 4.5 7.2 10.3 13.1 17.6 17.4 6.6 3.9 13.7 6.8 21.3 6.9 12.7 0 24.9 2.2 36 8.5 9.2 5.2 16.8 12.2 22.3 21.4.4.7.5 1.9.2 2.7-1.7 4.2-3.5 8.3-5.4 12.5-2.4-3.9-4.4-8.1-7.2-11.8-5.7-7.7-13-13.4-22.1-17-7.9-3.1-15.9-3.9-24.3-4.1-9.7-.2-18.7-3.5-26.9-8.5-8.4-5.1-15.5-11.7-20.9-20.1-6.3-9.9-9.7-20.6-10-32.5-.6-18.6 6-34.2 18.8-47.1 7.5-7.6 16.5-13.2 27.2-15.5 1.3-.4 2.5-.9 4.4-1.5zM159.3 310.8c-.6 1.3-.9 2.2-1.5 2.9-6.2 7.1-8.8 15.7-9.8 24.8-1 9.7.5 19.2 4.9 27.9 4.4 8.8 11.1 16 19.7 21.1 10.9 6.4 22.5 8.1 35 6.3 7-1 13-4 19.1-7.1 8.2-4.2 16.9-6.6 26.1-7.1 1.2-.1 2.7 1 3.6 2 2.5 2.7 4.8 5.6 7.2 8.5.4.5.5 1.2.9 2.1-8.3-1.3-16.2-.5-23.7 1.8-5 1.5-9.5 4.8-14.4 6.6-5.7 2.1-11.7 3.9-17.7 5.3-3.9.9-8 1.5-12 1.2-10.9-.8-21.4-3.4-30.8-9.4-10.8-6.9-19.4-15.9-24.6-27.7-4.8-10.9-7-22.3-5.1-34.5 1.1-7.4 3.1-14.2 6.5-20.7.5-.9 1.6-2 2.6-2.2 4.3-.6 8.7-1.1 14-1.8zM304.8 394.8c5.9-.3 11.7-.3 17.4-1 9.9-1.1 18.2-5.8 25.6-12.3 7.9-7.1 13.2-16.1 15.4-26.3 1.3-6.2.6-12.9.4-19.4-.3-7.5-3.6-14-7.5-20.3-4.7-7.5-11.4-12.8-18.9-17.4-7.9-4.9-14.3-11.4-19.5-19-.7-1.1-1-3.1-.5-4.4 1.1-3.6 2.7-7.2 4.2-10.7.2-.5.7-.8 1.3-1.5 4.8 12.5 13.5 21 24.4 27.8 10 6.2 17.5 14.7 22.9 25.3 4.9 9.7 7 19.8 6.7 30.5-.4 13.6-4.9 26-13.3 36.6-9.5 12-22 19.8-37.1 23.2-3.2.7-6.4.9-9.6 1.3-2.6.4-3.2-1.7-4.4-3.2-2.6-3.2-5.1-6.2-7.5-9.2zM237.8 196.5c-13.4 5.8-23.2 14.8-28.9 28-2.9 6.8-3.7 13.9-4.1 21.1-.5 9.9-2.5 19.5-7.4 28.3-.4.6-1.1 1.4-1.8 1.5-4.3.8-8.6 1.4-12.9 2-.5.1-1-.3-1.7-.5 5.5-6.4 8.9-13.6 10.5-21.5 1-5.1 1.5-10.4 1.6-15.7.4-13 5.2-24.3 13.2-34.2 4-5 9.2-9 14-13.4 1.9-1.7 3.9-1.8 6.4-.6 3.2 1.5 6.6 2.4 9.9 3.6.3.2.6.8 1.2 1.4z"/><path class="st1" d="M350.2 223.9c-2.9-2.7-5.5-5.2-8.4-8 10.5-9.4 22.1-13.6 36.1-11 14 2.6 23.6 10.6 29.4 23 2.1 4.5 2.4 9.9 3.3 14.9.1.5-.9 1.3-1.5 1.7-.4.3-1.1.1-1.7.1-8.1.1-7.6 0-9.5-7.8-1.9-7.7-6.8-13.8-14-17.4-11-5.5-21.5-4.6-31.3 3.1-.7.5-1.5.9-2.4 1.4zM227 216.2c11-9.7 22.6-14 36.5-11.2 15 2.9 24.8 11.8 30.4 25.7 1.5 3.7 1.9 7.8 2.5 11.7.1.6-1.2 2.1-2 2.2-3.1.3-6.3.1-9.6.1-.5-6.5-2.4-12.1-6-17.3-6.4-8.9-19-13.7-29.5-10.5-4 1.2-7.7 3.6-11.4 5.8-1.5.9-2.5 1.3-3.8 0-2.3-2-4.5-4.1-7.1-6.5zM284.5 316.2c10-11.8 27.8-15.5 41.7-10.7 18.3 6.4 28.1 24.3 26.9 38.3-3.3 0-6.6.2-9.9-.2-.7-.1-1.7-2.1-1.8-3.3-.6-7.3-3.9-13.1-9.3-17.8-7.6-6.7-16.4-9.1-26.1-6.2-4 1.2-7.6 4-11.4 5.8-.9.4-2.4.5-3 0-2.5-1.8-4.8-3.9-7.1-5.9zM284.7 443.2c-.7-8.9-3.6-16.2-10.2-21.7-11.3-9.4-25.3-9.3-36.7-.3-1.7 1.4-2.7 1.5-4.1-.3-1.8-2.2-3.8-4.1-5.9-6.4 4.6-5.3 10.8-8.4 17.5-10.4 7.1-2.1 14.5-2 21.6 0 8.7 2.6 16.1 7.5 21.5 14.9 4.7 6.3 7.2 13.5 7.8 21.3.2 1.8-.1 2.8-2.2 2.8-3 0-6 .1-9.3.1zM112.6 216.3c10.4-9.6 21.7-13.6 34.8-11.6 12.3 1.8 21.7 8.2 28.4 18.6 3.8 5.9 5.4 12.4 5.9 19.3 0 .6-1 1.3-1.6 1.9-.1.1-.4 0-.7 0-8.9.5-8.5.4-10.6-8.2-1.9-7.6-6.7-13.3-13.7-16.9-11.3-5.7-22-4.6-32 3.3-.7.5-2.5.5-3.3-.1-2.4-1.8-4.5-3.9-7.2-6.3zM228.8 343.9c-2.4-5.9-3.7-11.8-6.9-16.4-9.2-13.8-28.4-16.4-41.3-5.6-1.4 1.2-2.7 2-4-.1-.6-.9-1.5-1.6-2.3-2.4-4.3-4.3-4.3-5 .7-8.4 20-13.5 45.1-8.5 58.2 11.8 3.5 5.4 5 11.6 5.8 17.9.3 2.2-.3 3.4-2.8 3.2-2.8-.2-5.6 0-7.4 0z"/><path class="st0" d="M238.5 376.6c2.2-3.7 4.4-6.9 6-10.5 1.7-3.8 3.3-7.7 4-11.8 1.1-6.8.9-13.9 2.3-20.6 1.3-6.5 3.9-12.6 6.1-18.9.3-.8 1-1.8 1.7-1.9 4.9-.8 9.8-1.3 14.9-2-2.1 3.6-4.2 7.1-6.1 10.7-3.2 6.3-5.3 12.9-5.2 20.1.2 10.7-2.1 20.7-6.7 30.3-1 2.1-2.3 3-4.8 3.1-3.9 0-7.9.9-12.2 1.5zM247.5 295.2h10.9c9.4.1 17.6-3.6 25.8-7.7 4.6-2.3 9.7-3.7 14.6-5.2 3.1-.9 6.3-1.4 9.5-2 2.1-.4 3.9-.2 5.3 2 2.4 3.6 5.2 6.9 8.3 10.9-8.3-1.9-16.1-.7-23.5 1.5-5 1.4-9.6 4.3-14.5 6.5-5.8 2.6-11.5 5.2-18 5.4h-.3c-6.5 3.1-10.3 0-13.5-5.4-1.1-1.9-2.8-3.7-4.6-6zM207.8 262.7c.5.5 1.2 1 1.5 1.7 3.7 10.9 11.5 18.3 20.9 24.2 8.3 5.2 15.2 11.7 21 19.5 1.4 1.8 1.9 3.6.7 6-1.6 3.1-2.7 6.5-4 9.7-.2.4-.6.8-.9 1.1-.4-.4-.9-.8-1.1-1.2-3.3-7.1-7.5-13.6-13.5-18.5-4.8-3.9-10.2-6.9-15.1-10.7-5.8-4.5-11.1-9.6-14.4-16.3-.4-.9-.3-2.2 0-3.2 1.4-4 3.1-7.9 4.9-12.3z"/><path class="st1" d="M355.1 34.6c2.7 10.1 2.5 19.6.6 29.4-3.7 18.4-13.5 32.7-28.7 43.1-14.8 10.1-31.3 14.3-49.3 10.9-.9-.2-2 .2-2.7-.2-.8-.5-1.4-1.5-2-2.3-.1-.2.1-.6.2-1 .7-2.8 1.4-5.6 2.1-8.7 8.6 2.2 17 2.1 25.5.1 9.8-2.3 18.3-6.7 25.7-13.4 7.6-6.8 13-15.1 16.1-24.8 2.9-9 3.5-18.2 1.7-27.6-.4-2.2-.4-3.2 2.3-3.5 2.9-.1 5.6-1.2 8.5-2z"/></svg>