<svg id="Слой_1" xmlns="http://www.w3.org/2000/svg" viewBox="0 0 512 512"><style>.st0{fill:#fff}</style><path class="st0" d="M508.5 507.7c-9.4-.6-18.3-1.1-27.2-1.8-7.7-.6-15.5-1.1-23.1-2.5-23.3-4.3-44.9-12.7-62.9-28.6-5.2-4.6-9.7-10.1-14.2-14.9-8.2 6.2-16.3 13-25.1 18.7-13.7 8.9-28.3 16.2-44.3 20.6-8.8 2.4-17.5 5.7-26.4 7.3-18.6 3.2-37.4 4.1-56.3.9-8.7-1.4-17.6-1.7-26-3.9-14.3-3.7-28.6-7.7-42.5-12.9-10.5-3.9-20.2-9.8-30.2-15-21.3-11.2-39.6-26.5-56.5-43.6-8.4-8.5-15.5-18.3-22.6-27.9-5.9-8-11.7-16.2-16.1-25-6.8-13.5-13.1-27.3-18.3-41.5-4.5-12.3-7.7-25-10.4-37.8-3.3-15.9-3.6-32.1-3.2-48.3.2-8.1.3-16.2 1.2-24.3.9-8 2.6-15.9 4.2-23.7 1.7-8.2 3.2-16.6 5.9-24.5 4-11.6 8.4-23.2 13.9-34.1 6-11.8 12.8-23.3 20.3-34.2 12.7-18.5 27.8-35.1 45.2-49.4 14.7-12.1 30.5-22.9 47.6-31.3 14.4-7.1 29.2-13.6 45-17.2 11-2.5 21.8-5.7 32.9-7.3 20.9-2.9 41.9-4.1 62.9-.9 8.8 1.4 17.9 1.7 26.5 3.9 13.1 3.3 26.1 7.2 38.6 12 11.7 4.5 23 10.1 34 16.1 12.1 6.6 23.3 14.5 34.1 23.2 13 10.5 24.7 22.1 35.3 34.9 12.1 14.6 22.9 30 30.8 47.3 5.2 11.4 11.1 22.7 14.6 34.7 4.5 15.2 7.8 30.9 9.9 46.6 4.9 36.4 1.7 73 2.2 109.5.6 48.1.2 96.2.2 144.3v30.6zM256.1 122.6c-1.1.9-2 1.4-2.7 2.1-14.8 16.8-29.6 33.6-44.2 50.6-11.1 13-22.6 25.8-32.4 39.8-8.8 12.5-15.7 26.4-17.6 41.9-1.1 8.7-2.4 17.7-1.2 26.3 1.7 12.3 5.9 24.2 12.7 35 5.7 9.1 12.3 17.3 20.5 24.5 8.7 7.6 18.3 13.5 28.9 17.6 7 2.7 14.5 4.7 21.9 5.7 7.1 1 14.4.3 21.6.2 16.1-.3 30.8-5.8 44.3-14.1 14.2-8.7 25.8-20.5 33.9-35.4 10-18.5 15.2-37.5 11-58.9-3.1-15.6-8.8-30-17.8-42.6-10.6-15-23.1-28.8-35-42.9-7.4-8.8-15.2-17.2-22.8-25.7-7.1-8-14-16-21.1-24.1z"/><path class="st0" d="M263.1 329.5c-2.2.7-4.4 2.1-6.6 2.1-7 0-14.4.8-21-1-18.2-4.8-31.2-16-38.4-33.8-5.8-14.6-5.2-28.8.8-43 1.7-4 4.6-7.6 7.3-11.1.7-.9 2.6-1.4 3.7-1.1.7.2 1.5 2 1.6 3.1.9 17.8 5.6 34.5 15.4 49.5 7.2 11 16.5 20.1 27.8 27 3.2 2 6.3 4.1 9.5 6.2 0 .6 0 1.3-.1 2.1z"/></svg>