<svg id="Layer_1" xmlns="http://www.w3.org/2000/svg" viewBox="0 0 295.2 295.2"><style>.st0{fill:#00bbe4}.st1{fill:#fff}</style><path class="st0" d="M90.5 138.1h114.3v9.5H90.5zM90.5 161.9h114.3v9.5H90.5zM90.5 185.7h114.3v9.5H90.5z"/><path class="st1" d="M295.2 47.6v-7.1c0-21.5-16.9-39.1-38.1-40.4V0H111.9C89.6 0 71.4 18.2 71.4 40.5V219H0v7.1c0 22.3 18.2 40.5 40.5 40.5h142.9c1.7 0 3.4-.1 5.1-.4 9.8 17.3 28.4 28.9 49.6 28.9 31.5 0 57.1-25.6 57.1-57.1 0-22.6-13-42.6-33.3-51.9V138h9.5v-9.5h-47.6v-81h71.4zm-9.6-9.5h-61.7c1.2-16 14.6-28.6 30.9-28.6s29.6 12.6 30.8 28.6zm-245.1 219c-16.3 0-29.6-12.6-30.9-28.6h133.3c.7 11.4 6.1 21.6 14.4 28.6H40.5zm197.6 28.6c-26.3 0-47.6-21.4-47.6-47.6 0-5 .8-9.8 2.2-14.3H229c2.3 13.5 14 23.8 28.1 23.8 12.9 0 23.8-8.6 27.3-20.3.8 3.5 1.2 7.1 1.2 10.8.1 26.3-21.2 47.6-47.5 47.6zm.7-61.9h36.7c-2.1 8.2-9.5 14.3-18.4 14.3s-16.2-6.1-18.3-14.3zm16.6-30c10.4 4.1 18.7 11.4 24 20.5h-82.6c5.3-9.1 13.6-16.4 24-20.5l3-1.2v-54.5h28.6v54.5l3 1.2zm-50.6-65.2v9.5h9.5v48.1c-20.4 9.3-33.3 29.3-33.3 51.9 0 6.7 1.2 13 3.3 19h-.9c-17.1 0-31-13.9-31-31V219H81V40.5c0-17.1 13.9-31 31-31h116.8c-8.8 7.4-14.4 18.5-14.4 31v88.1h-9.6z"/><path class="st1" d="M223.8 247.6c-7.9 0-14.3 6.4-14.3 14.3s6.4 14.3 14.3 14.3 14.3-6.4 14.3-14.3-6.4-14.3-14.3-14.3zm0 19.1c-2.6 0-4.8-2.1-4.8-4.8s2.1-4.8 4.8-4.8 4.8 2.1 4.8 4.8-2.2 4.8-4.8 4.8zM190.5 38.1c-7.9 0-14.3 6.4-14.3 14.3 0 3.8 1.5 7.2 3.9 9.7l-9 14.9c-1.4-.5-2.9-.8-4.5-.8-3.8 0-7.3 1.5-9.9 4l-9.8-4.9c.4-1.2.6-2.5.6-3.9 0-7.9-6.4-14.3-14.3-14.3S119 63.6 119 71.4c0 2.7.8 5.2 2.1 7.3l-11.6 17.4c-1.5-.5-3.1-.9-4.8-.9-7.9 0-14.3 6.4-14.3 14.3s6.4 14.3 14.3 14.3 14.3-6.4 14.3-14.3c0-2.7-.8-5.2-2.1-7.3l11.6-17.4c1.5.5 3.1.9 4.8.9 3 0 5.8-.9 8.1-2.5l11.1 5.6c-.1.6-.2 1.1-.2 1.7 0 7.9 6.4 14.3 14.3 14.3S181 98.4 181 90.5c0-2.8-.8-5.4-2.3-7.6l9.8-16.4c.6.1 1.3.2 1.9.2 7.9 0 14.3-6.4 14.3-14.3s-6.3-14.3-14.2-14.3zm-85.7 76.2c-2.6 0-4.8-2.1-4.8-4.8s2.1-4.8 4.8-4.8 4.8 2.1 4.8 4.8-2.2 4.8-4.8 4.8zm23.8-42.9c0-2.6 2.1-4.8 4.8-4.8s4.8 2.1 4.8 4.8-2.1 4.8-4.8 4.8c-2.7 0-4.8-2.1-4.8-4.8zm38.1 23.8c-2.6 0-4.8-2.1-4.8-4.8s2.1-4.8 4.8-4.8 4.8 2.1 4.8 4.8-2.2 4.8-4.8 4.8zm23.8-38.1c-2.6 0-4.8-2.1-4.8-4.8s2.1-4.8 4.8-4.8 4.8 2.1 4.8 4.8-2.2 4.8-4.8 4.8z"/></svg>