<svg xmlns="http://www.w3.org/2000/svg" viewBox="0 0 60.316 60.316" width="512" height="512"><g fill="#FFF"><path d="M42.158 11.978c-1.043-.276-2.053-.118-2.995.47-1.422.884-2.488 2.664-3.245 4.419v-4h-1.986v3.502c-.82-1.72-1.912-3.399-3.26-4.196-.852-.504-1.739-.636-2.638-.393l-.19.085c-.132.085-1.307.844-1.771 1.45-3.283 3.721-7.318 7.731-9.052 9.429v-3.747h.566v-1.505h-7.545v1.505h.541v15.438c0 1.774 1.444 3.219 3.219 3.219s3.219-1.444 3.219-3.219v-2.112c.859.084 2.135.174 3.888-.937 2.11-1.582 4.171-3.421 6.264-5.59.008 6.486.018 18.979.018 19.115v.689l15.752.002-.027-15.141a3.795 3.795 0 0 0 3.568 2.51c2.091 0 3.791-1.7 3.791-3.791-.003-5.253-2.789-15.792-8.117-17.202zM16.189 23.553a.732.732 0 0 1-.032.031l.032.034v10.819a2.392 2.392 0 0 1-2.388 2.388 2.392 2.392 0 0 1-2.388-2.389V19.207h4.776v4.346zm30.292 8.041a2.416 2.416 0 0 1-2.414-2.412c0-2.182-.404-4.424-1.209-6.667l-1.346-3.761.047 25.471-12.994-.002c-.001-3.032-.011-15.233-.018-20.164l-.003-1.767-1.193 1.303c-2.451 2.67-4.829 4.859-7.225 6.659-1.36.858-2.297.764-3.052.689-.02-.002-.034-.001-.054-.004v-6.457l.091.096c.056-.055 5.674-5.453 10.024-10.386.243-.316.923-.818 1.357-1.104.497-.11.982-.021 1.477.271 2.303 1.361 4.006 6.609 4.471 8.517l.732 3.031.61-3.058c.36-1.803 1.802-6.795 4.106-8.231.616-.384 1.243-.485 1.914-.307 4.113 1.089 7.09 10.235 7.09 15.871a2.41 2.41 0 0 1-2.411 2.412zM27.931 57.163a3.156 3.156 0 0 0 6.312 0V47.15h-6.312v10.013zM35.972 57.163h.002c0 1.741 1.412 3.153 3.155 3.153s3.155-1.412 3.155-3.153V47.15h-6.312v10.013zM34.846 6.923h.963a2.029 2.029 0 0 0 1.981 1.601 2.03 2.03 0 0 0 2.028-2.029 2.03 2.03 0 0 0-2.028-2.028c-.972 0-1.785.687-1.981 1.601h-.963a2.031 2.031 0 0 0-1.982-1.601 2.03 2.03 0 0 0-2.027 2.028 2.03 2.03 0 0 0 2.027 2.029c.97 0 1.783-.687 1.982-1.601zm2.945-1.754a1.327 1.327 0 0 1 0 2.651c-.73 0-1.326-.594-1.326-1.325s.596-1.326 1.326-1.326zm-6.254 1.325a1.327 1.327 0 0 1 2.651 0c0 .731-.594 1.326-1.326 1.326-.73 0-1.325-.595-1.325-1.326z"/><path d="M26.072 6.773c0 1.191.965 2.158 2.158 2.158a2.15 2.15 0 0 0 1.253-.406c.843 2.419 3.142 4.164 5.845 4.164 2.694 0 4.987-1.734 5.838-4.144a2.157 2.157 0 0 0 3.019-2.976 2.059 2.059 0 0 0-1.111-3.602c0-.008.005-.017.005-.024C43.08.87 42.035 0 40.751 0c-.984 0-1.824.514-2.164 1.236A6.146 6.146 0 0 0 35.331.3a6.152 6.152 0 0 0-3.284.952C31.714.521 30.871 0 29.877 0c-1.285 0-2.328.87-2.328 1.943l.003.024a2.068 2.068 0 0 0-1.823 2.049c0 .621.279 1.171.712 1.553a2.134 2.134 0 0 0-.369 1.204zm9.256-5.093a4.82 4.82 0 0 1 4.813 4.816c0 2.653-2.158 4.814-4.813 4.814s-4.815-2.161-4.815-4.814a4.823 4.823 0 0 1 4.815-4.816z"/><circle cx="34.926" cy="27.574" r="1.036"/><circle cx="34.926" cy="31.71" r="1.036"/><circle cx="34.926" cy="35.845" r="1.036"/><path d="M13.813 35.813a1.96 1.96 0 0 0 1.96-1.96v-9.398h-3.92v9.398a1.96 1.96 0 0 0 1.96 1.96z"/></g></svg>