<svg id="Layer_1" xmlns="http://www.w3.org/2000/svg" viewBox="0 0 512 512"><style>.st0{fill:#fff}.st1{fill:#fcfcfc}</style><path class="st0" d="M432 0H80C35.8 0 0 35.8 0 80v352c0 44.2 35.8 80 80 80h352c44.2 0 80-35.8 80-80V80c0-44.2-35.8-80-80-80zm-62.8 255.5c-12 25.9-36.6 35.6-76.4 39.6 12.9 8 16.6 18 16.6 45 0 27.1-.4 30.7-.3 37 .1 10.2 15.4 15.1 14.8 18.4-.6 3.3-12.7 2.8-18.4.8-16.1-5.5-14.5-18.7-14.5-18.7l-.5-36.2s1.1-19.5-6.2-19.5v59.3c0 12.9 9.2 16.8 9.2 21.5 0 8.2-16.8-.8-21.9-5.9-7.9-7.8-7-24.2-6.8-37.3.2-12.6-.1-40.1-.1-40.1l-5.3.1s2.2 60.1-2.8 71c-6.5 14.1-26 18.9-26 12.5 0-4.3 4.8-2.9 7.5-12.6 2.3-8.2 1.5-69.5 1.5-69.5s-6.2 3.6-6.2 15.1c0 5.3-.2 35.2-.2 44.2 0 11.2-16.2 17.6-24 17.6-3.4 0-7.4-.1-8.6-1.5l14.7-14.7-1-1c.5-1.2.8-2.6.8-4.1 0-9.4-.2-33.5-.2-33.5s-7.5 1.3-18.2 1.3c-14.4 0-23.5-4.8-29.5-10.8-5.2-5.2-8.1-11.1-10-15.5-.8-2-1.8-3.8-2.7-5.5-4.8-8.6-10.6-13.3-16.7-17.2-1.1-.7-1.9-1.4-2.5-2.1-2-2.2-1.7-4.3 2.2-5.1 23.8-4.4 29.9 26.5 45.8 31.5 9.8 3 22.1 2.3 29.9-.9 1.2-.5 2.3-1.1 3.3-1.7 1-9.4 7.9-17.6 13.7-21.9-30.9-2.9-52.2-11.7-66.1-25.5-4.3-4.3-7.9-9-10.8-14.3-.2 0-5.9-12.1-5.4-12.1-3.9-11.3-5.6-24.2-5.6-38.6 0-25.6 8.1-35.2 19-48.9-8.3-29.2 3-49.1 3-49.1s17.5-3.6 50.6 19.7c18-7.6 65.8-8.2 88.4-1.7 13.9-9 39.3-21.8 49.5-18.2 2.8 4.4 8.8 17.2 3.6 45.3 3.5 6.2 21.6 19.3 21.6 56.5-.3 13.7-1.7 25.2-4.4 35 .5.2-3.4 12.3-4.4 12.3z"/><path class="st0" d="M154.4 312.7l-19.2-19.2c.6.7 1.5 1.4 2.5 2.1 6.1 3.7 11.9 8.4 16.7 17.1zM214.9 376.7c0 1.5-.3 2.9-.8 4.1L167 333.7c6 5.9 15.1 10.8 29.5 10.8 10.7 0 18.2-1.3 18.2-1.3s.2 24.1.2 33.5z"/><path class="st1" d="M230.1 295.3c-5.8 4.3-12.7 12.5-13.7 21.9-1 .6-2.1 1.2-3.3 1.7L164 269.7c13.9 13.9 35.2 22.6 66.1 25.6z"/><path class="st0" d="M512 265.8V432c0 44.2-35.8 80-80 80H315.9L200.4 396.5c1.1 1.3 5.2 1.5 8.6 1.5 7.8 0 24-6.4 24-17.6 0-8.9.2-38.9.2-44.2 0-11.5 6.2-15.1 6.2-15.1s.8 61.2-1.5 69.5c-2.7 9.6-7.5 8.3-7.5 12.6 0 6.4 19.6 1.6 26-12.5 5-10.9 2.8-71 2.8-71l5.3-.1s.3 27.5.1 40.1c-.2 13-1.1 29.5 6.8 37.3 5.2 5.1 21.9 14.1 21.9 5.9 0-4.8-9.2-8.7-9.2-21.5v-59.3c7.3 0 6.2 19.5 6.2 19.5l.5 36.2s-1.6 13.2 14.5 18.7c5.7 2 17.9 2.5 18.4-.8.6-3.3-14.7-8.2-14.8-18.4-.1-6.2.3-9.9.3-37s-3.7-37.1-16.6-45c39.8-4 64.4-13.7 76.4-39.6.9 0 4.9-12.1 4.4-12.1 2.7-9.8 4.2-21.3 4.4-35-.1-37.2-18.2-50.3-21.6-56.5 5.1-28.1-.8-40.9-3.6-45.3l159.4 159z"/><path class="st0" d="M215.1 381.8l-14.7 14.7c-.2-.2-.3-.5-.3-.8 0-4.5 11-7.3 14-14.9l1 1z"/></svg>