<svg id="objects" xmlns="http://www.w3.org/2000/svg" viewBox="0 0 800 800"><style>.st0{fill:#fff}.st1{fill:#171829}.st2,.st3{opacity:.9;fill:#fff}.st3{fill:#171829}</style><path class="st0" d="M113.9 414.5h3.9v3.9h-3.9zM120.7 414.5h3.9v3.9h-3.9zM134.4 414.5h3.9v3.9h-3.9zM141.2 414.5h3.9v3.9h-3.9zM127.6 421.6h3.9v3.9h-3.9zM141.2 421.6h3.9v3.9h-3.9zM113.9 428.6h3.9v3.9h-3.9zM127.6 428.6h3.9v3.9h-3.9zM148.1 428.6h3.9v3.9h-3.9zM113.9 435.6h3.9v3.9h-3.9zM120.7 435.6h3.9v3.9h-3.9zM134.4 435.6h3.9v3.9h-3.9zM148.1 435.6h3.9v3.9h-3.9zM120.7 442.6h3.9v3.9h-3.9zM127.6 442.6h3.9v3.9h-3.9zM148.1 442.6h3.9v3.9h-3.9zM113.9 449.6h3.9v3.9h-3.9zM127.6 449.6h3.9v3.9h-3.9zM113.9 456.7h3.9v3.9h-3.9zM120.7 456.7h3.9v3.9h-3.9zM134.4 456.7h3.9v3.9h-3.9zM141.2 456.7h3.9v3.9h-3.9zM113.9 463.7h3.9v3.9h-3.9zM127.6 463.7h3.9v3.9h-3.9zM148.1 463.7h3.9v3.9h-3.9zM120.7 470.7h3.9v3.9h-3.9zM134.4 470.7h3.9v3.9h-3.9zM120.7 477.7h3.9v3.9h-3.9zM148.1 477.7h3.9v3.9h-3.9zM113.9 484.8h3.9v3.9h-3.9zM127.6 484.8h3.9v3.9h-3.9zM134.4 484.8h3.9v3.9h-3.9zM148.1 484.8h3.9v3.9h-3.9zM113.9 491.8h3.9v3.9h-3.9zM120.7 491.8h3.9v3.9h-3.9zM113.9 498.8h3.9v3.9h-3.9zM127.6 498.8h3.9v3.9h-3.9zM141.2 498.8h3.9v3.9h-3.9zM148.1 498.8h3.9v3.9h-3.9zM120.7 505.8h3.9v3.9h-3.9zM141.2 505.8h3.9v3.9h-3.9zM120.7 512.9h3.9v3.9h-3.9zM134.4 512.9h3.9v3.9h-3.9zM134.4 519.9h3.9v3.9h-3.9zM148.1 519.9h3.9v3.9h-3.9zM113.9 526.9h3.9v3.9h-3.9zM120.7 526.9h3.9v3.9h-3.9zM134.4 526.9h3.9v3.9h-3.9zM148.1 533.9h3.9v3.9h-3.9zM113.9 540.9h3.9v3.9h-3.9zM127.6 540.9h3.9v3.9h-3.9zM148.1 540.9h3.9v3.9h-3.9zM113.9 548h3.9v3.9h-3.9zM127.6 548h3.9v3.9h-3.9zM141.2 548h3.9v3.9h-3.9zM120.7 555h3.9v3.9h-3.9zM134.4 555h3.9v3.9h-3.9zM148.1 555h3.9v3.9h-3.9zM127.6 562h3.9v3.9h-3.9zM155.2 414.5h3.9v3.9h-3.9zM162.1 414.5h3.9v3.9h-3.9zM175.7 414.5h3.9v3.9h-3.9zM182.6 414.5h3.9v3.9h-3.9zM189.4 414.5h3.9v3.9h-3.9zM155.2 421.6h3.9v3.9h-3.9zM168.9 421.6h3.9v3.9h-3.9zM182.6 421.6h3.9v3.9h-3.9zM155.2 428.6h3.9v3.9h-3.9zM162.1 428.6h3.9v3.9h-3.9zM189.4 428.6h3.9v3.9h-3.9zM175.7 435.6h3.9v3.9h-3.9zM182.6 435.6h3.9v3.9h-3.9zM189.4 435.6h3.9v3.9h-3.9zM162.1 442.6h3.9v3.9h-3.9zM168.9 442.6h3.9v3.9h-3.9zM189.4 442.6h3.9v3.9h-3.9zM155.2 449.6h3.9v3.9h-3.9zM168.9 449.6h3.9v3.9h-3.9zM175.7 449.6h3.9v3.9h-3.9zM182.6 449.6h3.9v3.9h-3.9zM155.2 456.7h3.9v3.9h-3.9zM182.6 456.7h3.9v3.9h-3.9zM189.4 456.7h3.9v3.9h-3.9zM155.2 463.7h3.9v3.9h-3.9zM168.9 463.7h3.9v3.9h-3.9zM189.4 463.7h3.9v3.9h-3.9zM162.1 470.7h3.9v3.9h-3.9zM175.7 470.7h3.9v3.9h-3.9zM182.6 470.7h3.9v3.9h-3.9zM189.4 470.7h3.9v3.9h-3.9zM162.1 477.7h3.9v3.9h-3.9zM168.9 477.7h3.9v3.9h-3.9zM189.4 477.7h3.9v3.9h-3.9zM155.2 491.8h3.9v3.9h-3.9zM168.9 491.8h3.9v3.9h-3.9zM175.7 491.8h3.9v3.9h-3.9zM168.9 498.8h3.9v3.9h-3.9zM189.4 498.8h3.9v3.9h-3.9zM162.1 505.8h3.9v3.9h-3.9zM175.7 505.8h3.9v3.9h-3.9zM182.6 505.8h3.9v3.9h-3.9zM155.2 512.9h3.9v3.9h-3.9zM162.1 512.9h3.9v3.9h-3.9zM168.9 512.9h3.9v3.9h-3.9zM189.4 512.9h3.9v3.9h-3.9zM168.9 519.9h3.9v3.9h-3.9zM175.7 519.9h3.9v3.9h-3.9zM182.6 519.9h3.9v3.9h-3.9zM162.1 526.9h3.9v3.9h-3.9zM175.7 526.9h3.9v3.9h-3.9zM168.9 533.9h3.9v3.9h-3.9zM182.6 533.9h3.9v3.9h-3.9zM155.2 540.9h3.9v3.9h-3.9zM168.9 540.9h3.9v3.9h-3.9zM189.4 540.9h3.9v3.9h-3.9zM155.2 548h3.9v3.9h-3.9zM168.9 548h3.9v3.9h-3.9zM182.6 548h3.9v3.9h-3.9zM162.1 555h3.9v3.9h-3.9zM175.7 555h3.9v3.9h-3.9zM189.4 555h3.9v3.9h-3.9zM155.2 562h3.9v3.9h-3.9zM168.9 562h3.9v3.9h-3.9zM189.4 562h3.9v3.9h-3.9zM148.1 568.8h3.9v3.9h-3.9zM113.9 575.3h3.9v3.9h-3.9zM141.2 575.3h3.9v3.9h-3.9zM189.4 575.3h3.9v3.9h-3.9zM148.1 581.5h3.9v3.9h-3.9zM134.4 581.5h3.9v3.9h-3.9zM182.6 581.5h3.9v3.9h-3.9zM113.9 587.8h3.9v3.9h-3.9zM162.1 587.8h3.9v3.9h-3.9zM175.7 587.8h3.9v3.9h-3.9zM189.4 587.8h3.9v3.9h-3.9zM134.4 594h3.9v3.9h-3.9zM120.7 594h3.9v3.9h-3.9zM168.9 594h3.9v3.9h-3.9zM162.1 600.2h3.9v3.9h-3.9zM189.4 600.2h3.9v3.9h-3.9zM134.4 606.8h3.9v3.9h-3.9zM155.2 606.8h3.9v3.9h-3.9zM189.4 606.8h3.9v3.9h-3.9zM162.1 612.9h3.9v3.9h-3.9zM127.6 612.9h3.9v3.9h-3.9zM127.6 631.4h3.9v3.9h-3.9zM127.6 649.1h3.9v3.9h-3.9zM120.7 660.9h3.9v3.9h-3.9zM189.4 660.9h3.9v3.9h-3.9zM141.2 649.1h3.9v3.9h-3.9zM141.2 669h3.9v3.9h-3.9zM168.9 669h3.9v3.9h-3.9zM162.1 686h3.9v3.9h-3.9zM148.1 612.9h3.9v3.9h-3.9zM113.9 619.1h3.9v3.9h-3.9zM189.4 619.1h3.9v3.9h-3.9zM162.1 625.2h3.9v3.9h-3.9zM162.1 660.9h3.9v3.9h-3.9zM134.4 625.2h3.9v3.9h-3.9zM113.9 631.4h3.9v3.9h-3.9zM113.9 640.2h3.9v3.9h-3.9zM113.9 649.1h3.9v3.9h-3.9zM148.1 631.4h3.9v3.9h-3.9zM189.4 631.4h3.9v3.9h-3.9zM195.7 414.5v4l19.2 39.7v-2zM210.6 451.7v2.4l-6.2-11.8v-3.1zM214.9 460.5v2l-2.4-4.8v-2.2zM195.7 428.6v3.9l19.2 34.3v-2zM195.7 435.6l2.1 3.8v3.7l-2.1-3.6zM208.9 459v2.5l-3-5v-2.9zM210.8 462.3l1.2 2.1v2.3l-1.2-2zM214.9 469.6v2l-1-1.8v-2zM195.7 442.6l4.4 7.3v3.4l-4.4-6.8zM214.9 474.4v1.9l-12.9-20V453zM195.7 450.1l7.4 11v3.2l-7.4-10.3zM214.9 478.9v2l-4.6-6.5V472zM195.7 456.7l2.1 2.9v3.7l-2.1-2.7zM206.8 472.2v2.8l-7.1-9.2v-3.5zM209.9 476.5v2.5l-1.2-1.6v-2.6zM214.9 483.6v2l-3.2-4.2v-2.3zM195.7 463.7l6.1 7.7v3.3l-6.1-7.1zM205 478.5l-1.4-1.6v-3.1l1.3 1.6v3zM210.8 482.8v2.4l-4-4.6v-2.8zM214.9 488.1v2l-2.2-2.7v-2.2zM214.9 492.7v2l-2.2-2.4v-2.1zM195.7 477.7l6.4 6.7v3.2l-6.4-5.9zM204 486.3l1.8 1.9v2.9l-1.8-1.7zM214.9 497.6v2l-7.2-6.7v-2.6l-.1-.3zM195.7 484.8l3 2.6v3.7l-3-2.4zM214.9 502.2v2l-1.8-1.5v-2.1zM195.7 491.8l7.4 5.7v3.2l-7.4-5zM207 500.6v2.8l-2.1-1.4v-2.9l-.1-.2zM214.9 506.8v1.9l-6-4.1v-2.5zM195.7 498.8l2.4 1.6v3.6l-2.4-1.3zM202.1 503v3.2l-2.1-1.1v-3.5zM210.3 508.2v2.5l-6.3-3.5v-3zM195.7 505.8l3.9 2v3.6l-3.9-1.6zM214.9 515.8v1.9l-7.5-3.1v-2.7zM195.7 512.9l7.4 2.8v3.2l-7.4-2.1zM204.9 516.4l5.4 2.1v2.4l-5.4-1.5zM204.9 522.2v3l-4.4-.7v-3.4zM214.9 524.8v1.9l-3.9-.6v-2.3l1.2.2zM195.7 526.9l6.9 1v3.2l-6.9-.3zM206.8 528.5v2.7l-2.3-.1v-3zM214.9 529.6v2l-6.2-.3v-2.6zM195.7 533.9l3 .1v3.6l-3 .2zM211.5 534.1v2.3l-4.7.5v-2.8zM214.9 534.2v1.9l-1.5.2v-2.1zM195.7 540.9l7.4-.8v3.1l-7.4 1.7zM206.8 539.6v2.8l-1.9.4v-3zM204.9 545.6v3l-3.6 1.2v-3.4zM211.2 544.3v2.3l-4.4 1.4v-2.8l1.9-.4zM214.9 543.5v2l-1.8.5v-2.1zM208.5 550.5v2.7l-8.1 3.6v-3.4zM214.9 548.3v2l-4.6 2v-2.4zM195.7 561.8l7.4-3.2v3.2l-7.4 3.9zM204.9 557.8l6-2.6v2.4l-6 3.2zM204.9 563.9v3l-4.3 2.7v-3.4zM214.9 558.6v1.9l-3.3 2.2v-2.3zM195.7 575.1l4.9-2.8v3.4l-4.9 3.4zM214.9 563.9v2l-6.2 4.3v-2.6zM200.4 578.5l10.2-6.8v2.4l-10.2 7.8zM214.9 568.8v2l-2.4 1.8v-2.2zM195.7 587.8l7.2-5.2v3.2l-7.2 5.9zM214.9 574.1v2l-5.9 4.7v-2.5zM208.7 583.8v2.6l-7.1 6.3v-3.3zM214.9 579v2l-4.3 3.8v-2.4zM195.7 600.2l2.1-1.8v3.7l-2.1 2zM199.7 596.9l6.9-5.8v2.8l-6.9 6.5zM214.9 584.1v2l-6.5 6.1v-2.6zM195.7 606.8l4.7-4.2v3.4l-4.7 4.7zM209.7 594.1v2.5l-3.7 3.7v-2.8zM214.9 589.4v2l-3.3 3.3v-2.3zM195.7 612.9l3.3-3.2v3.6l-3.3 3.5zM208.1 600.9v2.6l-7.2 7.7v-3.4zM214.9 594.2v2l-4.9 5.3V599zM214.9 599.5v1.9l-1.4 1.7V601zM202.2 618.1v3.3l-2.8 3.4v-3.6zM214.9 604.4v2l-10.8 12.8v-3.1zM214.9 609.6v2l-6.5 8V617z"/><path class="st1" d="M208.7 544.8v.1z"/><g><path class="st0" d="M327.2 136.1h7.1v7.1h-7.1zM339.9 136.1h7.1v7.1h-7.1zM352.6 136.1h7.1v7.1h-7.1zM365.3 136.1h7.1v7.1h-7.1zM378 136.1h7.1v7.1H378zM327.2 148.8h7.1v7.1h-7.1zM339.9 148.8h7.1v7.1h-7.1zM352.6 148.8h7.1v7.1h-7.1zM365.3 148.8h7.1v7.1h-7.1zM327.2 161.5h7.1v7.1h-7.1zM352.6 161.5h7.1v7.1h-7.1zM365.3 161.5h7.1v7.1h-7.1zM378 161.5h7.1v7.1H378zM327.2 174.3h7.1v7.1h-7.1zM339.9 174.3h7.1v7.1h-7.1zM352.6 174.3h7.1v7.1h-7.1zM365.3 174.3h7.1v7.1h-7.1zM378 174.3h7.1v7.1H378zM327.2 187h7.1v7.1h-7.1zM339.9 187h7.1v7.1h-7.1zM352.6 187h7.1v7.1h-7.1zM365.3 187h7.1v7.1h-7.1zM378 187h7.1v7.1H378zM327.2 199.7h7.1v7.1h-7.1zM339.9 199.7h7.1v7.1h-7.1zM352.6 199.7h7.1v7.1h-7.1zM378 199.7h7.1v7.1H378zM327.2 212.4h7.1v7.1h-7.1zM352.6 212.4h7.1v7.1h-7.1zM365.3 212.4h7.1v7.1h-7.1zM378 212.4h7.1v7.1H378zM327.2 225.1h7.1v7.1h-7.1zM339.9 225.1h7.1v7.1h-7.1zM352.6 225.1h7.1v7.1h-7.1zM365.3 225.1h7.1v7.1h-7.1zM378 225.1h7.1v7.1H378zM327.2 237.9h7.1v7.1h-7.1zM339.9 237.9h7.1v7.1h-7.1zM352.6 237.9h7.1v7.1h-7.1zM365.3 237.9h7.1v7.1h-7.1zM378 237.9h7.1v7.1H378zM327.2 250.6h7.1v7.1h-7.1zM339.9 250.6h7.1v7.1h-7.1zM365.3 250.6h7.1v7.1h-7.1zM378 250.6h7.1v7.1H378zM327.2 263.3h7.1v7.1h-7.1zM339.9 263.3h7.1v7.1h-7.1zM352.6 263.3h7.1v7.1h-7.1zM365.3 263.3h7.1v7.1h-7.1zM378 263.3h7.1v7.1H378zM327.2 276h7.1v7.1h-7.1zM339.9 276h7.1v7.1h-7.1zM352.6 276h7.1v7.1h-7.1zM365.3 276h7.1v7.1h-7.1zM327.2 288.8h7.1v7.1h-7.1zM339.9 288.8h7.1v7.1h-7.1zM365.3 288.8h7.1v7.1h-7.1zM378 288.8h7.1v7.1H378zM327.2 301.5h7.1v7.1h-7.1zM352.6 301.5h7.1v7.1h-7.1zM365.3 301.5h7.1v7.1h-7.1zM378 301.5h7.1v7.1H378zM390.6 136.1h7.1v7.1h-7.1zM403.3 136.1h7.1v7.1h-7.1zM416.1 136.1h7.1v7.1h-7.1zM428.8 136.1h7.1v7.1h-7.1zM441.5 136.1h7.1v7.1h-7.1zM390.6 148.8h7.1v7.1h-7.1zM403.3 148.8h7.1v7.1h-7.1zM416.1 148.8h7.1v7.1h-7.1zM428.8 148.8h7.1v7.1h-7.1zM441.5 148.8h7.1v7.1h-7.1zM403.3 161.5h7.1v7.1h-7.1zM416.1 161.5h7.1v7.1h-7.1zM441.5 161.5h7.1v7.1h-7.1zM390.6 174.3h7.1v7.1h-7.1zM403.3 174.3h7.1v7.1h-7.1zM416.1 174.3h7.1v7.1h-7.1zM428.8 174.3h7.1v7.1h-7.1zM441.5 174.3h7.1v7.1h-7.1zM390.6 187h7.1v7.1h-7.1zM416.1 187h7.1v7.1h-7.1zM428.8 187h7.1v7.1h-7.1zM390.6 199.7h7.1v7.1h-7.1zM403.3 199.7h7.1v7.1h-7.1zM416.1 199.7h7.1v7.1h-7.1zM428.8 199.7h7.1v7.1h-7.1zM441.5 199.7h7.1v7.1h-7.1zM390.6 212.4h7.1v7.1h-7.1zM403.3 212.4h7.1v7.1h-7.1zM416.1 212.4h7.1v7.1h-7.1zM441.5 212.4h7.1v7.1h-7.1zM390.6 225.1h7.1v7.1h-7.1zM403.3 225.1h7.1v7.1h-7.1zM416.1 225.1h7.1v7.1h-7.1zM428.8 225.1h7.1v7.1h-7.1zM441.5 225.1h7.1v7.1h-7.1zM403.3 237.9h7.1v7.1h-7.1zM416.1 237.9h7.1v7.1h-7.1zM428.8 237.9h7.1v7.1h-7.1zM441.5 237.9h7.1v7.1h-7.1zM390.6 250.6h7.1v7.1h-7.1zM403.3 250.6h7.1v7.1h-7.1zM416.1 250.6h7.1v7.1h-7.1zM428.8 250.6h7.1v7.1h-7.1zM441.5 250.6h7.1v7.1h-7.1zM390.6 263.3h7.1v7.1h-7.1zM403.3 263.3h7.1v7.1h-7.1zM428.8 263.3h7.1v7.1h-7.1zM441.5 263.3h7.1v7.1h-7.1zM390.6 276h7.1v7.1h-7.1zM416.1 276h7.1v7.1h-7.1zM428.8 276h7.1v7.1h-7.1zM441.5 276h7.1v7.1h-7.1zM390.6 288.8h7.1v7.1h-7.1zM403.3 288.8h7.1v7.1h-7.1zM428.8 288.8h7.1v7.1h-7.1zM441.5 288.8h7.1v7.1h-7.1zM390.6 301.5h7.1v7.1h-7.1zM403.3 301.5h7.1v7.1h-7.1zM416.1 301.5h7.1v7.1h-7.1zM441.5 301.5h7.1v7.1h-7.1zM327.2 313.6h7.1v7.1h-7.1zM339.9 313.6h7.1v7.1h-7.1zM352.6 313.6h7.1v7.1h-7.1zM378 313.6h7.1v7.1H378zM390.6 313.6h7.1v7.1h-7.1zM416.1 313.6h7.1v7.1h-7.1zM428.8 313.6h7.1v7.1h-7.1zM441.5 313.6h7.1v7.1h-7.1zM339.9 325.7h7.1v7.1h-7.1zM352.6 325.7h7.1v7.1h-7.1zM365.3 325.7h7.1v7.1h-7.1zM390.6 325.7h7.1v7.1h-7.1zM403.3 325.7h7.1v7.1h-7.1zM416.1 325.7h7.1v7.1h-7.1zM428.8 325.7h7.1v7.1h-7.1zM441.5 325.7h7.1v7.1h-7.1zM327.2 337.9h7.1v7.1h-7.1zM339.9 337.9h7.1v7.1h-7.1zM365.3 337.9h7.1v7.1h-7.1zM378 337.9h7.1v7.1H378zM390.6 337.9h7.1v7.1h-7.1zM403.3 337.9h7.1v7.1h-7.1zM428.8 337.9h7.1v7.1h-7.1zM441.5 337.9h7.1v7.1h-7.1zM327.2 350h7.1v7.1h-7.1zM352.6 350h7.1v7.1h-7.1zM365.3 350h7.1v7.1h-7.1zM378 350h7.1v7.1H378zM403.3 350h7.1v7.1h-7.1zM416.1 350h7.1v7.1h-7.1zM339.9 362.1h7.1v7.1h-7.1zM352.6 362.1h7.1v7.1h-7.1zM378 362.1h7.1v7.1H378zM390.6 362.1h7.1v7.1h-7.1zM416.1 362.1h7.1v7.1h-7.1zM428.8 362.1h7.1v7.1h-7.1zM441.5 362.1h7.1v7.1h-7.1zM327.2 374.3h7.1v7.1h-7.1zM339.9 374.3h7.1v7.1h-7.1zM365.3 374.3h7.1v7.1h-7.1zM390.6 374.3h7.1v7.1h-7.1zM403.3 374.3h7.1v7.1h-7.1zM428.8 374.3h7.1v7.1h-7.1zM327.2 386.4h7.1v7.1h-7.1zM352.6 386.4h7.1v7.1h-7.1zM378 386.4h7.1v7.1H378zM390.6 386.4h7.1v7.1h-7.1zM416.1 386.4h7.1v7.1h-7.1zM441.5 386.4h7.1v7.1h-7.1zM339.9 398.5h7.1v7.1h-7.1zM365.3 398.5h7.1v7.1h-7.1zM378 398.5h7.1v7.1H378zM403.3 398.5h7.1v7.1h-7.1zM428.8 398.5h7.1v7.1h-7.1zM441.5 398.5h7.1v7.1h-7.1zM327.2 410.7h7.1v7.1h-7.1zM339.9 410.7h7.1v7.1h-7.1zM365.3 410.7h7.1v7.1h-7.1zM390.6 410.7h7.1v7.1h-7.1zM403.3 410.7h7.1v7.1h-7.1zM428.8 410.7h7.1v7.1h-7.1zM352.6 422.8h7.1v7.1h-7.1zM378 422.8h7.1v7.1H378zM390.6 422.8h7.1v7.1h-7.1zM416.1 422.8h7.1v7.1h-7.1zM441.5 422.8h7.1v7.1h-7.1zM352.6 435.4h7.1v7.1h-7.1zM378 435.4h7.1v7.1H378zM416.1 435.4h7.1v7.1h-7.1zM365.3 447.4h7.1v7.1h-7.1zM339.9 447.4h7.1v7.1h-7.1zM339.9 477.4h7.1v7.1h-7.1zM327.2 461.8h7.1v7.1h-7.1zM441.5 461.8h7.1v7.1h-7.1zM390.8 447.4h7.1v7.1h-7.1zM378 461.8h7.1v7.1H378zM403.5 461.8h7.1v7.1h-7.1zM390.8 487.5h7.1v7.1h-7.1zM403.3 503.1h7.1v7.1h-7.1zM428.8 447.4h7.1v7.1h-7.1z"/><path class="st2" d="M441.5 136.1h7.1v7.1h-7.1zM452.8 136.1v6.2l30.7 63.4v-3.1zM452.8 147.3l10.9 22.1v5.1l-10.9-21zM476.5 195.3v3.8l-9.8-18.8v-4.8zM483.5 209.4v3.2l-4-7.7v-3.5zM452.8 158.5v6.2l30.7 54.7v-3.1zM452.8 169.7l3.4 6v5.9l-3.4-5.7zM466 193.1v4.9l-6.8-11.4V181zM469 198.4l4.8 8.5v4.1l-4.8-8zM476.9 212.2l1.9 3.4v3.7l-1.9-3.3zM483.5 223.9v3.2l-1.7-2.8V221zM452.8 180.9l7 11.5v5.6l-7-10.9zM483.5 231.5v3.1l-20.7-32v-5.2zM452.8 192.7l11.7 17.7v5L452.8 199zM473.1 223.3v4.1l-5.6-7.8v-4.7zM483.5 238.8v3.1l-7.4-10.3v-3.8zM452.8 203.3l3.4 4.7v5.9l-3.4-4.4zM470.5 228v4.5l-11.3-14.7v-5.6zM473.5 232.2l1.9 2.7v3.9l-1.9-2.5zM483.5 246.2v3.2l-5.1-6.7v-3.6zM452.8 214.5l9.7 12.3v5.2l-9.7-11.3zM467.7 238.2l-2.2-2.7v-4.9l2 2.6v4.7zM476.9 245v3.8l-6.4-7.3V237zM470.5 245.9v3.8l-6.3-7.4v-4.4zM483.5 253.4v3.2l-3.6-4.3v-3.5zM452.8 225.7l3.8 4.4v5.8l-3.8-4zM483.5 260.8v3.1l-3.6-3.7v-3.5zM466 250.6l2.9 3v4.6l-2.9-2.7zM483.5 268.6v3.2L472 261v-4.1l-.3-.5zM457.5 252.4v5.7l-4.7-3.8v-6.2zM483.5 275.9v3.1l-2.9-2.3v-3.4zM452.8 259.3l11.7 9.1v5.1l-11.7-8zM467.3 270.6l3.5 2.8v4.4l-3.3-2.3V271zM483.5 283.2v3.1l-9.7-6.5v-4.1zM452.8 270.5l3.8 2.5v5.8l-3.8-2.1zM459.6 274.9l3.4 2.2v5.2l-3.4-1.8zM466 279l10 6.5v3.9l-10-5.4zM483.5 290.3v3.2L479 291v-3.5zM452.8 281.7l6.2 3.2v5.6l-6.2-2.6zM468.5 289.8v4.7l-6.5-2.7v-5.3zM483.5 297.5v3.2l-12-5v-4.3zM452.8 292.9l11.7 4.5v5.1l-11.7-3.3zM467.5 298.6l8.5 3.2v3.9l-8.5-2.4zM483.5 304.7v3.1l-4.5-1.2V303zM452.8 304.1l4.7 1.2v5.8l-4.7-.8zM467.5 307.8v4.8l-7-1.1v-5.4zM470.5 308.6l3.7.9v4.1l-3.7-.6zM483.5 311.9v3.1l-6.3-.9v-3.8zM470.5 317.8v4.4l-3.7-.1v-4.9zM483.5 319.6v3.1l-10-.4v-4.1zM452.8 326.5l4.7.1v5.7l-4.7.4zM467.5 326.7v4.7l-7 .7v-5.5zM470.5 326.7l7.5.1v3.7l-7.5.7zM483.5 326.9v3.1l-2.5.2v-3.3zM470.5 335.6v4.5l-3 .6V336zM483.5 334.1v3.1l-10 2.2v-4.1zM452.8 348.3l5.9-1.2v5.6l-5.9 1.9zM465.3 345.7l2.2-.5v4.7l-2.2.7zM473.5 343.9l4-.8v3.7l-7 2.2v-4.4l3-.7zM483.5 341.8v3.1l-2.9.9v-3.4zM452.8 360.1l4.4-1.6v5.9l-4.4 1.9zM473.1 353v4.2l-12.9 5.8v-5.5zM483.5 349.4v3.1l-7.4 3.3V352zM452.8 370.9l11.7-5.1v5.1l-11.7 6.2zM467.5 364.5l9.5-4v3.8l-9.5 5zM483.5 357.7v3.1l-3.5 1.8v-3.4zM452.8 382.1l4.9-2.6v5.8l-4.9 3.1zM464.8 375.7l2.7-1.4v4.8l-2.7 1.7zM470.5 372.7l4.6-2.4v4l-4.6 2.9zM483.5 365.8v3.2l-5.4 3.4v-3.7zM452.8 392.3l7.9-4.6v5.4l-7.9 5.4zM463.7 385.9l6.8-4v4.5l-6.8 4.6zM483.5 374.4v3.1l-10 6.8v-4.1zM452.8 402.4l4.4-2.9v5.8l-4.4 3.4zM467 393.1l9.6-6.4v3.9l-9.6 7.3zM483.5 382.2v3.1l-3.9 3v-3.5zM452.8 412.4l11.5-8.2v5l-11.5 9.4zM471 399.4v4.4l-3.6 3V402zM483.5 390.6v3.1l-9.4 7.7v-4.1zM452.8 422.3l6.4-5v5.6l-6.4 5.7zM462.2 415l11.3-8.9v4.2l-11.3 10zM483.5 398.4v3.1l-3.4 3V401zM452.8 432.2l3.4-2.8v5.9l-3.4 3.2zM459.2 426.9l10.9-9.1v4.4l-10.9 10.3zM483.5 406.6v3.1l-10.4 9.7v-4.2zM452.8 442.7l7.4-6.7v5.5l-7.4 7.4zM466.2 430.6v4.8l-3 3.1v-5.2zM469.2 427.8l5.9-5.2v3.9l-5.9 5.9zM483.5 415v3.1l-2.7 2.7v-3.4zM461.1 444.4l11.5-11.1v4.2l-11.5 12.3zM483.5 422.6v3.2l-7.9 8.5v-4zM458.1 456.9l11.4-11.7v4.6l-11.4 12.8zM472.6 442.2l5.5-5.7v3.7l-5.5 6.2zM483.5 431v3.2l-1 1.1v-3.2zM458.7 465.7l4.5-4.9v5.2l-4.5 5.3zM483.5 438.9v3.2l-17.3 20.4v-4.9zM483.5 447.3v3.1L473 463.2V459z"/><path class="st3" d="M473.5 343.9v.1z"/></g><g><path class="st0" d="M581.9 384.3h1.5v3.9h-1.5zM584.6 384.3h1.5v3.9h-1.5zM587.3 384.3h1.5v3.9h-1.5zM581.9 391.4h1.5v3.9h-1.5zM584.6 391.4h4.2v3.9h-4.2zM581.9 398.4h25.9v3.9h-25.9zM581.9 405.4h1.5v3.9h-1.5zM584.6 405.4h1.5v3.9h-1.5zM590 405.4h6.9v3.9H590zM581.9 419.5h1.5v3.9h-1.5zM587.3 419.5h12.4v3.9h-12.4zM595.3 426.5h4.4v3.9h-4.4zM581.9 433.5h1.5v3.9h-1.5zM587.3 433.5h6.9v3.9h-6.9zM584.6 447.6h1.5v3.9h-1.5zM590 447.6h25.6v3.9H590zM581.9 468.6h1.5v3.9h-1.5zM587.3 468.6h6.9v3.9h-6.9zM595.3 468.6h1.5v3.9h-1.5zM584.6 475.6h1.5v3.9h-1.5zM584.6 482.7h1.5v3.9h-1.5zM581.9 489.7h1.5v3.9h-1.5zM587.3 489.7h12.4v3.9h-12.4zM581.9 496.7h4.2v3.9h-4.2zM587.3 503.7h1.5v3.9h-1.5zM592.7 503.7h1.5v3.9h-1.5zM595.3 503.7h1.5v3.9h-1.5zM581.9 517.8h1.5v3.9h-1.5zM587.3 517.8h9.6v3.9h-9.6zM584.6 524.8h1.5v3.9h-1.5zM590 524.8h9.7v3.9H590zM581.9 531.8h1.5v3.9h-1.5zM587.3 531.8h1.5v3.9h-1.5zM606.2 384.3h1.5v3.9h-1.5zM608.9 384.3h1.5v3.9h-1.5zM611.6 384.3h1.5v3.9h-1.5zM598.2 391.4h1.5v3.9h-1.5zM603.5 391.4h31.9v3.9h-31.9zM598.2 405.4h1.5v3.9h-1.5zM611.6 412.4h1.5v3.9h-1.5zM600.9 426.5h1.5v3.9h-1.5zM611.6 433.5h9.5v3.9h-9.5zM592.7 461.6h7.1v3.9h-7.1zM606.2 461.6h1.5v3.9h-1.5zM611.6 461.6h1.5v3.9h-1.5zM595.3 475.6h12.4v3.9h-12.4zM611.6 475.6h1.5v3.9h-1.5zM611.6 489.7h18.8v3.9h-18.8zM611.6 503.7h1.5v3.9h-1.5zM600.9 510.8h1.5v3.9h-1.5zM603.5 510.8h1.5v3.9h-1.5zM611.6 510.8h9.3v3.9h-9.3zM600.9 524.8h1.5v3.9h-1.5zM587.3 538.6h1.5v3.9h-1.5zM603.5 538.6h1.5v3.9h-1.5zM581.9 545.1h1.5v3.9h-1.5zM592.7 545.1h1.5v3.9h-1.5zM595.5 545.1h17.7v3.9h-17.7zM595.3 551.3h1.5v3.9h-1.5zM590 551.3h1.5v3.9H590zM581.9 557.6h1.5v3.9h-1.5zM587.3 557.6h1.5v3.9h-1.5zM590 563.8h1.5v3.9H590zM603.5 563.8h1.5v3.9h-1.5zM581.9 570h1.5v3.9h-1.5zM600.9 570h1.5v3.9h-1.5zM590 576.6h1.5v3.9H590zM598.2 576.6h1.5v3.9h-1.5zM581.9 588.9h1.5v3.9h-1.5zM595.3 588.9h1.5v3.9h-1.5zM590 595h1.5v3.9H590zM581.9 601.2h1.5v3.9h-1.5zM595.3 601.2h1.5v3.9h-1.5zM611.6 601.2h1.5v3.9h-1.5zM611.6 615.4h1.5v3.9h-1.5zM581.9 622.5h1.5v3.9h-1.5zM595.3 629.7h1.5v3.9h-1.5zM595.3 636.5h1.5v3.9h-1.5zM611.6 629.7h1.5v3.9h-1.5z"/><path class="st0" d="M611.4 384.3h1.5v3.9h-1.5zM614 384.3h1.5v3.9H614zM616.7 384.3h1.5v3.9h-1.5zM622.1 384.3h1.5v3.9h-1.5zM624.8 384.3h1.5v3.9h-1.5zM624.8 398.4h1.5v3.9h-1.5zM614 412.4h15.1v3.9H614zM611.4 433.5h9.5v3.9h-9.5zM587.3 440.5h28.3v3.9h-28.3zM619.4 440.5h9.7v3.9h-9.7zM598.7 454.6h27.6v3.9h-27.6zM611.4 461.6h1.5v3.9h-1.5zM614 461.6h1.5v3.9H614zM614 475.6h15.1v3.9H614zM624.8 482.7h1.5v3.9h-1.5zM611.4 489.7h18.8v3.9h-18.8zM611.4 510.8h9.3v3.9h-9.3zM624.8 510.8h1.5v3.9h-1.5zM614 524.8h1.5v3.9H614zM616.7 524.8h9.6v3.9h-9.6zM627.6 384.3h1.5v3.9h-1.5zM630.3 384.3h1.5v3.9h-1.5zM635.7 384.3h1.5v3.9h-1.5zM638.4 384.3h1.5v3.9h-1.5zM641.1 384.3h1.5v3.9h-1.5zM641.1 398.4h1.5v3.9h-1.5zM600.9 405.4h28.3v3.9h-28.3zM631.1 405.4h8.8v3.9h-8.8zM641.1 405.4h1.5v3.9h-1.5zM641.1 412.4h1.5v3.9h-1.5zM600.9 419.5h28.3v3.9h-28.3zM633 419.5h1.5v3.9H633zM635.5 419.5h4.5v3.9h-4.5zM627.6 433.5h1.5v3.9h-1.5zM633 433.5h1.5v3.9H633zM641.1 433.5h1.5v3.9h-1.5zM630.3 440.5h1.5v3.9h-1.5zM638.4 440.5h1.5v3.9h-1.5zM641.1 440.5h1.5v3.9h-1.5zM635.7 447.6h1.5v3.9h-1.5zM641.1 447.6h1.5v3.9h-1.5zM635.7 454.6h4.2v3.9h-4.2zM641.1 454.6h1.5v3.9h-1.5zM622.1 461.6h7.1v3.9h-7.1zM635.7 461.6h1.5v3.9h-1.5zM641.1 461.6h1.5v3.9h-1.5zM638.5 468.6h4.1v3.9h-4.1zM630.3 475.6h1.5v3.9h-1.5zM635.7 475.6h1.5v3.9h-1.5zM638.4 475.6h1.5v3.9h-1.5zM641.1 475.6h1.5v3.9h-1.5zM630.3 482.7h6.9v3.9h-6.9zM641.1 482.7h1.5v3.9h-1.5zM641.1 489.7h1.5v3.9h-1.5zM627.6 496.7h1.5v3.9h-1.5zM635.7 496.7h1.5v3.9h-1.5zM638.5 496.7h4.1v3.9h-4.1zM641.1 503.7h1.5v3.9h-1.5zM633 510.8h1.5v3.9H633zM641.1 510.8h1.5v3.9h-1.5zM638.4 517.8h1.5v3.9h-1.5zM630.3 524.8h1.5v3.9h-1.5zM635.7 524.8h1.5v3.9h-1.5zM641.1 524.8h1.5v3.9h-1.5zM627.6 531.8h1.5v3.9h-1.5zM641.1 531.8h1.5v3.9h-1.5zM627.6 538.6h1.5v3.9h-1.5zM633 538.6h1.5v3.9H633zM595.2 545.1h17.7v3.9h-17.7zM614 545.1h1.5v3.9H614zM622.1 545.1h1.5v3.9h-1.5zM627.6 545.1h1.5v3.9h-1.5zM641.1 545.1h1.5v3.9h-1.5zM619.4 551.3h1.5v3.9h-1.5zM638.4 551.3h1.5v3.9h-1.5zM641.1 551.3h1.5v3.9h-1.5zM630.3 557.6h1.5v3.9h-1.5zM635.7 557.6h1.5v3.9h-1.5zM641.1 557.6h1.5v3.9h-1.5zM619.4 563.8h1.5v3.9h-1.5zM614 563.8h1.5v3.9H614zM633 563.8h1.5v3.9H633zM635.7 563.8h1.5v3.9h-1.5zM630.3 570h1.5v3.9h-1.5zM624.8 570h1.5v3.9h-1.5zM641.1 570h1.5v3.9h-1.5zM619.4 576.6h1.5v3.9h-1.5zM641.1 576.6h1.5v3.9h-1.5zM630.3 582.7h1.5v3.9h-1.5zM616.7 582.7h1.5v3.9h-1.5zM624.8 582.7h1.5v3.9h-1.5zM624.8 588.9h1.5v3.9h-1.5zM641.1 588.9h1.5v3.9h-1.5zM630.3 595h1.5v3.9h-1.5zM619.4 595h1.5v3.9h-1.5zM611.4 601.2h1.5v3.9h-1.5zM624.8 601.2h1.5v3.9h-1.5zM641.1 601.2h1.5v3.9h-1.5zM641.1 608.3h1.5v3.9h-1.5zM624.8 615.4h1.5v3.9h-1.5zM641.1 615.4h1.5v3.9h-1.5zM627.6 622.5h1.5v3.9h-1.5zM624.8 636.5h1.5v3.9h-1.5zM641.1 629.7h1.5v3.9h-1.5zM644.7 384.5v3.9l19.3 39.7v-1.9zM644.7 391.5l6.9 13.9v3.2l-6.9-13.2zM659.6 421.6v2.4l-6.1-11.8v-3zM664 430.5v1.9l-2.5-4.7v-2.3zM644.7 398.5v3.9l19.3 34.3v-1.9zM644.7 405.5l2.2 3.8v3.7l-2.2-3.5zM653 420.2v3.1l-4.3-7.2v-3.5zM659.8 432.2l1.2 2.2v2.2l-1.2-2zM664 439.6v1.9l-1.1-1.7v-2.1zM649.1 419.8v3.5l-4.4-6.8v-3.9zM652.1 431v3.2l-7.4-10.3V420zM664 448.9v2l-4.6-6.5V442zM644.7 426.6l2.2 3v3.7l-2.2-2.8zM655.8 442.1v2.8l-7.1-9.2v-3.5zM657.7 444.8l1.2 1.6v2.5l-1.2-1.5zM664 453.5v2l-3.2-4.2v-2.2zM644.7 433.6l6.1 7.7v3.3l-6.1-7zM654.1 448.4l-1.4-1.6v-3.1l1.3 1.7v2.9zM659.8 452.8v2.4l-3.9-4.7v-2.7zM644.7 440.7l2.4 2.7v3.7l-2.4-2.5zM653 456.3l1.9 1.9v2.9l-1.9-1.8zM664 467.6v1.9l-7.2-6.7v-2.5l-.2-.3zM644.7 454.7l3 2.7v3.6l-3-2.4zM664 472.2v1.9l-1.9-1.5v-2.1zM644.7 461.7l7.4 5.8v3.1l-7.4-5zM653.8 468.8l2.3 1.8v2.7l-2.1-1.4v-2.8zM664 476.7v2l-6.1-4.1V472zM651.1 472.9v3.3L649 475v-3.5zM664 481.2v2l-2.8-1.6-1.9-1-6.3-3.4v-3.1l6.3 4.1 1.9 1.2zM644.7 475.8l3.9 2v3.5l-3.9-1.6zM654.6 480.9v2.9l-4.1-1.7v-3.3zM664 485.7v2l-7.5-3.1v-2.8zM654 486.4l5.3 2v2.5l-5.3-1.6zM649.6 491.1l4.4 1.1v2.9l-4.4-.6zM655.9 492.6l2.3.6v2.6l-2.3-.4zM664 494.7v1.9l-3.9-.5v-2.4zM644.7 496.8l4.9.7v3.4l-4.9-.1zM664 499.5v2l-6.2-.2v-2.6zM644.7 503.9h3v3.6l-3 .3zM657.8 504l2.7.1v2.3l-2.7.2zM655.9 509.6v2.8l-1.9.4-1.9.4V510zM664 508.6v2l-6.2 1.4v-2.5l-.3-.1h.3zM644.7 517.6l3.8-.8v3.5l-3.8 1.2zM657.8 514.8l2.5-.6v2.4l-2.5.8v-2.6h-.1zM664 513.5v1.9l-1.9.6v-2.2zM644.7 524.9l2.8-.9v3.6l-2.8 1.2zM657.5 520.5v2.6l-8.1 3.6v-3.4zM664 518.2v2l-4.6 2.1v-2.5zM644.7 531.7l5.4-2.3v3.4l-5.4 2.8zM653.9 527.8l6-2.6v2.3l-6 3.2zM664 523.4v2l-2.2 1.1v-2.1zM649.7 536.1l4.3-2.3v3l-4.3 2.7zM657.3 532.1l1.4-.8v2.5l-1.4.9zM664 528.5v2l-3.4 2.1v-2.3zM664 533.9v1.9l-6.2 4.3v-2.6zM659.7 541.6v2.4l-10.3 7.8v-3.4zM664 538.8v2l-2.4 1.8v-2.2zM644.7 557.7l7.3-5.1v3.1l-7.3 5.9zM653.9 551.2l2.3-1.6v2.7l-2.3 1.9zM664 544v2l-2.4 2v-2.2zM657.8 553.8v2.6l-7.2 6.3v-3.4zM664 549v1.9l-4.4 3.8v-2.4zM644.7 570.2l2.2-1.8v3.7l-2.2 2zM655.6 561.1v2.8l-6.9 6.4v-3.5zM664 554.1v1.9l-6.5 6.1v-2.6zM644.7 576.7l4.7-4.2v3.5l-4.7 4.6zM658.7 564.1v2.5l-3.6 3.7v-2.9zM664 559.4v1.9l-3.4 3.4v-2.3zM650 577.8l7.1-7v2.7l-7.1 7.7zM664 564.1v2l-5 5.3V569zM644.7 589l10.5-10.7v2.9l-10.5 11.7zM664 569.4v2l-1.5 1.7v-2.2zM648.5 591.1l2.8-3v3.2l-2.8 3.4zM664 574.4v1.9l-10.8 12.8V586zM664 579.6v1.9l-6.6 8v-2.6z"/><path class="st1" d="M657.5 509.4h.3v.1zM654 509.8v3l-1.9.4V510z"/><path class="st1" d="M657.8 509.4v.1l-.3-.1zM657.8 514.8h-.1z"/><path class="st0" d="M648.5 610.3l2.8-3.4v3.2l-2.8 3.7zM664 591.9v1.9l-10.8 13.9v-3zM664 597.8v2l-10.8 14.7v-3.1zM664 586.1v1.9l-6.6 8v-2.6z"/><path class="st1" d="M657.8 514.8h-.1zM661.2 479.4v2.2l-1.9-1v-2.4z"/></g><g><path class="st0" d="M489.9 294.5h1.5v3.9h-1.5zM492.6 294.5h1.5v3.9h-1.5zM495.3 294.5h1.5v3.9h-1.5zM500.7 294.5h1.5v3.9h-1.5zM503.3 294.5h1.5v3.9h-1.5zM489.9 301.6h1.5v3.9h-1.5zM492.6 301.6h4.2v3.9h-4.2zM489.9 308.6h1.5v3.9h-1.5zM495.3 308.6h6.9v3.9h-6.9zM503.3 308.6h1.5v3.9h-1.5zM489.9 315.6h1.5v3.9h-1.5zM492.6 315.6h1.5v3.9h-1.5zM498 315.6h6.9v3.9H498zM492.6 322.6h1.5v3.9h-1.5zM495.3 322.6h1.5v3.9h-1.5zM503.3 322.6h1.5v3.9h-1.5zM489.9 329.7h1.5v3.9h-1.5zM495.3 329.7h1.5v3.9h-1.5zM492.6 336.7h1.5v3.9h-1.5zM498 336.7h1.5v3.9H498zM503.3 336.7h4.4v3.9h-4.4zM489.9 343.7h1.5v3.9h-1.5zM495.3 343.7h6.9v3.9h-6.9zM492.6 350.7h1.5v3.9h-1.5zM500.7 350.7h1.5v3.9h-1.5zM492.6 357.7h1.5v3.9h-1.5zM498 357.7h1.5v3.9H498zM489.9 364.8h1.5v3.9h-1.5zM495.3 364.8h1.5v3.9h-1.5zM503.3 364.8h1.5v3.9h-1.5zM489.9 371.8h1.5v3.9h-1.5zM492.6 371.8h1.5v3.9h-1.5zM489.9 378.8h1.5v3.9h-1.5zM495.3 378.8h6.9v3.9h-6.9zM503.3 378.8h1.5v3.9h-1.5zM492.6 385.8h1.5v3.9h-1.5zM492.6 392.9h1.5v3.9h-1.5zM498 392.9h1.5v3.9H498zM503.3 392.9h1.5v3.9h-1.5zM489.9 399.9h1.5v3.9h-1.5zM495.3 399.9h1.5v3.9h-1.5zM500.7 399.9h4.2v3.9h-4.2zM489.9 406.9h4.2v3.9h-4.2zM498 406.9h1.5v3.9H498zM495.3 413.9h1.5v3.9h-1.5zM500.7 413.9h1.5v3.9h-1.5zM503.3 413.9h1.5v3.9h-1.5zM489.9 420.9h1.5v3.9h-1.5zM492.6 420.9h1.5v3.9h-1.5zM495.3 420.9h1.5v3.9h-1.5zM503.3 420.9h1.5v3.9h-1.5zM489.9 428h1.5v3.9h-1.5zM495.3 428h1.5v3.9h-1.5zM492.6 435h1.5v3.9h-1.5zM498 435h1.5v3.9H498zM489.9 442h1.5v3.9h-1.5zM495.3 442h1.5v3.9h-1.5zM506.2 294.5h1.5v3.9h-1.5zM508.9 294.5h1.5v3.9h-1.5zM514.2 294.5h1.5v3.9h-1.5zM516.9 294.5h1.5v3.9h-1.5zM519.6 294.5h1.5v3.9h-1.5zM506.2 301.6h1.5v3.9h-1.5zM511.5 301.6h1.5v3.9h-1.5zM516.9 301.6h1.5v3.9h-1.5zM508.9 308.6h6.9v3.9h-6.9zM519.6 308.6h1.5v3.9h-1.5zM506.2 315.6h1.5v3.9h-1.5zM514.2 315.6h4.2v3.9h-4.2zM519.6 315.6h1.5v3.9h-1.5zM506.2 322.6h1.5v3.9h-1.5zM508.9 322.6h4.2v3.9h-4.2zM514.2 322.6h1.5v3.9h-1.5zM519.6 322.6h1.5v3.9h-1.5zM506.2 329.7h1.5v3.9h-1.5zM511.5 329.7h1.5v3.9h-1.5zM508.9 336.7h1.5v3.9h-1.5zM516.9 336.7h1.5v3.9h-1.5zM506.2 343.7h1.5v3.9h-1.5zM511.5 343.7h1.5v3.9h-1.5zM514.2 343.7h1.5v3.9h-1.5zM519.6 343.7h1.5v3.9h-1.5zM508.9 350.7h1.5v3.9h-1.5zM514.2 350.7h1.5v3.9h-1.5zM506.2 357.7h6.9v3.9h-6.9zM514.2 357.7h1.5v3.9h-1.5zM514.2 364.8h4.2v3.9h-4.2zM519.6 364.8h1.5v3.9h-1.5zM500.7 371.8h7.1v3.9h-7.1zM514.2 371.8h1.5v3.9h-1.5zM519.6 371.8h1.5v3.9h-1.5zM508.9 378.8h1.5v3.9h-1.5zM511.5 378.8h1.5v3.9h-1.5zM517 378.8h4.1v3.9H517zM508.9 385.8h1.5v3.9h-1.5zM514.2 385.8h1.5v3.9h-1.5zM519.6 385.8h1.5v3.9h-1.5zM508.9 392.9h6.9v3.9h-6.9zM519.6 392.9h1.5v3.9h-1.5zM506.2 399.9h1.5v3.9h-1.5zM519.6 399.9h1.5v3.9h-1.5zM506.2 406.9h1.5v3.9h-1.5zM508.9 406.9h1.5v3.9h-1.5zM514.2 406.9h1.5v3.9h-1.5zM517 406.9h4.1v3.9H517zM511.5 413.9h1.5v3.9h-1.5zM516.9 413.9h1.5v3.9h-1.5zM519.6 413.9h1.5v3.9h-1.5zM508.9 420.9h1.5v3.9h-1.5zM511.5 420.9h1.5v3.9h-1.5zM519.6 420.9h1.5v3.9h-1.5zM506.2 428h1.5v3.9h-1.5zM511.5 428h1.5v3.9h-1.5zM516.9 428h1.5v3.9h-1.5zM508.9 435h1.5v3.9h-1.5zM514.2 435h1.5v3.9h-1.5zM519.6 435h1.5v3.9h-1.5zM506.2 442h1.5v3.9h-1.5zM511.5 442h1.5v3.9h-1.5zM519.6 442h1.5v3.9h-1.5zM495.3 448.8h1.5v3.9h-1.5zM503.3 448.8h1.5v3.9h-1.5zM506.2 448.8h1.5v3.9h-1.5zM511.5 448.8h1.5v3.9h-1.5zM489.9 455.3h1.5v3.9h-1.5zM492.6 455.3h1.5v3.9h-1.5zM500.7 455.3h1.5v3.9h-1.5zM506.2 455.3h1.5v3.9h-1.5zM519.6 455.3h1.5v3.9h-1.5zM503.3 461.5h1.5v3.9h-1.5zM498 461.5h1.5v3.9H498zM516.9 461.5h1.5v3.9h-1.5zM519.6 461.5h1.5v3.9h-1.5zM489.9 467.8h1.5v3.9h-1.5zM508.9 467.8h1.5v3.9h-1.5zM495.3 467.8h1.5v3.9h-1.5zM514.2 467.8h1.5v3.9h-1.5zM519.6 467.8h1.5v3.9h-1.5zM489.9 474h1.5v3.9h-1.5zM498 474h1.5v3.9H498zM492.6 474h1.5v3.9h-1.5zM511.5 474h1.5v3.9h-1.5zM514.2 474h1.5v3.9h-1.5zM489.9 480.2h1.5v3.9h-1.5zM508.9 480.2h1.5v3.9h-1.5zM498 480.2h1.5v3.9H498zM503.3 480.2h1.5v3.9h-1.5zM519.6 480.2h1.5v3.9h-1.5zM489.9 486.8h1.5v3.9h-1.5zM508.9 486.8h1.5v3.9h-1.5zM498 486.8h1.5v3.9H498zM506.2 486.8h1.5v3.9h-1.5zM519.6 486.8h1.5v3.9h-1.5zM508.9 492.9h1.5v3.9h-1.5zM495.3 492.9h1.5v3.9h-1.5zM503.3 492.9h1.5v3.9h-1.5zM489.9 499.1h1.5v3.9h-1.5zM503.3 499.1h1.5v3.9h-1.5zM519.6 499.1h1.5v3.9h-1.5zM498 505.2h1.5v3.9H498zM489.9 511.4h1.5v3.9h-1.5zM503.3 511.4h1.5v3.9h-1.5zM519.6 511.4h1.5v3.9h-1.5zM489.9 518.5h1.5v3.9h-1.5zM519.6 518.5h1.5v3.9h-1.5zM503.3 525.6h1.5v3.9h-1.5zM519.6 525.6h1.5v3.9h-1.5zM489.9 532.7h1.5v3.9h-1.5zM506.2 532.7h1.5v3.9h-1.5zM503.3 539.9h1.5v3.9h-1.5zM503.3 546.6h1.5v3.9h-1.5zM519.6 539.9h1.5v3.9h-1.5z"/><path class="st0" d="M519.4 294.5h1.5v3.9h-1.5zM522 294.5h1.5v3.9H522zM524.7 294.5h1.5v3.9h-1.5zM530.1 294.5h1.5v3.9h-1.5zM532.8 294.5h1.5v3.9h-1.5zM519.4 301.6h1.5v3.9h-1.5zM522 301.6h4.2v3.9H522zM519.4 308.6h1.5v3.9h-1.5zM524.7 308.6h6.9v3.9h-6.9zM532.8 308.6h1.5v3.9h-1.5zM519.4 315.6h1.5v3.9h-1.5zM522 315.6h1.5v3.9H522zM527.4 315.6h6.9v3.9h-6.9zM522 322.6h1.5v3.9H522zM524.7 322.6h1.5v3.9h-1.5zM532.8 322.6h1.5v3.9h-1.5zM519.4 329.7h1.5v3.9h-1.5zM524.7 329.7h1.5v3.9h-1.5zM530.1 329.7h1.5v3.9h-1.5zM522 336.7h1.5v3.9H522zM527.4 336.7h1.5v3.9h-1.5zM532.8 336.7h4.4v3.9h-4.4zM519.4 343.7h1.5v3.9h-1.5zM524.7 343.7h6.9v3.9h-6.9zM522 350.7h1.5v3.9H522zM527.4 350.7h1.5v3.9h-1.5zM530.1 350.7h1.5v3.9h-1.5zM522 357.7h1.5v3.9H522zM527.4 357.7h1.5v3.9h-1.5zM519.4 364.8h1.5v3.9h-1.5zM524.7 364.8h1.5v3.9h-1.5zM532.8 364.8h1.5v3.9h-1.5zM519.4 371.8h1.5v3.9h-1.5zM522 371.8h1.5v3.9H522zM519.4 378.8h1.5v3.9h-1.5zM524.7 378.8h6.9v3.9h-6.9zM532.8 378.8h1.5v3.9h-1.5zM522 385.8h1.5v3.9H522zM522 392.9h1.5v3.9H522zM527.4 392.9h1.5v3.9h-1.5zM532.8 392.9h1.5v3.9h-1.5zM519.4 399.9h1.5v3.9h-1.5zM524.7 399.9h1.5v3.9h-1.5zM530.1 399.9h4.2v3.9h-4.2zM519.4 406.9h4.2v3.9h-4.2zM527.4 406.9h1.5v3.9h-1.5zM524.7 413.9h1.5v3.9h-1.5zM530.1 413.9h1.5v3.9h-1.5zM532.8 413.9h1.5v3.9h-1.5zM519.4 420.9h1.5v3.9h-1.5zM524.7 420.9h1.5v3.9h-1.5zM532.8 420.9h1.5v3.9h-1.5zM519.4 428h1.5v3.9h-1.5zM524.7 428h1.5v3.9h-1.5zM530.1 428h1.5v3.9h-1.5zM522 435h1.5v3.9H522zM527.4 435h1.5v3.9h-1.5zM532.8 435h1.5v3.9h-1.5zM519.4 442h1.5v3.9h-1.5zM524.7 442h1.5v3.9h-1.5zM535.6 294.5h1.5v3.9h-1.5zM538.3 294.5h1.5v3.9h-1.5zM543.7 294.5h1.5v3.9h-1.5zM546.4 294.5h1.5v3.9h-1.5zM549.1 294.5h1.5v3.9h-1.5zM535.6 301.6h1.5v3.9h-1.5zM541 301.6h1.5v3.9H541zM546.4 301.6h1.5v3.9h-1.5zM538.3 308.6h6.9v3.9h-6.9zM549.1 308.6h1.5v3.9h-1.5zM535.6 315.6h1.5v3.9h-1.5zM543.7 315.6h4.2v3.9h-4.2zM549.1 315.6h1.5v3.9h-1.5zM535.6 322.6h1.5v3.9h-1.5zM538.3 322.6h4.2v3.9h-4.2zM543.7 322.6h1.5v3.9h-1.5zM549.1 322.6h1.5v3.9h-1.5zM535.6 329.7h1.5v3.9h-1.5zM541 329.7h1.5v3.9H541zM543.5 329.7h4.5v3.9h-4.5zM538.3 336.7h1.5v3.9h-1.5zM546.4 336.7h1.5v3.9h-1.5zM549.1 336.7h1.5v3.9h-1.5zM535.6 343.7h1.5v3.9h-1.5zM541 343.7h1.5v3.9H541zM549.1 343.7h1.5v3.9h-1.5zM538.3 350.7h1.5v3.9h-1.5zM546.4 350.7h1.5v3.9h-1.5zM549.1 350.7h1.5v3.9h-1.5zM543.7 357.7h1.5v3.9h-1.5zM549.1 357.7h1.5v3.9h-1.5zM543.7 364.8h4.2v3.9h-4.2zM549.1 364.8h1.5v3.9h-1.5zM530.1 371.8h7.1v3.9h-7.1zM543.7 371.8h1.5v3.9h-1.5zM549.1 371.8h1.5v3.9h-1.5zM538.3 378.8h1.5v3.9h-1.5zM541 378.8h1.5v3.9H541zM546.5 378.8h4.1v3.9h-4.1zM538.3 385.8h1.5v3.9h-1.5zM543.7 385.8h1.5v3.9h-1.5zM546.4 385.8h1.5v3.9h-1.5zM549.1 385.8h1.5v3.9h-1.5zM538.3 392.9h6.9v3.9h-6.9zM549.1 392.9h1.5v3.9h-1.5zM535.6 399.9h1.5v3.9h-1.5zM549.1 399.9h1.5v3.9h-1.5zM535.6 406.9h1.5v3.9h-1.5zM538.3 406.9h1.5v3.9h-1.5zM543.7 406.9h1.5v3.9h-1.5zM546.5 406.9h4.1v3.9h-4.1zM541 413.9h1.5v3.9H541zM546.4 413.9h1.5v3.9h-1.5zM549.1 413.9h1.5v3.9h-1.5zM535.6 420.9h1.5v3.9h-1.5zM538.3 420.9h1.5v3.9h-1.5zM541 420.9h1.5v3.9H541zM549.1 420.9h1.5v3.9h-1.5zM535.6 428h1.5v3.9h-1.5zM541 428h1.5v3.9H541zM546.4 428h1.5v3.9h-1.5zM538.3 435h1.5v3.9h-1.5zM543.7 435h1.5v3.9h-1.5zM549.1 435h1.5v3.9h-1.5zM535.6 442h1.5v3.9h-1.5zM541 442h1.5v3.9H541zM549.1 442h1.5v3.9h-1.5zM524.7 448.8h1.5v3.9h-1.5zM532.8 448.8h1.5v3.9h-1.5zM535.6 448.8h1.5v3.9h-1.5zM541 448.8h1.5v3.9H541zM519.4 455.3h1.5v3.9h-1.5zM522 455.3h1.5v3.9H522zM530.1 455.3h1.5v3.9h-1.5zM535.6 455.3h1.5v3.9h-1.5zM549.1 455.3h1.5v3.9h-1.5zM532.8 461.5h1.5v3.9h-1.5zM527.4 461.5h1.5v3.9h-1.5zM546.4 461.5h1.5v3.9h-1.5zM549.1 461.5h1.5v3.9h-1.5zM538.3 467.8h1.5v3.9h-1.5zM524.7 467.8h1.5v3.9h-1.5zM543.7 467.8h1.5v3.9h-1.5zM549.1 467.8h1.5v3.9h-1.5zM519.4 474h1.5v3.9h-1.5zM527.4 474h1.5v3.9h-1.5zM522 474h1.5v3.9H522zM541 474h1.5v3.9H541zM543.7 474h1.5v3.9h-1.5zM519.4 480.2h1.5v3.9h-1.5zM538.3 480.2h1.5v3.9h-1.5zM527.4 480.2h1.5v3.9h-1.5zM532.8 480.2h1.5v3.9h-1.5zM549.1 480.2h1.5v3.9h-1.5zM519.4 486.8h1.5v3.9h-1.5zM538.3 486.8h1.5v3.9h-1.5zM527.4 486.8h1.5v3.9h-1.5zM535.6 486.8h1.5v3.9h-1.5zM549.1 486.8h1.5v3.9h-1.5zM538.3 492.9h1.5v3.9h-1.5zM524.7 492.9h1.5v3.9h-1.5zM532.8 492.9h1.5v3.9h-1.5zM519.4 499.1h1.5v3.9h-1.5zM532.8 499.1h1.5v3.9h-1.5zM549.1 499.1h1.5v3.9h-1.5zM538.3 505.2h1.5v3.9h-1.5zM527.4 505.2h1.5v3.9h-1.5zM519.4 511.4h1.5v3.9h-1.5zM532.8 511.4h1.5v3.9h-1.5zM549.1 511.4h1.5v3.9h-1.5zM519.4 518.5h1.5v3.9h-1.5zM549.1 518.5h1.5v3.9h-1.5zM532.8 525.6h1.5v3.9h-1.5zM549.1 525.6h1.5v3.9h-1.5zM519.4 532.7h1.5v3.9h-1.5zM535.6 532.7h1.5v3.9h-1.5zM532.8 539.9h1.5v3.9h-1.5zM532.8 546.6h1.5v3.9h-1.5zM549.1 539.9h1.5v3.9h-1.5zM553.2 294.7v3.9l19.3 39.7v-1.9zM553.2 301.7l6.9 13.9v3.2l-6.9-13.2zM562 319.4l6.1 12.4v2.4l-6.1-11.8zM572.5 340.7v1.9l-2.5-4.7v-2.2zM553.2 308.7v3.9l19.3 34.3V345zM553.2 315.7l2.2 3.8v3.7l-2.2-3.5zM561.5 330.4v3.1l-4.3-7.2v-3.5zM566.4 339.1v2.6l-3-5.1v-2.9zM568.3 342.4l1.2 2.2v2.2l-1.2-2zM572.5 349.8v1.9l-1.1-1.7v-2.1zM553.2 322.8l4.4 7.2v3.5l-4.4-6.8zM572.5 354.5v2l-13-20.1v-3.3zM553.2 330.2l7.4 11.1v3.1l-7.4-10.3zM566 349.3v2.6l-3.5-4.9v-2.9zM572.5 359.1v1.9l-4.6-6.4v-2.4zM553.2 336.8l2.2 3v3.7l-2.2-2.8zM564.3 352.3v2.8l-7.1-9.2v-3.5zM567.4 356.6v2.5l-1.2-1.5V355zM572.5 363.7v2l-3.2-4.2v-2.2zM553.2 343.8l6.1 7.7v3.3l-6.1-7zM562.5 358.6l-1.3-1.6v-3.1l1.3 1.7v2.9zM568.3 363v2.4l-4-4.7V358zM572.5 368.2v2l-2.3-2.6v-2.2zM553.2 350.9l2.4 2.7v3.7l-2.4-2.5zM568.3 368.1v2.4l-10.8-11.3V356l-.3-.6zM572.5 372.9v1.9l-2.3-2.3v-2.2zM553.2 357.9l6.4 6.6v3.3l-6.4-6zM561.5 366.5l1.9 1.9v2.9l-1.9-1.8zM572.5 377.8v1.9l-7.3-6.7v-2.6l-.1-.2zM556.2 367.6v3.6l-3-2.4v-3.9zM572.5 382.4v1.9l-1.9-1.5v-2.1zM553.2 371.9l7.4 5.8v3.1l-7.4-5zM562.3 379l2.2 1.8v2.7l-2-1.4v-2.8zM572.5 386.9v2l-6.1-4.1v-2.6zM553.2 379l2.4 1.5v3.7l-2.4-1.3zM559.6 383.1v3.3l-2.1-1.2v-3.5zM567.8 388.4v2.4l-6.3-3.4v-3.1zM572.5 391.4v1.9l-2.8-1.5v-2.2zM553.2 386l3.9 2v3.5l-3.9-1.6zM559 389l4.1 2.1v2.9l-4.1-1.7zM572.5 395.9v2l-7.5-3.1V392zM553.2 393l7.4 2.8v3.2l-7.4-2.1zM567.8 398.6v2.4l-5.3-1.5v-2.9zM572.5 400.4v2l-2.8-.8v-2.3zM553.2 400l3 .8v3.6l-3-.5zM562.5 402.4v2.9l-4.4-.6v-3.5zM564.3 402.8l2.4.6v2.6l-2.4-.4zM572.5 404.9v1.9l-3.9-.5v-2.4l1.1.3zM553.2 407l4.9.7v3.4l-4.9-.1zM562 408.3l2.3.3v2.8l-2.3-.1zM572.5 409.7v2l-6.3-.2v-2.6zM553.2 414.1h3v3.6l-3 .3zM562.5 414.2v3l-4.4.4v-3.5zM566.2 414.2l2.8.1v2.3l-2.8.2zM572.5 414.3v2l-1.6.1v-2.1zM553.2 421.1l7.4-.9v3.2l-7.4 1.6zM564.3 419.8v2.8l-1.8.4v-3zM572.5 418.8v2l-6.3 1.3v-2.4l-.2-.1h.2zM553.2 427.7l3.7-.7v3.5l-3.7 1.2zM562.5 425.8v3l-3.7 1.1v-3.3zM566.2 425l2.6-.6v2.4l-2.6.8V425zM572.5 423.7v1.9l-1.9.6V424zM553.2 435.1l2.8-1v3.7l-2.8 1.2zM566 430.7v2.6l-8.1 3.6v-3.4zM572.5 428.4v2l-4.6 2.1V430zM553.2 441.9l5.4-2.3v3.4l-5.4 2.8zM562.4 438l6-2.6v2.3l-6 3.2zM572.5 433.6v2l-2.2 1.1v-2.2zM553.2 448.9l3.1-1.6v3.6l-3.1 2zM562.5 444v3l-4.3 2.7v-3.4zM565.8 442.3l1.4-.8v2.5l-1.4.9zM572.5 438.7v2l-3.4 2.1v-2.3zM553.2 455.3l5-2.9v3.4l-5 3.4zM564.3 448.8v2.8l-4.2 2.9v-3.2zM572.5 444.1v1.9l-6.3 4.3v-2.6zM553.2 461.7l2.8-1.9v3.7l-2.8 2.1zM568.2 451.8v2.4l-10.3 7.8v-3.4zM572.5 449v2l-2.5 1.8v-2.2zM564.7 459.8v2.7l-2.3 1.9v-3zM572.5 454.2v2l-2.5 2V456zM553.2 474.1l4-3.1v3.5l-4 3.5zM566.2 464v2.6l-7.1 6.3v-3.4zM572.5 459.1v2l-4.4 3.8v-2.4zM553.2 480.4l2.1-1.8v3.7l-2.1 2zM564.1 471.3v2.8l-6.9 6.4V477zM572.5 464.3v1.9l-6.5 6.1v-2.6zM553.2 486.9l4.7-4.2v3.5l-4.7 4.6zM559.8 481l1.9-1.7v3.1l-1.9 1.9zM567.2 474.3v2.5l-3.7 3.7v-2.9zM572.5 469.6v1.9l-3.4 3.4v-2.3zM553.2 493.1l3.4-3.3v3.6l-3.4 3.6zM565.6 481v2.6l-7.2 7.8V488zM572.5 474.3v2l-5 5.3v-2.4zM553.2 499.2l10.5-10.7v2.9l-10.5 11.7zM565.6 486.6l3.5-3.6v2.3l-3.5 3.9zM572.5 479.6v2l-1.5 1.6v-2.1zM556.9 501.3l2.9-3v3.2l-2.9 3.4zM572.5 484.6v1.9l-10.8 12.8v-3.1zM572.5 489.8v1.9l-6.6 8v-2.6z"/><path class="st1" d="M566.2 413.8h-.1zM566.2 413.8h-.1zM566.2 419.6v.1l-.2-.1z"/><path class="st1" d="M566.2 419.6v.1l-.2-.1zM566.2 425z"/><path class="st0" d="M556.9 520.4l2.9-3.3v3.2l-2.9 3.7zM572.5 502.1v1.9l-10.8 13.9v-3.1zM556.9 527.6l2.9-3.6v3.3l-2.9 3.8zM572.5 508v2l-10.8 14.7v-3.1zM572.5 496.2v2l-6.6 8v-2.6z"/><path class="st1" d="M566.2 425z"/></g><g><path class="st0" d="M222.9 353.3h3.9v3.9h-3.9zM229.7 353.3h3.9v3.9h-3.9zM236.5 353.3h3.9v3.9h-3.9zM250.2 353.3h3.9v3.9h-3.9zM257 353.3h3.9v3.9H257zM222.9 360.3h3.9v3.9h-3.9zM229.7 360.3h10.8v3.9h-10.8zM222.9 367.3h3.9v3.9h-3.9zM236.5 367.3h17.6v3.9h-17.6zM257 367.3h3.9v3.9H257zM222.9 374.3h3.9v3.9h-3.9zM229.7 374.3h3.9v3.9h-3.9zM243.4 374.3H261v3.9h-17.6zM229.7 381.3h3.9v3.9h-3.9zM236.5 381.3h3.9v3.9h-3.9zM257 381.3h3.9v3.9H257zM222.9 388.4h3.9v3.9h-3.9zM236.5 388.4h3.9v3.9h-3.9zM250.2 388.4h3.9v3.9h-3.9zM229.7 395.4h3.9v3.9h-3.9zM243.4 395.4h3.9v3.9h-3.9zM257 395.4h11.1v3.9H257zM222.9 402.4h3.9v3.9h-3.9zM236.5 402.4h17.6v3.9h-17.6zM229.7 409.4h3.9v3.9h-3.9zM243.4 409.4h3.9v3.9h-3.9zM250.2 409.4h3.9v3.9h-3.9zM229.7 416.5h3.9v3.9h-3.9zM243.4 416.5h3.9v3.9h-3.9zM222.9 423.5h3.9v3.9h-3.9zM236.5 423.5h3.9v3.9h-3.9zM257 423.5h3.9v3.9H257zM222.9 430.5h3.9v3.9h-3.9zM229.7 430.5h3.9v3.9h-3.9zM222.9 437.5h3.9v3.9h-3.9zM236.5 437.5h17.6v3.9h-17.6zM257 437.5h3.9v3.9H257zM229.7 444.5h3.9v3.9h-3.9zM229.7 451.6h3.9v3.9h-3.9zM243.4 451.6h3.9v3.9h-3.9zM257 451.6h3.9v3.9H257zM222.9 458.6h3.9v3.9h-3.9zM236.5 458.6h3.9v3.9h-3.9zM250.2 458.6H261v3.9h-10.8zM222.9 465.6h10.8v3.9h-10.8zM243.4 465.6h3.9v3.9h-3.9zM236.5 472.6h3.9v3.9h-3.9zM250.2 472.6h3.9v3.9h-3.9zM257 472.6h3.9v3.9H257zM222.9 479.7h3.9v3.9h-3.9zM229.7 479.7h3.9v3.9h-3.9zM236.5 479.7h3.9v3.9h-3.9zM257 479.7h3.9v3.9H257zM222.9 486.7h3.9v3.9h-3.9zM236.5 486.7h3.9v3.9h-3.9zM250.2 486.7h3.9v3.9h-3.9zM229.7 493.7h3.9v3.9h-3.9zM243.4 493.7h3.9v3.9h-3.9zM257 493.7h3.9v3.9H257zM222.9 500.7h3.9v3.9h-3.9zM236.5 500.7h3.9v3.9h-3.9zM264.2 353.3h3.9v3.9h-3.9zM271 353.3h3.9v3.9H271zM284.7 353.3h3.9v3.9h-3.9zM291.5 353.3h3.9v3.9h-3.9zM298.4 353.3h3.9v3.9h-3.9zM264.2 360.3h3.9v3.9h-3.9zM277.9 360.3h3.9v3.9h-3.9zM291.5 360.3h3.9v3.9h-3.9zM271 367.3h17.6v3.9H271zM298.4 367.3h3.9v3.9h-3.9zM264.2 374.3h3.9v3.9h-3.9zM284.7 374.3h10.8v3.9h-10.8zM298.4 374.3h3.9v3.9h-3.9zM264.2 381.3h3.9v3.9h-3.9zM271 381.3h10.8v3.9H271zM284.7 381.3h3.9v3.9h-3.9zM298.4 381.3h3.9v3.9h-3.9zM264.2 388.4h3.9v3.9h-3.9zM277.9 388.4h3.9v3.9h-3.9zM284.1 388.4h11.3v3.9h-11.3zM271 395.4h3.9v3.9H271zM291.5 395.4h3.9v3.9h-3.9zM298.4 395.4h3.9v3.9h-3.9zM264.2 402.4h3.9v3.9h-3.9zM277.9 402.4h3.9v3.9h-3.9zM284.7 402.4h3.9v3.9h-3.9zM298.4 402.4h3.9v3.9h-3.9zM271 409.4h3.9v3.9H271zM284.7 409.4h3.9v3.9h-3.9zM291.5 409.4h3.9v3.9h-3.9zM298.4 409.4h3.9v3.9h-3.9zM264.2 416.5h17.6v3.9h-17.6zM284.7 416.5h3.9v3.9h-3.9zM298.4 416.5h3.9v3.9h-3.9zM284.7 423.5h10.8v3.9h-10.8zM298.4 423.5h3.9v3.9h-3.9zM250.2 430.5h17.9v3.9h-17.9zM284.7 430.5h3.9v3.9h-3.9zM298.4 430.5h3.9v3.9h-3.9zM271 437.5h3.9v3.9H271zM277.9 437.5h3.9v3.9h-3.9zM291.8 437.5h10.5v3.9h-10.5zM271 444.5h3.9v3.9H271zM284.7 444.5h3.9v3.9h-3.9zM291.5 444.5h3.9v3.9h-3.9zM298.4 444.5h3.9v3.9h-3.9zM271 451.6h17.6v3.9H271zM298.4 451.6h3.9v3.9h-3.9zM264.2 458.6h3.9v3.9h-3.9zM298.4 458.6h3.9v3.9h-3.9zM264.2 465.6h3.9v3.9h-3.9zM271 465.6h3.9v3.9H271zM284.7 465.6h3.9v3.9h-3.9zM291.8 465.6h10.5v3.9h-10.5zM277.9 472.6h3.9v3.9h-3.9zM291.5 472.6h3.9v3.9h-3.9zM298.4 472.6h3.9v3.9h-3.9zM264.2 479.7h3.9v3.9h-3.9zM271 479.7h3.9v3.9H271zM277.9 479.7h3.9v3.9h-3.9zM298.4 479.7h3.9v3.9h-3.9zM264.2 486.7h3.9v3.9h-3.9zM277.9 486.7h3.9v3.9h-3.9zM291.5 486.7h3.9v3.9h-3.9zM271 493.7h3.9v3.9H271zM284.7 493.7h3.9v3.9h-3.9zM298.4 493.7h3.9v3.9h-3.9zM264.2 500.7h3.9v3.9h-3.9zM277.9 500.7h3.9v3.9h-3.9zM298.4 500.7h3.9v3.9h-3.9zM236.5 507.5h3.9v3.9h-3.9zM257 507.5h3.9v3.9H257zM264.2 507.5h3.9v3.9h-3.9zM277.9 507.5h3.9v3.9h-3.9zM222.9 514h3.9v3.9h-3.9zM229.7 514h3.9v3.9h-3.9zM250.2 514h3.9v3.9h-3.9zM264.2 514h3.9v3.9h-3.9zM298.4 514h3.9v3.9h-3.9zM257 520.2h3.9v3.9H257zM243.4 520.2h3.9v3.9h-3.9zM291.5 520.2h3.9v3.9h-3.9zM298.4 520.2h3.9v3.9h-3.9zM222.9 526.5h3.9v3.9h-3.9zM271 526.5h3.9v3.9H271zM236.5 526.5h3.9v3.9h-3.9zM284.7 526.5h3.9v3.9h-3.9zM298.4 526.5h3.9v3.9h-3.9zM222.9 532.7h3.9v3.9h-3.9zM243.4 532.7h3.9v3.9h-3.9zM229.7 532.7h3.9v3.9h-3.9zM277.9 532.7h3.9v3.9h-3.9zM284.7 532.7h3.9v3.9h-3.9zM222.9 538.9h3.9v3.9h-3.9zM271 538.9h3.9v3.9H271zM243.4 538.9h3.9v3.9h-3.9zM257 538.9h3.9v3.9H257zM298.4 538.9h3.9v3.9h-3.9zM222.9 545.5h3.9v3.9h-3.9zM271 545.5h3.9v3.9H271zM243.4 545.5h3.9v3.9h-3.9zM264.2 545.5h3.9v3.9h-3.9zM298.4 545.5h3.9v3.9h-3.9zM271 551.6h3.9v3.9H271zM236.5 551.6h3.9v3.9h-3.9zM257 551.6h3.9v3.9H257zM222.9 557.8h3.9v3.9h-3.9zM257 557.8h3.9v3.9H257zM298.4 557.8h3.9v3.9h-3.9zM271 563.9h3.9v3.9H271zM243.4 563.9h3.9v3.9h-3.9zM222.9 570.1h3.9v3.9h-3.9zM257 570.1h3.9v3.9H257zM298.4 570.1h3.9v3.9h-3.9zM222.9 577.2h3.9v3.9h-3.9zM298.4 577.2h3.9v3.9h-3.9zM257 584.3h3.9v3.9H257zM298.4 584.3h3.9v3.9h-3.9zM222.9 591.4h3.9v3.9h-3.9zM264.2 591.4h3.9v3.9h-3.9zM257 598.6h3.9v3.9H257zM257 605.4h3.9v3.9H257zM298.4 598.6h3.9v3.9h-3.9zM308.1 609.3h-2.6V355.2l2.6 4.1zM312.7 563.9h-2V361.6l2 4.1zM316.8 544.8h-1.3V368.4l1.3 4.1z"/></g></svg>