<svg id="Слой_1" xmlns="http://www.w3.org/2000/svg" viewBox="0 0 32 32"><style>.st0{fill:none;stroke:#fff;stroke-miterlimit:10}</style><title/><g id="Page-1"><g id="icon-61-face-moustache"><path id="face-moustache" class="st0" d="M16.5 20.8c.4.8 1.4 2 3.3 2.1 2.7.1 5.2-2.4 5.2-3.3-1 1.1-2.8 1.2-3.7.8-1.4-.7-1.2-2-2.2-2.9-.6-.5-1.4-.5-2.1 0-.1.1-.3.2-.4.4-.1-.1-.2-.3-.4-.4-.7-.5-1.6-.5-2.1 0-1 .9-.8 2.2-2.2 2.9-1 .5-2.7.4-3.7-.8 0 .9 2.5 3.4 5.2 3.3 1.7-.1 2.7-1.4 3.1-2.1zm0 8.2C23.4 29 29 23.4 29 16.5S23.4 4 16.5 4 4 9.6 4 16.5 9.6 29 16.5 29zm0-1C22.9 28 28 22.9 28 16.5S22.9 5 16.5 5 5 10.1 5 16.5 10.1 28 16.5 28zM12 16c1.7 0 3-1.3 3-3s-1.3-3-3-3-3 1.3-3 3 1.3 3 3 3zm0-1c1.1 0 2-.9 2-2s-.9-2-2-2-2 .9-2 2 .9 2 2 2zm0-1c.6 0 1-.4 1-1s-.4-1-1-1-1 .4-1 1 .4 1 1 1zm9 0c.6 0 1-.4 1-1s-.4-1-1-1-1 .4-1 1 .4 1 1 1z"/></g></g></svg>