<svg id="pattern" xmlns="http://www.w3.org/2000/svg" viewBox="0 0 800 800"><style>.st0{fill:none}.st1{fill:#fff}.st2{fill:url(#New_Pattern_Swatch_3)}</style><pattern width="398.3" height="480.9" patternUnits="userSpaceOnUse" id="New_Pattern_Swatch_3" viewBox="0 -480.9 398.3 480.9" overflow="visible"><path class="st0" d="M0-480.9h398.3V0H0z"/><path class="st1" d="M199.3-430.5l-17.3 9.7 14.1 6.1c.9.4 1.5 1.3 1.5 2.3 0 1-.6 1.9-1.5 2.3l-14.9 6.7 17.8 10.2 23.8-5.4c1.4-.3 2.7.5 3 1.9.3 1.4-.5 2.7-1.9 3l-18.5 4.2 13 7.5c1.2.7 1.6 2.2.9 3.5-.7 1.2-2.2 1.6-3.4.9L203-385l5.7 17.6c.4 1.3-.3 2.8-1.6 3.2-.7.2-1.4.1-2-.2-.5-.3-.9-.8-1.1-1.4l-7.5-22.9-17.5-10.1 1.8 15.8c.1 1-.4 2-1.2 2.5-.9.5-1.9.5-2.8-.1l-13.1-9.5.1 20.3 16.7 17.8c1 1 .9 2.6-.1 3.6s-2.6.9-3.6-.1l-12.9-13.8.1 15c0 1.4-1.1 2.5-2.5 2.5-.5 0-.9-.1-1.3-.3-.8-.4-1.3-1.2-1.3-2.2l-.1-14.8-12.3 13.8c-.8.9-2.1 1.1-3.1.5-.2-.1-.3-.2-.4-.3-1-.9-1.1-2.5-.2-3.6l16-18-.1-20.3-12.9 9.6c-.8.6-1.9.7-2.8.2-.9-.5-1.4-1.5-1.3-2.5l1.7-16.5-17.8 10-7.5 23.2c-.4 1.3-1.9 2.1-3.2 1.6-.2-.1-.3-.1-.5-.2-1-.6-1.5-1.8-1.1-3l5.8-18-13.1 7.3c-.8.5-1.7.4-2.5 0-.4-.2-.7-.5-.9-1-.7-1.2-.3-2.8 1-3.4l12.9-7.3-18-4c-1.4-.3-2.2-1.7-1.9-3 .3-1.4 1.7-2.2 3-1.9l23.5 5.3 17.3-9.7-14.4-6.2c-.9-.4-1.5-1.3-1.5-2.3 0-1 .6-1.9 1.5-2.3l14.9-6.7-17.5-10.2-23.8 5.4c-.6.1-1.3 0-1.8-.3-.6-.3-1-.9-1.2-1.6-.3-1.4.5-2.7 1.9-3l18.5-4.2-13-7.5c-1.2-.7-1.6-2.2-.9-3.5.7-1.2 2.2-1.6 3.4-.9l12.9 7.4-5.7-17.6c-.4-1.3.3-2.8 1.6-3.2 1.3-.4 2.8.3 3.2 1.6l7.5 22.9 17.3 10-1.8-15.8c-.1-1 .4-2 1.2-2.5.9-.5 1.9-.5 2.8.1l13.3 9.6-.1-20.3-16.6-17.8c-1-1-.9-2.6.1-3.6s2.6-.9 3.6.1l12.9 13.8-.1-15c0-1.4 1.1-2.5 2.5-2.5s2.5 1.1 2.5 2.5l.1 14.8 12.3-13.8c.9-1 2.5-1.1 3.6-.2 1 .9 1.1 2.5.2 3.6l-16 18 .1 20 12.7-9.4c.8-.6 1.9-.7 2.8-.2.9.5 1.4 1.5 1.3 2.5l-1.7 16.7 18.1-10.2 7.5-23.2c.4-1.3 1.9-2.1 3.2-1.6 1.3.4 2.1 1.9 1.6 3.2l-5.8 18 13.1-7.3c1.2-.7 2.8-.3 3.4 1 .7 1.2.3 2.8-1 3.4l-12.9 7.3 18 4c1.4.3 2.2 1.7 1.9 3-.3 1.4-1.7 2.2-3 1.9l-23.8-5.1zm-35.5 2.5l.1 11.7 9.5-5.4 1.5-14.6-11.1 8.3zm-15.1 5.7l10.1 5.8-.1-11.2-11.6-8.4 1.6 13.8zm-2.8 15.8l10.2-5.7-9.7-5.6-13 5.8 12.5 5.5zm12.7 10.1l-.1-11.5-9.8 5.5-1.5 14.3 11.4-8.3zm14.9-5.5l-9.9-5.7.1 11.2 11.4 8.3-1.6-13.8zm3-15.7l-10.2 5.7 9.5 5.5 13-5.8-12.3-5.4zM387.5-170.3c0 .9-.8 1.5-1.6 1.5l-9.1-.5 8 8c.6.6.6 1.6 0 2.2-.6.6-1.6.6-2.2 0l-10.4-10.4-12.1-.6 5.3 7.8c.3.5.4 1.2 0 1.7-.3.5-.9.8-1.5.7l-9.9-1.4 5.8 11.1 14.1 5c.8.3 1.2 1.2.9 2-.3.8-1.2 1.2-2 .9l-10.9-3.8 4.3 8.1c.4.8.1 1.7-.6 2.1-.8.4-1.7.1-2.1-.6l-4.2-8-2.8 11c-.2.8-1 1.3-1.9 1.1-.4-.1-.8-.4-1-.8-.2-.3-.2-.7-.1-1.1l3.6-14.3-5.8-10.9-4.2 8.7c-.3.6-.8.9-1.4.9-.6 0-1.2-.4-1.4-1l-3.7-9.1-6.6 10.5 2.8 14.6c.2.8-.4 1.6-1.2 1.8-.8.2-1.6-.4-1.8-1.2l-2.2-11.4-4.8 7.8c-.5.7-1.4.9-2.1.5-.2-.1-.4-.4-.5-.6-.2-.5-.2-1.1.1-1.5l4.8-7.7-10.9 3.1c-.7.2-1.5-.1-1.8-.8 0-.1-.1-.2-.1-.3-.2-.8.2-1.7 1.1-1.9l14.2-4.1 6.6-10.5-9.8.7c-.6 0-1.2-.3-1.5-.8-.3-.5-.2-1.2.1-1.7l6.3-8-12.5-.6-11.4 9.6c-.7.5-1.6.5-2.2-.2-.1-.1-.1-.2-.2-.3-.3-.6-.2-1.4.4-1.9l8.9-7.4-9.1-.5c-.6 0-1-.4-1.3-.8-.1-.2-.2-.5-.2-.8 0-.9.8-1.5 1.6-1.5l9.1.5-8-8c-.6-.6-.6-1.6 0-2.2.6-.6 1.6-.6 2.2 0l10.4 10.4 12.1.6-5.4-7.9c-.3-.5-.4-1.2 0-1.7.3-.5.9-.8 1.5-.7l9.9 1.4-5.8-10.9-14.1-5c-.4-.1-.7-.4-.9-.7-.2-.4-.2-.8-.1-1.2.3-.8 1.2-1.2 2-.9l10.9 3.8-4.3-8.1c-.4-.8-.1-1.7.6-2.1.8-.4 1.7-.1 2.1.6l4.2 8 2.8-11c.2-.8 1-1.3 1.9-1.1.8.2 1.3 1 1.1 1.9l-3.6 14.3 5.7 10.8 4.2-8.7c.3-.6.8-.9 1.4-.9.6 0 1.2.4 1.4 1l3.7 9.3 6.6-10.5-2.8-14.6c-.2-.8.4-1.6 1.2-1.8.8-.2 1.6.4 1.8 1.2l2.2 11.4 4.8-7.8c.5-.7 1.4-.9 2.1-.5.7.5.9 1.4.5 2.1l-4.8 7.7 10.9-3.1c.8-.2 1.7.2 1.9 1.1.2.8-.2 1.7-1.1 1.9l-14.2 4.1-6.5 10.4 9.7-.7c.6 0 1.2.3 1.5.8.3.5.2 1.2-.1 1.7l-6.3 8.1 12.7.6 11.4-9.6c.7-.5 1.6-.5 2.2.2.6.7.5 1.6-.2 2.2l-8.9 7.4 9.1.5c.9-.2 1.5.5 1.5 1.3zm-34.5-9.5l-3.8 6.1 6.7.3 5.5-7-8.4.6zm-9.7-2l3.3 6.3 3.6-5.8-3.3-8.1-3.6 7.6zm-6.5 7.3l7.1.4-3.2-6.1-8.6-1.2 4.7 6.9zm3.2 9.4l3.7-5.9-6.8-.3-5.4 6.9 8.5-.7zm9.5 2l-3.3-6.2-3.6 5.8 3.2 8 3.7-7.6zm6.7-7.2l-7.1-.4 3.1 5.9 8.6 1.2-4.6-6.7zM124.6-144l-26.2 14.8 7.2-23.1c.4-1.3-.3-2.7-1.6-3.1-1.3-.4-2.7.3-3.1 1.6l-8.7 28.1-10.5 5.9 3.1-9.9c.4-1.3-.3-2.7-1.6-3.1-1.3-.4-2.7.3-3.1 1.6l-4.6 14.9-7.8 4.4v-10.3l9.5-10.7c.9-1 .8-2.6-.2-3.5-1-.9-2.6-.8-3.5.2l-5.8 6.6v-11.2l19-21.4c.9-1 .8-2.6-.2-3.5-1-.9-2.6-.8-3.5.2l-15.3 17.3V-178c0-1.4-1.1-2.5-2.5-2.5s-2.5 1.1-2.5 2.5v30l-16.6-17.6c-.9-1-2.5-1-3.5-.1s-1 2.5-.1 3.5l20.2 21.4v12.1l-7.1-7.5c-.9-1-2.5-1-3.5-.1s-1 2.5-.1 3.5l10.7 11.3v9.9l-8.4-5.1c0-.1 0-.3-.1-.4l-4.6-15c-.4-1.3-1.8-2-3.1-1.6-1.3.4-2 1.8-1.6 3.1l3.1 10.2-9.8-5.9c0-.3 0-.5-.1-.8l-8.7-28.3c-.4-1.3-1.8-2-3.1-1.6-1.3.4-2 1.8-1.6 3.1l7.3 23.8-26-16.1c-1.2-.7-2.7-.3-3.4.8-.7 1.2-.3 2.7.8 3.4l24.1 14.7-21.9 4.7c-1.3.3-2.2 1.6-1.9 2.9.2 1.2 1.3 1.9 2.4 1.9.2 0 .3 0 .5-.1l27-5.8 10.3 6.3-8.4 1.8c-1.3.3-2.2 1.6-1.9 2.9.2 1.2 1.3 1.9 2.4 1.9.2 0 .3 0 .5-.1l13.5-2.9 9.9 6-8 4.5c-.1-.1-.3-.1-.4-.1l-15.3-3.3c-1.3-.3-2.6.6-2.9 1.9-.3 1.3.6 2.6 1.9 2.9l10.4 2.2-10 5.6c-.2-.1-.5-.2-.7-.3l-28.9-6c-1.3-.3-2.6.6-2.9 1.9-.3 1.3.6 2.6 1.9 2.9l24.4 5.3-26.7 15c-1.2.7-1.6 2.2-.9 3.4.5.8 1.3 1.3 2.1 1.3.4 0 .8-.1 1.2-.3l24.6-13.9-6.6 21.4c-.4 1.3.3 2.7 1.6 3.1.2.1.5.1.7.1 1.1 0 2-.7 2.4-1.7L36-88.3l10.5-5.9L44-86c-.4 1.3.3 2.7 1.6 3.1.2.1.5.1.7.1 1.1 0 2-.7 2.4-1.7l4.1-13.2 10-5.6v8.8l-.3.3L52-82.6c-.9 1-.8 2.6.2 3.5.5.4 1.1.6 1.6.6.7 0 1.4-.3 1.8-.8l7.1-7.9v11.4c-.2.1-.4.3-.6.5l-19.6 22c-.9 1-.8 2.6.2 3.5.5.4 1.1.6 1.6.6.7 0 1.4-.3 1.8-.8l16.6-18.6V-38c0 1.4 1.1 2.5 2.5 2.5s2.5-1.1 2.5-2.5v-28.2L83-49.9c.9 1 2.5 1 3.5.1s1-2.5.1-3.5l-19-20.1v-12.1l5.9 6.2c.9 1 2.5 1 3.5.1s1-2.5.1-3.5l-9.5-10v-10.2l7.7 4.7 4.2 13.7c.3 1.1 1.3 1.7 2.4 1.7.2 0 .5 0 .7-.1 1.3-.4 2-1.8 1.6-3.1l-2.6-8.4 9.6 5.8 8.4 27.4c.3 1.1 1.3 1.7 2.4 1.7.2 0 .5 0 .7-.1 1.3-.4 2-1.8 1.6-3.1l-6.8-22.1 25.4 15.4c.4.2.8.4 1.3.4.8 0 1.6-.4 2.1-1.2.7-1.2.3-2.7-.8-3.4L100-89.1l23.7-5.1c1.3-.3 2.2-1.6 1.9-2.9-.3-1.3-1.6-2.2-2.9-1.9l-28.8 6.2-10.3-6.3 10.1-2.2c1.3-.3 2.2-1.6 1.9-2.9-.3-1.3-1.6-2.2-2.9-1.9l-15.2 3.3-7.6-4.6 8.7-4.9 14 3c.2 0 .4.1.5.1 1.1 0 2.2-.8 2.4-1.9.3-1.3-.6-2.6-1.9-2.9l-8.6-1.9 9.8-5.5 28 6.1c.2 0 .3.1.5.1 1.1 0 2.2-.8 2.4-1.9.3-1.3-.6-2.6-1.9-2.9l-22.6-4.9 25.9-14.6c1.2-.7 1.6-2.2.9-3.4-.7-1.4-2.2-1.8-3.4-1.1zM334.1-364.5c-.3-.6-1-.8-1.6-.4l-12.3 7 3.4-10.9c.2-.6-.2-1.3-.8-1.5-.6-.2-1.3.2-1.5.8l-4.1 13.2-5 2.8 1.4-4.7c.2-.6-.2-1.3-.8-1.5-.6-.2-1.3.2-1.5.8l-2.2 7-3.7 2.1v-4.9l4.5-5c.4-.5.4-1.2-.1-1.6-.5-.4-1.2-.4-1.6.1l-2.8 3.1v-5.3l9-10.1c.4-.5.4-1.2-.1-1.6-.5-.4-1.2-.4-1.6.1l-7.2 8.1v-14c0-.6-.5-1.2-1.2-1.2-.6 0-1.2.5-1.2 1.2v14.2l-7.8-8.3c-.4-.5-1.2-.5-1.6 0-.5.4-.5 1.2 0 1.6l9.5 10.1v5.7l-3.4-3.5c-.4-.5-1.2-.5-1.6 0-.5.4-.5 1.2 0 1.6l5 5.3v4.7l-4-2.4v-.2l-2.2-7.1c-.2-.6-.8-1-1.5-.8-.6.2-1 .8-.8 1.5l1.5 4.8-4.6-2.8v-.4l-4.1-13.3c-.2-.6-.8-1-1.5-.8-.6.2-1 .8-.8 1.5l3.5 11.2-12.3-7.5c-.5-.3-1.3-.2-1.6.4-.3.5-.2 1.3.4 1.6l11.4 6.9-10.3 2.2c-.6.1-1 .8-.9 1.4.1.5.6.9 1.1.9h.2l12.7-2.7 4.9 3-4 .8c-.6.1-1 .8-.9 1.4.1.5.6.9 1.1.9h.2l6.4-1.4 4.6 2.8-3.8 2.1c-.1 0-.1-.1-.2-.1l-7.2-1.6c-.6-.1-1.2.3-1.4.9-.1.6.3 1.2.9 1.4l4.9 1.1-4.7 2.7c-.1-.1-.2-.1-.3-.1l-13.6-2.9c-.6-.1-1.2.3-1.4.9-.1.6.3 1.2.9 1.4l11.5 2.5-12.6 7.1c-.6.3-.8 1-.4 1.6.2.4.6.6 1 .6.2 0 .4 0 .6-.2l11.6-6.5-3.1 10.1c-.2.6.2 1.3.8 1.5.1 0 .2.1.3.1.5 0 1-.3 1.1-.8l3.9-12.4 5-2.8-1.2 3.9c-.2.6.2 1.3.8 1.5.1 0 .2.1.3.1.5 0 1-.3 1.1-.8l1.9-6.2 4.7-2.7v4.2l-.1.1-4.9 5.5c-.4.5-.4 1.2.1 1.6.2.2.5.3.8.3.3 0 .6-.1.9-.4l3.3-3.7v5.4c-.1.1-.2.1-.3.2l-9.3 10.4c-.4.5-.4 1.2.1 1.6.2.2.5.3.8.3.3 0 .6-.1.9-.4l7.8-8.8v14.4c0 .6.5 1.2 1.2 1.2.6 0 1.2-.5 1.2-1.2v-13.3l7.3 7.7c.4.5 1.2.5 1.6 0 .5-.4.5-1.2 0-1.6l-8.9-9.5v-5.7l2.8 2.9c.4.5 1.2.5 1.6 0 .5-.4.5-1.2 0-1.6l-4.5-4.7v-4.8l3.6 2.2 2 6.5c.2.5.6.8 1.1.8.1 0 .2 0 .3-.1.6-.2 1-.8.8-1.5l-1.2-4 4.5 2.7 4 12.9c.2.5.6.8 1.1.8.1 0 .2 0 .3-.1.6-.2 1-.8.8-1.5l-3.2-10.4 12 7.3c.2.1.4.2.6.2.4 0 .8-.2 1-.6.3-.5.2-1.3-.4-1.6l-12.1-7.3 11.2-2.4c.6-.1 1-.8.9-1.4-.1-.6-.8-1-1.4-.9l-13.6 2.9-4.9-3 4.8-1c.6-.1 1-.8.9-1.4-.1-.6-.7-1-1.4-.9l-7.2 1.5-3.6-2.2 4.1-2.3 6.6 1.4h.2c.5 0 1-.4 1.1-.9.1-.6-.3-1.2-.9-1.4l-4-.9 4.6-2.6 13.2 2.9h.2c.5 0 1-.4 1.1-.9.1-.6-.3-1.2-.9-1.4l-10.6-2.3 12.2-6.9c.9-.4 1.1-1.1.8-1.6zM77.6-297.6c0 .9-.8 1.7-1.7 1.7h-10l9.2 8.3c.7.6.7 1.7.1 2.4-.3.4-.8.6-1.3.6-.4 0-.8-.1-1.1-.4l-12-10.9H47.2l6.3 8.6c.4.5.4 1.3.1 1.9-.3.6-1 .9-1.7.8l-10.8-1.2L48-274l15.7 4.9c.9.3 1.4 1.2 1.1 2.1-.3.9-1.2 1.4-2.1 1.1l-12.1-3.8 5 8.7c.5.8.2 1.9-.6 2.3-.3.2-.6.2-.8.2-.6 0-1.2-.3-1.5-.8l-5-8.6-2.7 12.1c-.2.8-.9 1.3-1.7 1.3h-.4c-.9-.2-1.5-1.1-1.3-2l3.4-15.8-6.8-11.8-4.4 9.9c-.3.6-.9 1-1.6 1-.7 0-1.3-.4-1.6-1l-4.5-10.2-7.1 11.8 3.4 16c.2.9-.4 1.8-1.3 2h-.4c-.8 0-1.5-.5-1.7-1.3l-2.6-12.4-5.2 8.6c-.3.5-.9.8-1.5.8-.3 0-.6-.1-.9-.2-.8-.5-1.1-1.5-.6-2.3l5.1-8.6-11.9 3.7c-.7.2-1.4-.1-1.9-.6v-2c.2-.3.5-.5.9-.6l15.5-4.8 6.9-11.5-10.5 1.1c-.7.1-1.3-.3-1.7-.8-.3-.6-.3-1.3.1-1.9l6.5-8.9H3.6L0-292.5v-10.8l4.1 3.7h13.4l-6.3-8.6c-.4-.5-.4-1.3-.1-1.9.3-.6 1-.9 1.7-.8l10.9 1.2-6.8-11.8-15.7-4.9c-.9-.3-1.4-1.2-1.1-2.1.3-.9 1.2-1.4 2.1-1.1l12.1 3.8-5-8.7c-.5-.8-.2-1.9.6-2.3.8-.5 1.9-.2 2.3.6l5 8.6 2.6-12.1c.2-.9 1.1-1.5 2-1.3.9.2 1.5 1.1 1.3 2l-3.4 15.8 6.7 11.7 4.3-9.7c.3-.6.9-1 1.6-1 .7 0 1.3.4 1.6 1l4.6 10.3 7.2-12-3.4-16c-.2-.9.4-1.8 1.3-2 .9-.2 1.8.4 2 1.3l2.6 12.4 5.2-8.6c.5-.8 1.5-1.1 2.3-.6.8.5 1.1 1.5.6 2.3l-5.1 8.6 11.9-3.7c.9-.3 1.8.2 2.1 1.1.3.9-.2 1.8-1.1 2.1l-15.5 4.8-6.8 11.4 10.3-1.1c.7-.1 1.3.3 1.7.8.3.6.3 1.3-.1 1.9l-6.5 8.9H61l12.1-11.1c.7-.6 1.8-.6 2.4.1.6.7.6 1.8-.1 2.4l-9.4 8.6h10.1c.7 0 1.5.8 1.5 1.7zm-38.1-8.5l-4 6.7h7.4l5.7-7.7-9.1 1zM28.6-308l3.9 6.8 3.8-6.3-4-9-3.7 8.5zm-6.9 8.4h7.8l-3.8-6.5-9.6-1 5.6 7.5zm3.7 10.1l4-6.7h-7.5l-5.7 7.7 9.2-1zm10.8 1.7l-3.8-6.7-3.9 6.5 3.9 8.8 3.8-8.6zM43-296h-7.7l3.8 6.5 9.4 1L43-296zM307.7-56.8c-.4.7-1.1 1.1-1.9 1.2-.3 0-.7-.1-1-.2l-12.9-6.8c-5.1 2.8-10.9 6.2-16.5 9.4v.7l30.2 17.2c1 .6 1.4 1.9.8 2.9-.4.7-1.1 1.1-1.9 1.1-.4 0-.7-.1-1.1-.3l-27.9-15.8.7 15.5c7.1 4.5 11 7.2 11.5 7.9.7 1 .4 2.3-.6 3-.9.6-2.2.4-2.9-.4-.7-.6-3.6-2.6-7.8-5.2l.5 10.4c.1 1.2-.9 2.2-2 2.2h-.1c-1.1 0-2.1-.9-2.1-2.1l-.6-13.4c-5-3.1-10.9-6.8-16.6-10.3v36.1c0 1.2-1 2.1-2.1 2.1-1.2 0-2.1-1-2.1-2.1V-38l-12.9 7.8c-.2 9.5-.5 14.7-.9 15.6-.4.8-1.1 1.2-1.9 1.2-.3 0-.6-.1-.9-.2-1-.5-1.5-1.6-1.1-2.7.2-1 .4-5.3.5-11.3l-10.6 6.4c-.3.2-.7.3-1.1.3-.7 0-1.4-.4-1.8-1-.6-1-.3-2.3.7-3l12.9-7.8c.1-5 .1-10.8.2-16.4l-30.6 18c-.3.2-.7.3-1.1.3-.7 0-1.5-.4-1.9-1.1-.6-1-.3-2.3.8-2.9l30.2-17.7-15.1-7.9c-8 4.4-12.5 6.7-13.5 6.8h-.2c-1.1 0-2-.8-2.1-2-.1-1.1.7-2.1 1.8-2.3.9-.3 4.6-2.2 9.5-5l-10.4-5.5c-1.1-.6-1.5-1.9-.9-2.9s1.9-1.5 2.9-.9l12.9 6.8c4.3-2.4 9.2-5.2 14-8l-29.4-16.7c-1-.6-1.4-1.9-.8-2.9.6-1 1.9-1.4 2.9-.8L233.1-77l-.9-19c-7.1-4.5-11-7.2-11.5-7.9-.7-1-.4-2.3.6-3 .9-.6 2.2-.4 2.9.4.7.6 3.6 2.6 7.8 5.2l-.5-10.4c-.1-1.2.9-2.2 2-2.2 1.2-.1 2.2.9 2.2 2l.6 13.4c4.5 2.8 9.8 6.1 15 9.3v-32.6c0-1.2 1-2.1 2.1-2.1 1.2 0 2.1 1 2.1 2.1V-89l14.5-8.8c.2-9.5.5-14.7.9-15.6.5-1.1 1.8-1.5 2.9-1 1 .5 1.5 1.6 1.1 2.7-.2 1-.4 5.3-.5 11.3l10.6-6.4c1-.6 2.3-.3 3 .7.6 1 .3 2.3-.7 3l-12.9 7.8c-.1 5.5-.2 11.9-.2 18l29-17c1-.6 2.3-.3 2.9.8.6 1 .3 2.3-.8 2.9l-27.1 15.9 13.6 7.1c8-4.4 12.5-6.7 13.5-6.8 1.2-.1 2.2.8 2.3 2 .1 1.1-.7 2.1-1.8 2.3-.9.3-4.6 2.2-9.5 5l10.4 5.5c1.1.4 1.5 1.7 1 2.8zM255.6-84v17.5l14.4-8.4c-.1-.2-.1-.5-.1-.7 0-6.5.1-12.2.1-17.1L255.6-84zm-18.3 9.7l13.9 7.9V-84c-5.7-3.5-10.7-6.5-14.8-9.1l.9 18.8zM236.1-55l13.1-7.7-14.2-8.1c-5.2 3-9.8 5.7-13.8 7.9l14.9 7.9zm15.2 12v-15.9l-12.6 7.4c0 6.2-.1 11.6-.1 16.3l12.7-7.8zm20-7.1L255.6-59v14.1c.2.1.4.1.6.2 6.2 3.7 11.4 7 15.8 9.7l-.7-15.1zm16-15l-13.5-7.1-16.1 9.5 13.4 7.6c.1-.5.5-1 1-1.3 5.9-3.4 10.9-6.3 15.2-8.7zM390.7-310.5c-.7-.6-1.8-.6-2.4.1-.6.7-.6 1.8.1 2.4l9.2 8.3h-10c-.9 0-1.7.8-1.7 1.7 0 .9.8 1.7 1.7 1.7h10.1l-9.4 8.6c-.7.6-.7 1.7-.1 2.4.3.4.8.5 1.3.5.4 0 .8-.1 1.1-.4l7.7-7V-303.7l-7.6-6.8z"/><g><path class="st1" d="M247.5-246.3l-13.7-3.9 11-6.4c1-.6 1.3-1.8.7-2.8-.6-1-1.8-1.3-2.8-.7l-11.1 6.4 3.4-13.8c.3-1.1-.4-2.2-1.5-2.5-1.1-.3-2.2.4-2.5 1.5l-4.4 17.6-9 5.2 1.5-6.2c.3-1.1-.4-2.2-1.5-2.5-1.1-.3-2.2.4-2.5 1.5l-2.5 10-15.6 9v-18l7.4-7.2c.8-.8.8-2.1.1-2.9-.8-.8-2.1-.8-2.9-.1l-4.6 4.4V-268l13.1-12.6c.8-.8.8-2.1.1-2.9-.8-.8-2.1-.8-2.9-.1l-10.2 9.9v-12.8c0-1.1-.9-2-2-2s-2 .9-2 2v12.8l-10.2-9.9c-.8-.8-2.1-.8-2.9.1-.8.8-.8 2.1.1 2.9l13.1 12.6v10.4l-4.6-4.4c-.8-.8-2.1-.8-2.9.1-.8.8-.8 2.1.1 2.9l7.4 7.2v17.8l-15-9.6-2-10.1c-.2-1.1-1.3-1.8-2.4-1.6-1.1.2-1.8 1.3-1.6 2.4l1.2 6.3-8.8-5.6-3.5-17.8c-.2-1.1-1.3-1.8-2.4-1.6-1.1.2-1.8 1.3-1.6 2.4l2.8 13.9-10.7-6.9c-.9-.6-2.2-.3-2.8.6-.6.9-.3 2.2.6 2.8l10.7 6.9-13.8 3.3c-1.1.3-1.8 1.4-1.5 2.4.2.9 1.1 1.6 2 1.6.2 0 .3 0 .5-.1l17.6-4.2 8.8 5.6-6.2 1.5c-1.1.3-1.8 1.4-1.5 2.4.2.9 1.1 1.6 2 1.6.2 0 .3 0 .5-.1l10-2.4 15.3 9.8-14.3 8.2-9.9-2.9c-1.1-.3-2.2.3-2.5 1.4-.3 1.1.3 2.2 1.4 2.5l6.2 1.8-9 5.2-17.4-5c-1.1-.3-2.2.3-2.5 1.4-.3 1.1.3 2.2 1.4 2.5l13.7 3.9-12.5 7.2c-1 .6-1.3 1.8-.7 2.8.4.7 1.1 1 1.8 1 .3 0 .7-.1 1-.3l12.5-7.2-3.4 13.8c-.3 1.1.4 2.2 1.5 2.5.2 0 .3.1.5.1.9 0 1.7-.6 2-1.5l4.4-17.6 9-5.2-1.5 6.2c-.3 1.1.4 2.2 1.5 2.5.2 0 .3.1.5.1.9 0 1.7-.6 2-1.5l2.5-10 14.1-8.1v16.3l-7.4 7.2c-.8.8-.8 2.1-.1 2.9.4.4.9.6 1.5.6.5 0 1-.2 1.4-.6l4.6-4.4v10.4L180.3-182c-.8.8-.8 2.1-.1 2.9.8.8 2.1.8 2.9.1l10.2-9.9v14.5c0 1.1.9 2 2 2s2-.9 2-2v-14.5l10.2 9.9c.4.4.9.6 1.4.6.5 0 1.1-.2 1.5-.6.8-.8.8-2.1-.1-2.9l-13.1-12.6V-205l4.6 4.4c.8.8 2.1.8 2.9-.1.8-.8.8-2.1-.1-2.9l-7.4-7.2v-16.1l13.5 8.7 2 10.1c.2 1 1 1.6 2 1.6h.4c1.1-.2 1.8-1.3 1.6-2.4l2.5-3.9 5 3.2 3.5 17.8c.2 1 1 1.6 2 1.6h.4c1.1-.2 1.8-1.3 1.6-2.4l-2.8-13.9 12.2 7.8c.3.2.7.3 1.1.3.7 0 1.3-.3 1.7-.9.6-.9.3-2.2-.6-2.8l-12.2-7.8 13.8-3.3c1.1-.3 1.8-1.4 1.5-2.4-.3-1.1-1.4-1.8-2.4-1.5l-17.6 4.2-5-3.2 2.5-3.9c1.1-.3 1.8-1.4 1.5-2.4-.3-1.1-1.4-1.8-2.4-1.5l-10 2.4-13.9-8.9 15.7-9.1 9.9 2.9c.2.1.4.1.6.1.9 0 1.7-.6 2-1.5.3-1.1-.3-2.2-1.4-2.5l-6.2-1.8 9-5.2 17.4 5c.2.1.4.1.6.1.9 0 1.7-.6 2-1.5.5-1-.2-2.1-1.2-2.4zM398.3-480.9v2.1l-1.1-.1-8.4 11.2 9.5 1.1v3.5l-10-1.1 5 11.3c.4-.3.8-.4 1.3-.4 1.3.2 2.5.3 3.7.4v3.5c-1-.1-2.1-.2-3.1-.4l-.3.4 3.4 7.8v8.6l-5.7-13-7 10.3c2.4 6.3 3.6 9.8 3.5 10.6-.1.9-.9 1.7-1.8 1.6-.9 0-1.6-.8-1.6-1.6-.1-.7-1.1-3.4-2.5-7.1l-4.7 6.9c-.5.8-1.6 1-2.4.5h-.1c-.7-.5-.9-1.6-.4-2.3l6-8.9c-1.7-4.4-3.7-9.6-5.7-14.6l-17.3 23.2c-.6.8-1.6.9-2.4.3-.8-.6-.9-1.6-.3-2.4l16.4-21.9-12-1.2c-4.7 6-7.4 9.2-8.1 9.5-.6.3-1.3.2-1.8-.1-.2-.1-.4-.3-.5-.6-.4-.8-.2-1.8.6-2.2.6-.5 2.8-3.2 5.7-7l-9.8-1c-.3 0-.6-.2-.9-.3-.5-.3-.7-.9-.7-1.5.1-.9.9-1.6 1.9-1.5l12 1.2c2.5-3.2 5.2-6.8 8-10.4l-28.2-3.1c-.3 0-.6-.2-.8-.3-.5-.4-.8-.9-.7-1.6.1-.9 1-1.6 1.9-1.5l27.8 3.1-5.2-10.9h3.8l5.4 11.3 12 1.3-5.3-12c-1.9-.2-3.7-.4-5.4-.6h8.8l4.9 11.3 8.4-11.3h4.2zm-23.6 26.3l7.6-10.2-11.7-1.3c-3 4-5.6 7.4-7.9 10.4l12 1.1zm10.5-8.2l-6.8 9.1c.1.1.2.3.3.4 2.2 5.4 4 10 5.5 13.8l6.8-10.1-5.8-13.2zM4.8-421.6c.5.4 1.1.5 1.7.2.9-.4 1.3-1.4.9-2.3l-7.4-17v8.6l4.3 9.8c.1.3.3.5.5.7zM34-462.7l-26.8-3c3-3.9 6-7.9 8.7-11.4l12 1.2c.9.1 1.8-.6 1.9-1.5.1-.9-.6-1.8-1.5-1.9l-9.8-1c.1-.2.3-.4.4-.6h-4.4c0 .1-.1.1-.1.2l-1.7-.2H0v2.2l11.9 1.2c-2.4 3.1-5.1 6.7-8.3 10.9-.1.2-.2.3-.3.5l-3.3-.4v3.5l4.6.5 5.3 11c-2.9-.4-6.2-.8-9.8-1.2v3.5c4 .5 8 1 11.6 1.5l5 10.5c.1.3.3.5.5.6.5.4 1.2.5 1.8.2.9-.4 1.2-1.4.8-2.3l-4.1-8.5c4.5.6 7.7 1.1 8.5 1.4.8.4 1.8.1 2.2-.6.5-.8.3-1.9-.6-2.4-.7-.4-4.7-1.1-11.9-2.1L8.6-462l25 2.8c.9.1 1.8-.6 1.9-1.5.1-1-.6-1.9-1.5-2zM391.6-16.9l6-8.9c.5-.8.3-1.9-.5-2.4s-1.9-.3-2.4.5l-4.7 6.9c-1.4-3.7-2.3-6.4-2.5-7.1 0-.9-.7-1.6-1.6-1.6-.9-.1-1.8.7-1.8 1.6 0 .7 1.2 4.3 3.5 10.6L379-4.7l-10.9-25c-.4-.9-1.4-1.3-2.3-.9-.9.4-1.3 1.4-.9 2.3l10.9 24.8c-4.4-.5-8.9-1.1-12.8-1.6l-5-10.5c-.4-.9-1.4-1.2-2.3-.8-.9.4-1.2 1.4-.8 2.3l4.1 8.5c-4.5-.6-7.7-1.1-8.5-1.4-.8-.4-1.8-.1-2.2.6-.5.8-.3 1.8.4 2.3l.1.1c.7.4 4.7 1.1 11.9 2.1l.9 1.9h3.8l-.7-1.4c3.5.4 7.3.9 11.6 1.4h4.9l-.4-1 8.4-12.4c1.4 3.6 3.1 8 5.1 12.9l-.3.5h4.3v-5.7l-1.5 2c-1.8-4.6-3.7-9.2-5.2-13.2zM22.5-9.9c-.7.4-3.4 3.6-8.1 9.5L.9-1.6l15.6-20.9c.6-.8.4-1.8-.3-2.4-.8-.6-1.8-.4-2.4.3L0-6.2V0H18.6c2.9-3.7 5.1-6.4 5.7-6.9.7-.5 1-1.5.6-2.2-.5-.9-1.6-1.2-2.4-.8z"/></g><g><path class="st1" d="M112.1-219.5l-5.4-3 5.2-3.5c.7-.5.9-1.4.4-2.1-.5-.7-1.4-.9-2.1-.4l-4.9 3.3v-5.9c0-.8-.7-1.5-1.5-1.5s-1.5.7-1.5 1.5v6.1l-5.3-3c-.7-.4-1.6-.1-2 .6-.4.7-.1 1.6.6 2l5.4 3-5.2 3.5c-.7.5-.9 1.4-.4 2.1.3.4.8.7 1.2.7.3 0 .6-.1.8-.3l4.9-3.3v5.9c0 .8.7 1.5 1.5 1.5s1.5-.7 1.5-1.5v-6.1l5.3 3c.2.1.5.2.7.2.5 0 1-.3 1.3-.8.5-.7.3-1.6-.5-2zM297-430.2l-5.4-3 5.2-3.5c.7-.5.9-1.4.4-2.1-.5-.7-1.4-.9-2.1-.4l-4.9 3.3v-5.9c0-.8-.7-1.5-1.5-1.5s-1.5.7-1.5 1.5v6.1l-5.3-3c-.7-.4-1.6-.1-2 .6-.4.7-.1 1.6.6 2l5.4 3-5.2 3.5c-.7.5-.9 1.4-.4 2.1.3.4.8.7 1.2.7.3 0 .6-.1.8-.3l4.9-3.3v5.9c0 .8.7 1.5 1.5 1.5s1.5-.7 1.5-1.5v-6.1l5.3 3c.2.1.5.2.7.2.5 0 1-.3 1.3-.8.5-.7.2-1.6-.5-2zM140.7-19.8l-5.4-3 5.2-3.5c.7-.5.9-1.4.4-2.1-.5-.7-1.4-.9-2.1-.4l-4.9 3.3v-5.9c0-.8-.7-1.5-1.5-1.5s-1.5.7-1.5 1.5v6.1l-5.3-3c-.7-.4-1.6-.1-2 .6-.4.7-.1 1.6.6 2l5.4 3-5.2 3.5c-.7.5-.9 1.4-.4 2.1.3.4.8.7 1.2.7.3 0 .6-.1.8-.3l4.9-3.3v5.9c0 .8.7 1.5 1.5 1.5s1.5-.7 1.5-1.5v-6.1l5.3 3c.2.1.5.2.7.2.5 0 1-.3 1.3-.8.5-.7.2-1.6-.5-2zM314.8-252.6l-5.4-3 5.2-3.5c.7-.5.9-1.4.4-2.1-.5-.7-1.4-.9-2.1-.4l-4.9 3.3v-5.9c0-.8-.7-1.5-1.5-1.5s-1.5.7-1.5 1.5v6.1l-5.3-3c-.7-.4-1.6-.1-2 .6-.4.7-.1 1.6.6 2l5.4 3-5.2 3.5c-.7.5-.9 1.4-.4 2.1.3.4.8.7 1.2.7.3 0 .6-.1.8-.3l4.9-3.3v5.9c0 .8.7 1.5 1.5 1.5s1.5-.7 1.5-1.5v-6.1l5.3 3c.2.1.5.2.7.2.5 0 1-.3 1.3-.8.5-.7.2-1.6-.5-2zM376.1-71.5l-5.4-3 5.2-3.5c.7-.5.9-1.4.4-2.1-.5-.7-1.4-.9-2.1-.4l-4.9 3.3v-5.9c0-.8-.7-1.5-1.5-1.5s-1.5.7-1.5 1.5v6.1l-5.3-3c-.7-.4-1.6-.1-2 .6-.4.7-.1 1.6.6 2l5.4 3-5.2 3.5c-.7.5-.9 1.4-.4 2.1.3.4.8.7 1.2.7.3 0 .6-.1.8-.3l4.9-3.3v5.9c0 .8.7 1.5 1.5 1.5s1.5-.7 1.5-1.5v-6.1l5.3 3c.2.1.5.2.7.2.5 0 1-.3 1.3-.8.5-.7.2-1.6-.5-2zM59.9-387.3l-2.6-1.5 2.5-1.7c.3-.2.4-.7.2-1-.2-.3-.7-.4-1-.2l-2.3 1.6v-2.8c0-.4-.3-.7-.7-.7-.4 0-.7.3-.7.7v2.9l-2.6-1.4c-.3-.2-.8-.1-1 .3-.2.3-.1.8.3 1l2.6 1.5-2.5 1.7c-.3.2-.4.7-.2 1 .1.2.4.3.6.3.1 0 .3 0 .4-.1l2.3-1.6v2.8c0 .4.3.7.7.7.4 0 .7-.3.7-.7v-2.9l2.6 1.4c.1.1.2.1.3.1.3 0 .5-.1.6-.4.3-.3.1-.8-.2-1zM368-365.4l2.6 1.5-2.5 1.7c-.3.2-.4.7-.2 1 .1.2.4.3.6.3.1 0 .3 0 .4-.1l2.3-1.6v2.8c0 .4.3.7.7.7.4 0 .7-.3.7-.7v-2.9l2.6 1.4c.1.1.2.1.3.1.3 0 .5-.1.6-.4.2-.3.1-.8-.3-1l-2.6-1.5 2.5-1.7c.3-.2.4-.7.2-1-.2-.3-.7-.4-1-.2l-2.3 1.6v-2.8c0-.4-.3-.7-.7-.7-.4 0-.7.3-.7.7v2.9l-2.6-1.4c-.3-.2-.8-.1-1 .3-.1.3 0 .8.4 1zM227.4-325.9l-2.6-1.5 2.5-1.7c.3-.2.4-.7.2-1-.2-.3-.7-.4-1-.2l-2.3 1.6v-2.8c0-.4-.3-.7-.7-.7s-.7.3-.7.7v2.9l-2.6-1.4c-.3-.2-.8-.1-1 .3-.2.3-.1.8.3 1l2.6 1.5-2.5 1.7c-.3.2-.4.7-.2 1 .1.2.4.3.6.3.1 0 .3 0 .4-.1l2.3-1.6v2.8c0 .4.3.7.7.7s.7-.3.7-.7v-2.9l2.6 1.4c.1.1.2.1.3.1.3 0 .5-.1.6-.4.3-.4.2-.9-.2-1zM23.9-207.5l-2.6-1.5 2.5-1.7c.3-.2.4-.7.2-1-.2-.3-.7-.4-1-.2l-2.3 1.6v-2.8c0-.4-.3-.7-.7-.7-.4 0-.7.3-.7.7v2.9l-2.6-1.4c-.3-.2-.8-.1-1 .3-.2.3-.1.8.3 1l2.6 1.5-2.5 1.7c-.3.2-.4.7-.2 1 .1.2.4.3.6.3.1 0 .3 0 .4-.1l2.3-1.6v2.8c0 .4.3.7.7.7.4 0 .7-.3.7-.7v-2.9l2.6 1.4c.1.1.2.1.3.1.3 0 .5-.1.6-.4.2-.4.1-.8-.2-1zM186.5-122.3l-2.6-1.5 2.5-1.7c.3-.2.4-.7.2-1-.2-.3-.7-.4-1-.2l-2.3 1.6v-2.8c0-.4-.3-.7-.7-.7-.4 0-.7.3-.7.7v2.9l-2.6-1.4c-.3-.2-.8-.1-1 .3-.2.3-.1.8.3 1l2.6 1.5-2.5 1.7c-.3.2-.4.7-.2 1 .1.2.4.3.6.3.1 0 .3 0 .4-.1l2.3-1.6v2.8c0 .4.3.7.7.7.4 0 .7-.3.7-.7v-2.9l2.6 1.4c.1.1.2.1.3.1.3 0 .5-.1.6-.4.2-.4.1-.8-.2-1z"/></g></pattern><path class="st2" d="M1.8 0H800v800H1.8z"/></svg>