<svg id="Layer_1" xmlns="http://www.w3.org/2000/svg" xmlns:xlink="http://www.w3.org/1999/xlink" viewBox="0 0 457 286"><style>.st0{fill:#fff}.st1{fill:url(#XMLID_2_)}.st2{clip-path:url(#SVGID_2_)}.st3{fill:none}.st4{opacity:.66;fill:#4b4b4b;enable-background:new}.st5{clip-path:url(#SVGID_4_)}.st6{fill:url(#SVGID_5_)}</style><path class="st0" d="M227 280.1c-1.5 0-2.9-.4-4.2-1.1l-13.3-7.9c-2-1.1-1-1.5-.4-1.7 2.7-.9 3.2-1.1 6-2.7.3-.2.7-.1 1 .1l10.2 6.1c.4.2.9.2 1.2 0l40-23.1c.4-.2.6-.6.6-1.1v-46.1c0-.5-.2-.9-.6-1.1l-39.9-23c-.4-.2-.9-.2-1.2 0l-39.9 23c-.4.2-.6.7-.6 1.1v46.1c0 .4.2.9.6 1.1l10.9 6.3c5.9 3 9.6-.5 9.6-4v-45.5c0-.6.5-1.2 1.2-1.2h5.1c.6 0 1.2.5 1.2 1.2v45.5c0 7.9-4.3 12.5-11.8 12.5-2.3 0-4.1 0-9.2-2.5l-10.5-6a8.44 8.44 0 0 1-4.2-7.3v-46.1c0-3 1.6-5.8 4.2-7.3l39.9-23.1c2.5-1.4 5.9-1.4 8.4 0l39.9 23.1c2.6 1.5 4.2 4.3 4.2 7.3v46.1c0 3-1.6 5.8-4.2 7.3l-39.9 23.1c-1.4.5-2.9.9-4.3.9z"/><path class="st0" d="M239.3 248.3c-17.5 0-21.1-8-21.1-14.8 0-.6.5-1.2 1.2-1.2h5.2c.6 0 1.1.4 1.1 1 .8 5.3 3.1 7.9 13.7 7.9 8.4 0 12-1.9 12-6.4 0-2.6-1-4.5-14.1-5.8-10.9-1.1-17.7-3.5-17.7-12.2 0-8.1 6.8-12.9 18.2-12.9 12.8 0 19.1 4.4 19.9 14 0 .3-.1.6-.3.9-.2.2-.5.4-.8.4h-5.2c-.5 0-1-.4-1.1-.9-1.2-5.5-4.3-7.3-12.5-7.3-9.2 0-10.3 3.2-10.3 5.6 0 2.9 1.3 3.8 13.7 5.4 12.3 1.6 18.1 3.9 18.1 12.5-.1 8.8-7.3 13.8-20 13.8zM296.9 199.9c0 4.2-3.5 7.7-7.7 7.7s-7.7-3.4-7.7-7.7c0-4.4 3.6-7.7 7.7-7.7 4.2 0 7.7 3.4 7.7 7.7zm-14.2 0c0 3.6 2.9 6.5 6.4 6.5 3.6 0 6.5-3 6.5-6.5 0-3.6-2.9-6.4-6.5-6.4-3.4 0-6.4 2.8-6.4 6.4zm3.6-4.3h3c1 0 3 0 3 2.3 0 1.6-1 1.9-1.6 2.1 1.2.1 1.3.9 1.4 2 .1.7.2 1.9.4 2.3h-1.8c0-.4-.3-2.6-.3-2.7-.1-.5-.3-.7-.9-.7H288v3.5h-1.7v-8.8zm1.6 3.8h1.3c1.1 0 1.3-.8 1.3-1.2 0-1.2-.8-1.2-1.3-1.2h-1.4l.1 2.4zM103.2 99.7c0-1.8-1-3.5-2.6-4.4L58.3 70.9c-.7-.4-1.5-.6-2.3-.7h-.4c-.8 0-1.6.3-2.3.7L10.9 95.2c-1.6.9-2.6 2.6-2.6 4.4l.1 65.6c0 .9.5 1.8 1.3 2.2.8.5 1.8.5 2.5 0L37.4 153c1.6-.9 2.6-2.6 2.6-4.4V118c0-1.8 1-3.5 2.6-4.4l10.7-6.2c.8-.5 1.7-.7 2.6-.7.9 0 1.8.2 2.5.7l10.7 6.2c1.6.9 2.6 2.6 2.6 4.4v30.7c0 1.8 1 3.5 2.6 4.4l25.2 14.4c.8.5 1.8.5 2.6 0 .8-.4 1.3-1.3 1.3-2.2l-.2-65.6zM307 9.5c-.8-.4-1.8-.4-2.5 0-.8.5-1.3 1.3-1.3 2.2v65c0 .6-.3 1.2-.9 1.6-.6.3-1.2.3-1.8 0l-10.6-6.1c-1.6-.9-3.5-.9-5.1 0l-42.4 24.5c-1.6.9-2.6 2.6-2.6 4.4V150c0 1.8 1 3.5 2.6 4.4l42.4 24.5c1.6.9 3.5.9 5.1 0l42.4-24.5c1.6-.9 2.6-2.6 2.6-4.4V28c0-1.9-1-3.6-2.6-4.5L307 9.5zm-3.9 124.4c0 .5-.2.9-.6 1.1l-14.5 8.4c-.4.2-.9.2-1.3 0l-14.5-8.4c-.4-.2-.6-.6-.6-1.1v-16.8c0-.5.2-.9.6-1.1l14.5-8.4c.4-.2.9-.2 1.3 0l14.5 8.4c.4.2.6.7.6 1.1v16.8zM448.1 116.6c1.6-.9 2.5-2.6 2.5-4.4v-11.9c0-1.8-1-3.5-2.5-4.4L406 71.5c-1.6-.9-3.5-.9-5.1 0L358.5 96c-1.6.9-2.6 2.6-2.6 4.4v48.9c0 1.8 1 3.5 2.6 4.4l42.1 24c1.6.9 3.5.9 5 0l25.5-14.2c.8-.4 1.3-1.3 1.3-2.2 0-.9-.5-1.8-1.3-2.2l-42.6-24.5c-.8-.5-1.3-1.3-1.3-2.2v-15.3c0-.9.5-1.8 1.3-2.2l13.3-7.6c.8-.5 1.8-.5 2.6 0l13.3 7.6c.8.5 1.3 1.3 1.3 2.2v12.1c0 .9.5 1.8 1.3 2.2.8.5 1.8.5 2.6 0l25.2-14.8z"/><path class="st0" d="M402.8 114.3c.3-.2.7-.2 1 0l8.1 4.7c.3.2.5.5.5.9v9.4c0 .4-.2.7-.5.9l-8.1 4.7c-.3.2-.7.2-1 0l-8.1-4.7c-.3-.2-.5-.5-.5-.9v-9.4c0-.4.2-.7.5-.9l8.1-4.7z"/><g><linearGradient id="XMLID_2_" gradientUnits="userSpaceOnUse" x1="124.196" y1="588.803" x2="218.4" y2="588.803" gradientTransform="translate(0 -463.89)"><stop offset=".005" stop-color="#fff"/><stop offset=".194" stop-color="#e8e8e8"/><stop offset=".542" stop-color="#c2c2c2"/><stop offset=".824" stop-color="#ababab"/><stop offset="1" stop-color="#a3a3a3"/></linearGradient><path id="XMLID_67_" class="st1" d="M168.8 72c1.6-.9 3.5-.9 5.1 0l42 24.3c1.6.9 2.5 2.6 2.5 4.4v48.5c0 1.8-1 3.5-2.5 4.4l-42 24.3c-1.6.9-3.5.9-5.1 0l-42-24.3c-1.6-.9-2.5-2.6-2.5-4.4v-48.5c0-1.8 1-3.5 2.5-4.4l42-24.3z"/><defs><path id="SVGID_1_" d="M173.8 72c-1.6-.9-3.5-.9-5.1 0l-42 24.3c-1.6.9-2.5 2.6-2.5 4.4v48.5c0 1.8 1 3.5 2.5 4.4l42 24.3c1.6.9 3.5.9 5.1 0l42-24.3c1.6-.9 2.5-2.6 2.5-4.4v-48.5c0-1.8-1-3.5-2.5-4.4l-42-24.3z"/></defs><clipPath id="SVGID_2_"><use xlink:href="#SVGID_1_" overflow="visible"/></clipPath><g class="st2"><path class="st3" d="M168.7 72l-42.1 24.3c-1.6.9-2.6 2.6-2.6 4.4v48.5c0 1.2.4 2.3 1.2 3.2l47.3-80.9c-1.3-.4-2.6-.2-3.8.5zM172.7 178.3c.3-.1.7-.2 1-.4l41.9-24.3c1.6-.9 2.3-2.6 2.3-4.4v-48.5c0-1.2-.4-2.4-1.1-3.3l-44.1 80.9z"/><path class="st4" d="M215.6 96.2L173.8 72c-.4-.2-.9-.4-1.3-.5l-47.3 80.9c.4.5.9.9 1.4 1.2l42.1 24.3c1.3.7 2.7.9 4 .4l44.2-80.9c-.3-.5-.7-.9-1.3-1.2z"/></g><g><defs><path id="SVGID_3_" d="M173.8 72c-1.6-.9-3.5-.9-5.1 0l-42 24.3c-1.6.9-2.5 2.6-2.5 4.4v48.5c0 1.8 1 3.5 2.5 4.4l42 24.3c1.6.9 3.5.9 5.1 0l42-24.3c1.6-.9 2.5-2.6 2.5-4.4v-48.5c0-1.8-1-3.5-2.5-4.4l-42-24.3z"/></defs><clipPath id="SVGID_4_"><use xlink:href="#SVGID_3_" overflow="visible"/></clipPath><g class="st5"><path class="st3" d="M127.1 96l-.5.3c-1.6.9-2.6 2.6-2.6 4.4v48.5c0 1.8 1 3.5 2.6 4.4l42.1 24.3c1.1.7 2.4.8 3.7.5L127.1 96zM218 100.6c0-1.8-.8-3.5-2.4-4.4L173.8 72c-.4-.2-.8-.4-1.2-.5L218 149v-48.4z"/><linearGradient id="SVGID_5_" gradientUnits="userSpaceOnUse" x1="123.545" y1="588.735" x2="220.723" y2="588.735" gradientTransform="translate(0 -463.89)"><stop offset="0" stop-color="#a3a3a3"/><stop offset=".176" stop-color="#ababab"/><stop offset=".458" stop-color="#c2c2c2"/><stop offset=".806" stop-color="#e8e8e8"/><stop offset=".995" stop-color="#fff"/></linearGradient><path class="st6" d="M173.7 177.8l41.9-24.3c1.6-.9 2.3-2.6 2.3-4.4v-.1l-45.4-77.5c-1.3-.4-2.7-.2-3.9.5L127 96l45.2 82.4c.6-.1 1.1-.3 1.5-.6z"/></g></g></g></svg>