<svg id="Layer_1" xmlns="http://www.w3.org/2000/svg" viewBox="0 0 53.8 53.8"><style>.st0{fill:#fff}</style><path class="st0" d="M27.1 35.9c.6-.4 1.2-.7 1.8-1.1.4.6.5 1.3.5 2 0 .5-.1 1.1-.3 1.7-.2.5-.4.9-.8 1.3-.7.8-1.7 1.3-2.6 1.4h-.6c-.2-.1-.4-.1-.5-.2l-.2-.2c-.1-.1-.1-.3-.1-.5V40v-.3c0-.2.1-.4.1-.6.1-.4.4-.8.7-1.2.6-.7 1.3-1.5 2-2z"/><path class="st0" d="M26.9.5C12.3.5.5 12.3.5 26.9c0 14.6 11.8 26.4 26.4 26.4 14.6 0 26.4-11.8 26.4-26.4C53.3 12.3 41.5.5 26.9.5zm12.7 19.3c-1.5 2.4-3.9 4.2-6.6 5-2.4.7-5.6 1-7.6 0-.2-.1-2.4-1.6-2.2-1.9.3-.5 1.2.4 2.2.9 2.1.9 5.5 0 8.1-1.2 2.3-1 4.9-3.2 5-5.9 0-.9-.4-1.8-1.1-2.3-1.2-.9-2.7-1.1-4.2-1.1-1.1 0-2.1.1-3.2.3-.7.2-1.5.4-2.2.6-2.5.9-5.1 2.1-7.2 3.8-.5.4-.9.8-1.3 1.2-1.3 1.3-3 3.2-2.9 5.2.1 1.6 1.4 3 2.5 4.1 1.3 1.2 2.8 2.4 4.1 3.9.1.1.2.2.3.4 0 .1 1.6-.5 1.8-.5.7-.1 1.3-.2 2-.1.7 0 1.5.1 2.3.4 1.3.4 2.5 1.2 3.2 2.4.9 1.5.7 3.7-.9 4.7-.8.5-1 .3-1.1.1-.1-.2.6-.5.7-.6.3-.2.4-.6.6-.9.3-.7.3-1.6-.1-2.3-.2-.3-.4-.6-.6-.8-.4-.3-.7-.6-1.1-.8-1.5-.8-3.6-.7-5.1-.2-.2 0-.4.1-.6.2.2.3.3.7.5 1.1.3 1.1.4 2.3.1 3.3-.1.5-.3 1-.5 1.5-.3.5-.5 1-.9 1.4-.7.8-1.5 1.4-2.4 1.9-.9.4-1.9.8-2.9.8-.5 0-1.1-.1-1.6-.3-.5-.1-1.1-.5-1.5-1-.4-.5-.6-1.1-.7-1.6 0-.3 0-.5-.1-.8 0-.3 0-.5.1-.8.2-1 .8-1.8 1.3-2.4.5-.7 1.1-1.2 1.7-1.7.3-.2.6-.5 1-.7.3-.2.7-.4 1-.5.4-.2.8-.3 1.2-.5-1-1-2.3-2-3.6-3.3-.7-.6-1.4-1.4-2-2.3-.6-.9-1.1-2-1.3-3.2-.2-1.3 0-2.5.4-3.5.7-1.8 1.8-3.4 3.2-4.7 1.1-1 2.4-1.9 3.6-2.7 1.3-.9 2.7-1.7 4.3-2.3.6-.2 1.3-.4 2-.6 2.4-.6 4.9-.7 7.4-.5 2.1.2 4.5.9 5.9 2.7.4.6.6 1.2.8 1.8-.4 1.2-.9 2.9-1.8 4.3z"/></svg>