<svg id="Layer_1" xmlns="http://www.w3.org/2000/svg" viewBox="0 0 512 512"><style>.st0{fill:#269af2}.st1{fill:#e6e2e0}.st2{fill:#5cb3f5}</style><path class="st0" d="M356 326.7c-1.7 0-3.4-.4-5-1.1-5.8-2.8-8.2-9.7-5.4-15.5L463.2 64.9c2.8-5.8 9.7-8.2 15.5-5.4 5.8 2.8 8.2 9.7 5.4 15.5L366.5 320.1c-2 4.1-6.2 6.6-10.5 6.6z"/><path class="st0" d="M358 322.5c-2.1 0-4.1-.5-6-1.7l-114.1-69.6c-5.5-3.3-7.2-10.5-3.9-15.9 3.3-5.5 10.5-7.2 15.9-3.9L364.1 301c5.5 3.3 7.2 10.5 3.9 15.9-2.2 3.6-6.1 5.6-10 5.6z"/><path class="st0" d="M128.5 392.9c-2.6 0-5.2-.9-7.4-2.6-4.9-4.1-5.6-11.4-1.6-16.3l115.4-140c4.1-4.9 11.4-5.6 16.3-1.6 4.9 4.1 5.6 11.4 1.6 16.3l-115.4 140c-2.2 2.7-5.5 4.2-8.9 4.2z"/><g><path class="st1" d="M55.6 512c-6.4 0-11.6-5.2-11.6-11.6V11.6C44 5.2 49.2 0 55.6 0s11.6 5.2 11.6 11.6v488.8c0 6.4-5.2 11.6-11.6 11.6z"/><path class="st1" d="M500.4 468H11.6C5.2 468 0 462.8 0 456.4s5.2-11.6 11.6-11.6h488.8c6.4 0 11.6 5.2 11.6 11.6s-5.2 11.6-11.6 11.6z"/></g><g><circle class="st2" cx="243.9" cy="241.3" r="29"/><circle class="st2" cx="129.8" cy="382.2" r="29"/><circle class="st2" cx="358" cy="310.9" r="29"/><circle class="st2" cx="472.2" cy="74.3" r="29"/></g></svg>