<svg xmlns="http://www.w3.org/2000/svg" viewBox="0 0 512.001 512.001" width="512" height="512"><path d="M424.569 148.582c-7.12-15.664-15.64-30.37-25.328-43.711a7.94 7.94 0 0 0-11.087-1.759 7.937 7.937 0 0 0-1.76 11.087c9.062 12.48 17.044 26.259 23.722 40.953a7.937 7.937 0 0 0 10.511 3.941 7.938 7.938 0 0 0 3.942-10.511zM441.222 196.502a286.99 286.99 0 0 0-7.865-26.122 7.942 7.942 0 0 0-10.133-4.829 7.936 7.936 0 0 0-4.83 10.133 271.192 271.192 0 0 1 7.429 24.671 7.94 7.94 0 0 0 7.694 6.013c.637 0 1.286-.077 1.932-.24a7.936 7.936 0 0 0 5.773-9.626z" fill="#FFF"/><path d="M429.237 97.156C384.84 52.759 326.402 27.516 263.938 25.54V7.937a7.937 7.937 0 1 0-15.874 0V25.54c-62.465 1.976-120.904 27.219-165.3 71.616-46.274 46.273-71.757 107.796-71.757 173.237a7.936 7.936 0 0 0 7.937 7.937h1.975a7.936 7.936 0 0 0 7.607-5.672c4.941-16.599 20.498-28.193 37.83-28.193 17.332 0 32.888 11.594 37.831 28.193a7.936 7.936 0 0 0 7.607 5.672h3.948c.073 0 .143-.016.216-.018.116.005.232.018.349.018h1.164a7.937 7.937 0 0 0 7.937-7.937c0-.819-.13-1.606-.361-2.35a39.47 39.47 0 0 1 36.131-23.578c15.775 0 29.776 9.213 36.093 23.57-.002.785-.005 1.569-.005 2.358a7.936 7.936 0 0 0 7.937 7.937h.423c.206 0 .409-.015.611-.031.127.006.25.031.378.031h3.95a7.937 7.937 0 0 0 7.607-5.672c4.173-14.013 15.909-24.458 29.892-27.373v215.601c0 .819.125 1.61.355 2.353 3.074 27.395 26.368 48.763 54.571 48.763 30.285 0 54.924-24.639 54.924-54.925a7.936 7.936 0 0 0-7.937-7.937 7.936 7.936 0 0 0-7.937 7.937c0 21.533-17.518 39.051-39.05 39.051-21.532 0-39.051-17.519-39.051-39.051V245.284c13.983 2.915 25.721 13.36 29.892 27.373a7.937 7.937 0 0 0 7.608 5.672h3.948c.192 0 .377-.033.566-.047a7.936 7.936 0 0 0 8.783-7.89c0-.788-.003-1.573-.006-2.357 6.317-14.357 20.318-23.57 36.094-23.57 16.468 0 31.154 10.217 36.931 25.544l.003.384a7.936 7.936 0 0 0 7.937 7.937c.119 0 .233-.013.349-.018.073.002.143.018.216.018h3.948a7.94 7.94 0 0 0 7.608-5.672c4.942-16.598 20.498-28.193 37.83-28.193 17.332 0 32.887 11.594 37.83 28.193a7.937 7.937 0 0 0 7.608 5.672h1.974a7.936 7.936 0 0 0 7.937-7.937c-.001-65.441-25.484-126.964-71.758-173.237zM108.952 248.69c-10.328-12.393-25.871-20.1-42.597-20.1-14.367 0-27.866 5.683-37.932 15.142C39.069 152.244 103.832 77.048 189.757 51.05c-14.312 11.857-27.479 27.654-39.005 47.077-24.237 40.844-38.829 93.711-41.8 150.563zm88.671-6.46c-9.855-8.632-22.672-13.639-36.445-13.639-13.476 0-26.1 4.884-35.889 13.218 7.099-98.212 50.254-177.446 105.454-196.268-6.905 12.403-12.966 30.494-18.132 54.229-8.419 38.688-13.635 88.578-14.988 142.46zm58.378-13.64c-16.754 0-32.32 7.731-42.647 20.159 1.073-55.236 6.237-106.405 14.768-145.605C238.774 54.203 251.015 41.272 256 41.272s17.227 12.931 27.878 61.872c8.531 39.201 13.694 90.368 14.767 145.605-10.325-12.428-25.891-20.159-42.644-20.159zm94.822 0c-13.775 0-26.592 5.007-36.445 13.64-1.352-53.882-6.569-103.773-14.989-142.461-5.166-23.735-11.226-41.826-18.132-54.229 55.199 18.823 98.354 98.056 105.454 196.268-9.788-8.334-22.41-13.218-35.888-13.218zm94.823 0c-16.726 0-32.27 7.708-42.597 20.1-2.971-56.852-17.563-109.72-41.8-150.565-11.526-19.424-24.693-35.22-39.005-47.078 85.925 25.998 150.689 101.195 161.335 192.682-10.067-9.456-23.566-15.139-37.933-15.139z" fill="#FFF"/></svg>