<svg id="Слой_1" xmlns="http://www.w3.org/2000/svg" viewBox="0 0 512 512"><style>.st0{fill:#b79a6a}.st1{fill:#fff}</style><path class="st0" d="M290.7 27.5l-18.9-2.7c-1.1-.2-2-.8-2.5-1.8l-8.4-17.1c-1.2-2.5-4.7-2.5-5.9 0L246.5 23c-.5 1-1.4 1.7-2.5 1.8l-18.9 2.7c-2.7.4-3.8 3.7-1.8 5.6L237 46.4c.8.8 1.1 1.9.9 2.9l-3.2 18.8c-.5 2.7 2.4 4.8 4.8 3.5l16.9-8.9c1-.5 2.1-.5 3.1 0l16.9 8.9c2.4 1.3 5.3-.8 4.8-3.5L278 49.3c-.2-1.1.2-2.2.9-2.9l13.7-13.3c1.8-1.9.8-5.2-1.9-5.6zm-18 39.2l-13.3-7c-1-.5-2.1-.5-3.1 0l-13.3 7c-2.4 1.3-5.3-.8-4.8-3.5l2.5-14.8c.2-1.1-.2-2.2-.9-2.9L229.1 35c-2-1.9-.9-5.2 1.8-5.6l14.8-2.2c1.1-.2 2-.8 2.5-1.8l6.6-13.4c1.2-2.5 4.7-2.5 5.9 0l6.6 13.4c.5 1 1.4 1.7 2.5 1.8l14.8 2.2c2.7.4 3.8 3.7 1.8 5.6l-10.7 10.5c-.8.8-1.1 1.9-.9 2.9l2.5 14.8c.6 2.7-2.2 4.8-4.6 3.5z"/><path class="st0" d="M256.4 56.2l-9 4.7c-2.3 1.2-4.9-.7-4.5-3.3l1.7-10c.2-1-.2-2-.9-2.7l-7.3-7.1c-1.8-1.8-.8-4.9 1.7-5.3l10.1-1.5c1-.1 1.9-.8 2.3-1.7l4.5-9.1c1.1-2.3 4.4-2.3 5.5 0l4.5 9.1c.4.9 1.3 1.5 2.3 1.7l10.1 1.5c2.5.4 3.5 3.5 1.7 5.3L272 45c-.7.7-1.1 1.7-.9 2.7l1.7 10c.4 2.5-2.2 4.4-4.5 3.3l-9-4.7c-.9-.5-2-.5-2.9-.1z"/><g><path class="st0" d="M112.7 404.4c12.6-13 26.5-31.9 40.3-52.8-20.3 5.8-41.2-5.2-14.7-34.2 13.2-14.4 28.1-36.8 42.3-60.7-14.2 3.6-27.6-5.4-9.2-27.9 29.5-35.9 71.4-134.9 71.4-134.9 5.9-16.5 25.1-14.4 30.2 0 0 0 45.3 104.5 71.7 134.4 15.1 17.1 4.8 27.7-8 28.3 14.8 24.9 30 47.7 42.3 60.2 23.4 23.7 2.9 37.5-17.5 34.9 14.3 21.6 28.3 40.6 40.1 51.9 44.1 42.4-41.6 57-53 15.3 12.2 44.7-40.6 41.7-50.3-3.8 13.7 59.2-42.2 48.6-42.5-5 .3 53.6-55.4 61.5-45.4 2.6-8.5 50.3-62.6 53.2-50.4 3.2-9.8 41.6-96.4 39.4-47.3-11.5z"/><path class="st0" d="M256.1 418c.1 28.3 15.8 44.7 28.6 45 2.1 20.1 3.6 38.4-3.7 41.3-11.5 4.5-31.7 5.4-43.6.2-9.8-4.2-8.6-22.5-6.7-43.1 12.3-1.9 25.5-17.2 25.4-43.4z"/><g><path class="st1" d="M305.8 376.4c-.1 6.6 5.2 12 11.8 12 6.6.1 12-5.2 12-11.8 0-5.5-3.6-10.1-8.6-11.6v-1.8c0-.4-.4-.6-.9-.7v-.2c0-.3-.2-.5-.5-.5h-.3c0-1-.2-2.9-.8-3.6-.4-.4-1-.4-1.4 0-.7.7-.9 2.6-.9 3.6h-.3c-.3 0-.5.2-.5.5v.2c-.5 0-.9.3-.9.7v1.8c-4.9 1.4-8.7 6-8.7 11.4zm13.1-14.5h-2.1c0-1.1.2-2.7.8-3.3.2-.2.4-.2.6 0 .5.5.7 2.2.7 3.3zm1.4 16.3l-2.5-2 3.2-.8 1.1-3 1.7 2.8 3.2.1-2.1 2.5.9 3.1-3-1.2-2.7 1.8.2-3.3zm-3.8-7.1l.4-1.3-.8-1h1.3l.7-1.1.4 1.3 1.3.3-1.1.8.1 1.3-1.1-.8-1.2.5zm-4.3 12l1.4-.6.2-1.5 1 1.1 1.5-.2-.7 1.3.7 1.4-1.5-.3-1.1 1.1-.2-1.5-1.3-.8zm-1.7-7.6l-1.7-1.7 2.4-.3 1.1-2.1 1 2.2 2.4.4-1.7 1.6.4 2.4-2.1-1.1-2.1 1.1.3-2.5zM252.4 339c-.1 6.6 5.2 12 11.8 12 6.6.1 12-5.2 12-11.8 0-5.5-3.6-10.1-8.6-11.6v-1.8c0-.4-.4-.6-.9-.7v-.2c0-.3-.2-.5-.5-.5h-.3c0-1-.2-2.9-.8-3.6-.4-.4-1-.4-1.4 0-.7.7-.9 2.6-.9 3.6h-.3c-.3 0-.5.2-.5.5v.2c-.5 0-.9.3-.9.7v1.8c-4.9 1.4-8.6 5.9-8.7 11.4zm13.1-14.6h-2.1c0-1.1.2-2.7.8-3.3.2-.2.4-.2.6 0 .6.6.7 2.2.7 3.3zm1.4 16.4l-2.5-2 3.2-.8 1.1-3 1.7 2.8 3.2.1-2.1 2.5.9 3.1-3-1.2-2.7 1.8.2-3.3zm-3.8-7.1l.4-1.3-.8-1h1.3l.7-1.1.4 1.3 1.3.3-1.1.8.1 1.3-1.1-.8-1.2.5zm-4.3 12l1.4-.6.2-1.5 1 1.1 1.5-.2-.7 1.3.7 1.4-1.5-.3-1.1 1.1-.2-1.5-1.3-.8zm-1.7-7.7l-1.7-1.7 2.4-.3 1.1-2.1 1 2.2 2.4.4-1.7 1.6.4 2.4-2.1-1.1-2.1 1.1.3-2.5zM191.7 358.3c-.1 6.6 5.2 12 11.8 12 6.6.1 12-5.2 12-11.8 0-5.5-3.6-10.1-8.6-11.6v-1.8c0-.4-.4-.6-.9-.7v-.2c0-.3-.2-.5-.5-.5h-.3c0-1-.2-2.9-.8-3.6-.4-.4-1-.4-1.4 0-.7.7-.9 2.6-.9 3.6h-.3c-.3 0-.5.2-.5.5v.2c-.5 0-.9.3-.9.7v1.8c-5 1.3-8.7 5.9-8.7 11.4zm13.1-14.6h-2.1c0-1.1.2-2.7.8-3.3.2-.2.4-.2.6 0 .5.6.7 2.2.7 3.3zm1.4 16.4l-2.5-2 3.2-.8 1.1-3 1.7 2.8 3.2.1-2.1 2.5.9 3.1-3-1.2-2.7 1.8.2-3.3zm-3.8-7.2l.4-1.3-.8-1h1.3l.7-1.1.4 1.3 1.3.3-1.1.8.1 1.3-1.1-.8-1.2.5zm-4.3 12l1.4-.6.2-1.5 1 1.1 1.5-.2-.7 1.3.7 1.4-1.5-.3-1.1 1.1-.2-1.5-1.3-.8zm-1.7-7.6l-1.7-1.7 2.4-.3 1.1-2.1 1 2.2 2.4.4-1.7 1.6.4 2.4-2.1-1.1-2.1 1.1.3-2.5zM227.6 220.3c-.1 6.6 5.2 12 11.8 12 6.6.1 12-5.2 12-11.8 0-5.5-3.6-10.1-8.6-11.6v-1.8c0-.4-.4-.6-.9-.7v-.2c0-.3-.2-.5-.5-.5h-.3c0-1-.2-2.9-.8-3.6-.4-.4-1-.4-1.4 0-.7.7-.9 2.6-.9 3.6h-.3c-.3 0-.5.2-.5.5v.2c-.5 0-.9.3-.9.7v1.8c-4.9 1.4-8.6 5.9-8.7 11.4zm13.1-14.6h-2.1c0-1.1.2-2.7.8-3.3.2-.2.4-.2.6 0 .6.6.7 2.2.7 3.3zm1.4 16.4l-2.5-2 3.2-.8 1.1-3 1.7 2.8 3.2.1-2.1 2.5.9 3.1-3-1.2-2.7 1.8.2-3.3zm-3.8-7.1l.4-1.3-.8-1h1.3l.7-1.1.4 1.3 1.3.3-1.1.8.1 1.3-1.1-.8-1.2.5zm-4.3 11.9l1.4-.6.2-1.5 1 1.1 1.5-.2-.7 1.3.7 1.4-1.5-.3-1.1 1.1-.2-1.5-1.3-.8zm-1.6-7.6l-1.7-1.7 2.4-.3 1.1-2.1 1 2.2 2.4.4-1.7 1.6.4 2.4-2.1-1.1-2.1 1.1.3-2.5zM194 276c-.1 6.6 5.2 12 11.8 12 6.6.1 12-5.2 12-11.8 0-5.5-3.6-10.1-8.6-11.6v-1.8c0-.4-.4-.6-.9-.7v-.2c0-.3-.2-.5-.5-.5h-.3c0-1-.2-2.9-.8-3.6-.4-.4-1-.4-1.4 0-.7.7-.9 2.6-.9 3.6h-.3c-.3 0-.5.2-.5.5v.2c-.5 0-.9.3-.9.7v1.8c-4.9 1.3-8.7 5.9-8.7 11.4zm13.1-14.6H205c0-1.1.2-2.7.8-3.3.2-.2.4-.2.6 0 .5.6.7 2.2.7 3.3zm1.4 16.4l-2.5-2 3.2-.8 1.1-3 1.7 2.8 3.2.1-2.1 2.5.9 3.1-3-1.2-2.7 1.8.2-3.3zm-3.8-7.2l.4-1.3-.8-1h1.3l.7-1.1.4 1.3 1.3.3-1.1.8.1 1.3-1.1-.8-1.2.5zm-4.3 12l1.4-.6.2-1.5 1 1.1 1.5-.2-.7 1.3.7 1.4-1.5-.3-1.1 1.1-.2-1.5-1.3-.8zm-1.7-7.6l-1.7-1.7 2.4-.3 1.1-2.1 1 2.2 2.4.4-1.7 1.6.4 2.4-2.1-1.1-2.1 1.1.3-2.5zM282.1 249.4c-.1 6.6 5.2 12 11.8 12 6.6.1 12-5.2 12-11.8 0-5.5-3.6-10.1-8.6-11.6v-1.8c0-.4-.4-.6-.9-.7v-.2c0-.3-.2-.5-.5-.5h-.3c0-1-.2-2.9-.8-3.6-.4-.4-1-.4-1.4 0-.7.7-.9 2.6-.9 3.6h-.3c-.3 0-.5.2-.5.5v.2c-.5 0-.9.3-.9.7v1.8c-5 1.4-8.7 6-8.7 11.4zm13.1-14.5h-2.1c0-1.1.2-2.7.8-3.3.2-.2.4-.2.6 0 .5.5.6 2.2.7 3.3zm1.3 16.3l-2.5-2 3.2-.8 1.1-3 1.7 2.8 3.2.1-2.1 2.5.9 3.1-3-1.2-2.7 1.8.2-3.3zm-3.7-7.1l.4-1.3-.8-1h1.3l.7-1.1.4 1.3 1.3.3-1.1.8.1 1.3-1.1-.8-1.2.5zm-4.3 12l1.4-.6.2-1.5 1 1.1 1.5-.2-.7 1.3.7 1.4-1.5-.3-1.1 1.1-.2-1.5-1.3-.8zm-1.7-7.6l-1.7-1.7 2.4-.3 1.1-2.1 1 2.2 2.4.4-1.7 1.6.4 2.4-2.1-1.1-2.1 1.1.3-2.5zM258.2 155.2c-.1 6.6 5.2 12 11.8 12 6.6.1 12-5.2 12-11.8 0-5.5-3.6-10.1-8.6-11.6V142c0-.4-.4-.6-.9-.7v-.2c0-.3-.2-.5-.5-.5h-.3c0-1-.2-2.9-.8-3.6-.4-.4-1-.4-1.4 0-.7.7-.9 2.6-.9 3.6h-.3c-.3 0-.5.2-.5.5v.2c-.5 0-.9.3-.9.7v1.8c-5 1.4-8.7 6-8.7 11.4zm13.1-14.5h-2.1c0-1.1.2-2.7.8-3.3.2-.2.4-.2.6 0 .5.5.6 2.2.7 3.3zm1.3 16.3l-2.5-2 3.2-.8 1.1-3 1.7 2.8 3.2.1-2.1 2.5.9 3.1-3-1.2-2.7 1.8.2-3.3zm-3.7-7.1l.4-1.3-.8-1h1.3l.7-1.1.4 1.3 1.3.3-1.1.8.1 1.3-1.1-.8-1.2.5zm-4.4 12l1.4-.6.2-1.5 1 1.1 1.5-.2-.6 1.3.7 1.4-1.5-.3-1.1 1.1-.2-1.5-1.4-.8zm-1.6-7.6l-1.7-1.7 2.4-.3 1.1-2.1 1 2.2 2.4.4-1.7 1.6.4 2.4-2.1-1.1-2.1 1.1.3-2.5zM400.3 413.2c-.2 0-.3-.2-.5-.2h-.1c-1.7 0-3.1-1.2-3.1-2.9s1.4-3 3.1-3l.2.1c1.7 0 3.1 1.4 3 3.1 0 1.5-1.1 2.7-2.6 2.9zm-15 0h-.7c-1.7 0-3.1-1.5-3-3.2 0-1.7 1.5-3.1 3.2-3h.2c1.7.1 3.1 1.5 3 3.2-.1 1.5-1.2 2.7-2.7 3zm-15-.5h-.7c-1.7-.1-3-1.5-3-3.2.1-1.7 1.5-3 3.2-3h.1c1.7.1 3.1 1.5 3 3.2 0 1.6-1.2 2.8-2.6 3zm-15.1-.6h-.8c-1.7-.1-3-1.6-2.9-3.3.1-1.7 1.5-3 3.3-2.9h.1c1.7.1 3 1.5 3 3.2-.1 1.5-1.2 2.7-2.7 3zm-15-.9h-.7c-1.7-.1-3-1.6-2.9-3.3.1-1.7 1.6-3 3.3-2.9h.1c1.7.1 3 1.6 2.9 3.3-.1 1.5-1.3 2.7-2.7 2.9zm-15-1H324.4c-1.7-.1-3-1.6-2.9-3.3.1-1.7 1.6-3 3.3-2.9h.2c1.7.1 3 1.6 2.8 3.4-.1 1.4-1.2 2.6-2.6 2.8zm-15-1.3H309.4c-1.7-.2-3-1.7-2.8-3.4.2-1.7 1.7-3 3.4-2.8h.1c1.7.1 3 1.7 2.8 3.4-.2 1.5-1.3 2.6-2.7 2.8zm-14.9-1.5h-.9c-1.7-.2-2.9-1.7-2.8-3.4.2-1.7 1.7-2.9 3.4-2.8h.1c1.7.2 2.9 1.7 2.7 3.4-.1 1.5-1.2 2.6-2.5 2.8zm-15-1.7h-.9c-1.7-.2-2.9-1.8-2.7-3.5.2-1.7 1.8-2.9 3.5-2.7h.1c1.7.2 2.9 1.8 2.7 3.5-.2 1.4-1.3 2.5-2.7 2.7zm-14.9-2h-1c-1.7-.2-2.9-1.8-2.6-3.5.2-1.7 1.8-2.9 3.5-2.6h.1c1.7.2 2.9 1.8 2.6 3.5-.2 1.4-1.3 2.4-2.6 2.6zm-14.8-2.3h-1.1c-1.7-.3-2.8-1.9-2.6-3.6.3-1.7 1.9-2.8 3.6-2.6h.2c1.7.3 2.8 1.9 2.5 3.6-.3 1.4-1.4 2.4-2.6 2.6zm-14.9-2.6h-1.1c-1.7-.3-2.8-1.9-2.5-3.6.3-1.7 1.9-2.8 3.6-2.5h.1c1.7.3 2.8 2 2.5 3.6-.2 1.4-1.3 2.3-2.6 2.5zm-14.7-2.9c-.4.1-.7 0-1.1 0h-.1c-1.7-.3-2.8-2-2.4-3.7.3-1.7 2-2.8 3.7-2.4h.2c1.7.4 2.7 2 2.4 3.7-.4 1.3-1.5 2.2-2.7 2.4zm-14.7-3.3c-.4.1-.8 0-1.1 0h-.1c-1.7-.4-2.7-2.1-2.3-3.7.4-1.7 2.1-2.7 3.7-2.3h.1c1.7.4 2.7 2.1 2.3 3.7-.3 1.2-1.4 2.1-2.6 2.3zm-14.6-3.7c-.4.1-.9 0-1.3-.1h-.1c-1.7-.4-2.6-2.1-2.2-3.8.4-1.7 2.1-2.6 3.8-2.2h.2c1.7.5 2.6 2.2 2.2 3.8-.4 1.3-1.4 2.1-2.6 2.3zm-14.4-4.1c-.4.1-.9 0-1.4-.1h-.1c-1.6-.5-2.6-2.2-2.1-3.9.5-1.6 2.2-2.6 3.9-2.1h.1c1.6.5 2.5 2.3 2 3.9-.3 1.2-1.3 2-2.4 2.2zm-14.3-4.7c-.5.1-1 0-1.5-.1h-.1c-1.6-.6-2.5-2.3-1.9-4 .6-1.6 2.3-2.5 4-1.9h.1c1.6.6 2.5 2.3 1.9 3.9-.4 1.1-1.4 1.9-2.5 2.1zm-14.1-5.3c-.5.1-1.1 0-1.6-.2l-.1-.1c-1.6-.6-2.4-2.5-1.7-4 .6-1.6 2.5-2.4 4-1.7h.1c1.6.6 2.4 2.4 1.8 4-.4 1.1-1.4 1.8-2.5 2zM322.2 211.2c-.3 0-.6 0-.8-.1h-.1c-1.6-.4-2.5-2-2.1-3.5.4-1.6 2-2.5 3.5-2.1h.1c1.6.4 2.5 2 2.1 3.6-.3 1.2-1.5 2-2.7 2.1zm-13.6-3.7c-.3 0-.6 0-.9-.1h-.1c-1.5-.4-2.5-2-2-3.6.4-1.5 2-2.5 3.6-2h.1c1.5.4 2.4 2.1 2 3.6-.4 1.3-1.5 2.1-2.7 2.1zm-13.6-3.9c-.3 0-.6 0-1-.1h-.1c-1.5-.5-2.4-2.1-2-3.6.5-1.5 2.1-2.4 3.6-2h.1c1.5.5 2.4 2.1 1.9 3.6-.2 1.3-1.3 2.1-2.5 2.1zm-13.4-4.2c-.3 0-.7 0-1-.2h-.1c-1.5-.5-2.4-2.1-1.9-3.7.5-1.5 2.1-2.4 3.7-1.9h.1c1.5.5 2.3 2.2 1.8 3.7-.3 1.3-1.4 2-2.6 2.1zm-13.3-4.6c-.4 0-.7 0-1.1-.2h-.1c-1.5-.5-2.3-2.2-1.8-3.7.5-1.5 2.2-2.3 3.7-1.8h.1c1.5.5 2.3 2.2 1.8 3.7-.4 1.2-1.5 1.9-2.6 2zm-13.2-5c-.4 0-.8-.1-1.2-.2h-.1c-1.5-.6-2.2-2.3-1.7-3.8.6-1.5 2.3-2.2 3.8-1.7l.1.1c1.5.6 2.2 2.3 1.6 3.8-.4 1.1-1.4 1.8-2.5 1.8zm-13-5.3c-.4 0-.9-.1-1.3-.2h-.1c-1.5-.6-2.2-2.3-1.5-3.8.6-1.5 2.3-2.2 3.8-1.5l.1.1c1.5.6 2.1 2.4 1.5 3.8-.4.9-1.5 1.5-2.5 1.6zm-12.9-5.9c-.5 0-.9-.1-1.3-.3l-.1-.1c-1.4-.7-2.1-2.4-1.4-3.9.7-1.4 2.4-2.1 3.9-1.4h.1c1.5.7 2.1 2.4 1.4 3.9-.5 1.2-1.5 1.8-2.6 1.8zm-12.5-6.3c-.5 0-1-.1-1.5-.3l-.1-.1c-1.4-.8-1.9-2.5-1.2-3.9.8-1.4 2.5-1.9 3.9-1.2h.1c1.4.7 2 2.5 1.2 3.9-.5 1-1.4 1.5-2.4 1.6zM144.6 319.1c-.2-1.7.9-3.2 2.6-3.5h.1c1.7-.2 3.2.9 3.5 2.6.2 1.7-.9 3.2-2.6 3.5h-.7c-1.4-.1-2.7-1.2-2.9-2.6zm14.8-2.2c-.3-1.7.9-3.3 2.5-3.5h.2c1.7-.3 3.3.9 3.5 2.6.3 1.7-.9 3.3-2.6 3.5H162.2c-1.4-.1-2.6-1.1-2.8-2.6zm14.7-2.4c-.3-1.7.9-3.3 2.5-3.5h.1c1.7-.3 3.3.8 3.6 2.5.3 1.7-.8 3.3-2.5 3.6h-.1c-.2 0-.5.1-.7 0-1.4-.1-2.6-1.1-2.9-2.6zm14.7-2.5c-.3-1.7.8-3.3 2.4-3.6h.1c1.7-.3 3.3.8 3.6 2.5.3 1.7-.8 3.3-2.5 3.6h-.1c-.3.1-.5.1-.8.1-1.2-.2-2.4-1.2-2.7-2.6zm14.7-2.9c-.3-1.7.7-3.3 2.4-3.6h.1c1.7-.3 3.3.7 3.6 2.4.3 1.7-.7 3.3-2.4 3.6h-.1c-.3.1-.5.1-.8.1-1.4-.1-2.6-1.1-2.8-2.5zm14.6-3c-.4-1.7.7-3.3 2.3-3.7h.1c1.7-.4 3.3.7 3.7 2.3.4 1.7-.7 3.3-2.3 3.7h-.1c-.3.1-.6.1-.9.1-1.4-.1-2.5-1.1-2.8-2.4zm14.5-3.4c-.4-1.6.6-3.3 2.2-3.7h.2c1.7-.4 3.3.6 3.7 2.3.4 1.7-.6 3.3-2.3 3.7h-.1c-.3.1-.7.1-1 .1-1.2-.1-2.4-1-2.7-2.4zm14.4-3.6c-.5-1.6.5-3.3 2.2-3.8h.1c1.6-.4 3.3.5 3.8 2.2.4 1.6-.5 3.3-2.2 3.8h-.1c-.3.1-.7.1-1 .1-1.3-.2-2.4-1-2.8-2.3zm14.4-4c-.5-1.6.4-3.3 2.1-3.8h.2c1.6-.5 3.3.5 3.8 2.1s-.5 3.3-2.1 3.8h-.1c-.4.1-.7.1-1.1.1-1.3-.1-2.4-.9-2.8-2.2zm14.3-4.4c-.5-1.6.4-3.4 2-3.9h.1c1.6-.5 3.4.4 3.9 2s-.4 3.4-2 3.9h-.1c-.4.1-.8.2-1.1.1-1.3 0-2.4-.8-2.8-2.1zm14.2-4.6c-.6-1.6.2-3.4 1.8-4l.1-.1c1.6-.6 3.4.3 3.9 1.9.6 1.6-.3 3.4-1.9 3.9h-.1c-.4.2-.8.2-1.3.2-1 0-2.1-.7-2.5-1.9zm14-5.2c-.6-1.6.1-3.4 1.7-4l.1-.1c1.6-.6 3.4.2 4 1.7.6 1.6-.2 3.4-1.7 4h-.1c-.4.2-.9.2-1.4.2-1.1.1-2.2-.6-2.6-1.8zm13.7-5.6c-.7-1.6 0-3.4 1.6-4.1h.1c1.6-.7 3.4 0 4.1 1.6.7 1.6 0 3.4-1.6 4.1l-.1.1c-.5.2-1 .3-1.4.2-1.1-.2-2.2-.9-2.7-1.9zm13.6-6.2c-.7-1.5-.1-3.4 1.4-4.1h.1c1.5-.8 3.4-.2 4.1 1.4.8 1.5.2 3.4-1.4 4.1l-.1.1c-.5.2-1 .3-1.6.3-1-.2-2-.8-2.5-1.8zM318 319.5c-.1 6.6 5.2 12 11.8 12 6.6.1 12-5.2 12-11.8 0-5.5-3.6-10.1-8.6-11.6v-1.8c0-.4-.4-.6-.9-.7v-.2c0-.3-.2-.5-.5-.5h-.3c0-1-.2-2.9-.8-3.6-.4-.4-1-.4-1.4 0-.7.7-.9 2.6-.9 3.6h-.3c-.3 0-.5.2-.5.5v.2c-.5 0-.9.3-.9.7v1.8c-4.9 1.4-8.6 5.9-8.7 11.4zm13.1-14.6H329c0-1.1.2-2.7.8-3.3.2-.2.4-.2.6 0 .5.6.7 2.2.7 3.3zm1.4 16.4l-2.5-2 3.2-.8 1.1-3 1.7 2.8 3.2.1-2.1 2.5.9 3.1-3-1.2-2.7 1.8.2-3.3zm-3.8-7.1l.4-1.3-.8-1h1.3l.7-1.1.4 1.3 1.3.3-1.1.8.1 1.3-1.1-.8-1.2.5zm-4.3 11.9l1.4-.6.2-1.5 1 1.1 1.5-.2-.7 1.3.7 1.4-1.5-.3-1.1 1.1-.2-1.5-1.3-.8zm-1.7-7.6l-1.7-1.7 2.4-.3 1.1-2.1 1 2.2 2.4.4-1.7 1.6.4 2.4-2.1-1.1-2.1 1.1.3-2.5z"/></g></g></svg>